%TF.GenerationSoftware,KiCad,Pcbnew,6.0.4-6f826c9f35~116~ubuntu20.04.1*%
%TF.CreationDate,2022-04-18T14:11:44+07:00*%
%TF.ProjectId,pmod-thin-switches,706d6f64-2d74-4686-996e-2d7377697463,1.0*%
%TF.SameCoordinates,Original*%
%TF.FileFunction,Copper,L2,Bot*%
%TF.FilePolarity,Positive*%
%FSLAX46Y46*%
G04 Gerber Fmt 4.6, Leading zero omitted, Abs format (unit mm)*
G04 Created by KiCad (PCBNEW 6.0.4-6f826c9f35~116~ubuntu20.04.1) date 2022-04-18 14:11:44*
%MOMM*%
%LPD*%
G01*
G04 APERTURE LIST*
G04 Aperture macros list*
%AMRoundRect*
0 Rectangle with rounded corners*
0 $1 Rounding radius*
0 $2 $3 $4 $5 $6 $7 $8 $9 X,Y pos of 4 corners*
0 Add a 4 corners polygon primitive as box body*
4,1,4,$2,$3,$4,$5,$6,$7,$8,$9,$2,$3,0*
0 Add four circle primitives for the rounded corners*
1,1,$1+$1,$2,$3*
1,1,$1+$1,$4,$5*
1,1,$1+$1,$6,$7*
1,1,$1+$1,$8,$9*
0 Add four rect primitives between the rounded corners*
20,1,$1+$1,$2,$3,$4,$5,0*
20,1,$1+$1,$4,$5,$6,$7,0*
20,1,$1+$1,$6,$7,$8,$9,0*
20,1,$1+$1,$8,$9,$2,$3,0*%
G04 Aperture macros list end*
%TA.AperFunction,ComponentPad*%
%ADD10C,2.000000*%
%TD*%
%TA.AperFunction,ComponentPad*%
%ADD11R,1.700000X1.700000*%
%TD*%
%TA.AperFunction,ComponentPad*%
%ADD12O,1.700000X1.700000*%
%TD*%
%TA.AperFunction,ComponentPad*%
%ADD13C,1.700000*%
%TD*%
%TA.AperFunction,ComponentPad*%
%ADD14R,1.600000X1.600000*%
%TD*%
%TA.AperFunction,ComponentPad*%
%ADD15O,1.600000X1.600000*%
%TD*%
%TA.AperFunction,SMDPad,CuDef*%
%ADD16RoundRect,0.237500X-0.237500X0.300000X-0.237500X-0.300000X0.237500X-0.300000X0.237500X0.300000X0*%
%TD*%
%TA.AperFunction,SMDPad,CuDef*%
%ADD17R,0.800000X0.500000*%
%TD*%
%TA.AperFunction,SMDPad,CuDef*%
%ADD18R,0.800000X0.400000*%
%TD*%
%TA.AperFunction,SMDPad,CuDef*%
%ADD19R,0.500000X0.800000*%
%TD*%
%TA.AperFunction,SMDPad,CuDef*%
%ADD20R,0.400000X0.800000*%
%TD*%
%TA.AperFunction,ViaPad*%
%ADD21C,0.685800*%
%TD*%
%TA.AperFunction,Conductor*%
%ADD22C,0.254000*%
%TD*%
%TA.AperFunction,Conductor*%
%ADD23C,0.700000*%
%TD*%
%TA.AperFunction,Conductor*%
%ADD24C,0.762000*%
%TD*%
G04 APERTURE END LIST*
D10*
%TO.P,PB1,1,1*%
%TO.N,GND*%
X128940000Y-115500000D03*
X135440000Y-115500000D03*
%TO.P,PB1,2,2*%
%TO.N,/P1S*%
X135440000Y-111000000D03*
X128940000Y-111000000D03*
%TD*%
%TO.P,PB2,1,1*%
%TO.N,GND*%
X128940000Y-123000000D03*
X135440000Y-123000000D03*
%TO.P,PB2,2,2*%
%TO.N,/P2S*%
X135440000Y-118500000D03*
X128940000Y-118500000D03*
%TD*%
D11*
%TO.P,J1,1,Pin_1*%
%TO.N,/S1J*%
X116640000Y-110650000D03*
D12*
%TO.P,J1,2,Pin_2*%
%TO.N,/S2J*%
X116640000Y-113190000D03*
%TO.P,J1,3,Pin_3*%
%TO.N,/S3J*%
X116640000Y-115730000D03*
%TO.P,J1,4,Pin_4*%
%TO.N,/S4J*%
X116640000Y-118270000D03*
%TO.P,J1,5,Pin_5*%
%TO.N,GND*%
X116640000Y-120810000D03*
D13*
%TO.P,J1,6,Pin_6*%
%TO.N,+3V3*%
X116640000Y-123350000D03*
%TO.P,J1,7,Pin_7*%
%TO.N,/P1S*%
X114100000Y-110650000D03*
D12*
%TO.P,J1,8,Pin_8*%
%TO.N,/P2S*%
X114100000Y-113190000D03*
%TO.P,J1,9,Pin_9*%
%TO.N,/P3S*%
X114100000Y-115730000D03*
%TO.P,J1,10,Pin_10*%
%TO.N,/P4S*%
X114100000Y-118270000D03*
%TO.P,J1,11,Pin_11*%
%TO.N,GND*%
X114100000Y-120810000D03*
%TO.P,J1,12,Pin_12*%
%TO.N,+3V3*%
X114100000Y-123350000D03*
%TD*%
D11*
%TO.P,J2,1,Pin_1*%
%TO.N,/S1J*%
X149240000Y-110680000D03*
D12*
%TO.P,J2,2,Pin_2*%
%TO.N,/S1S*%
X151780000Y-110680000D03*
%TO.P,J2,3,Pin_3*%
%TO.N,/S2J*%
X149240000Y-113220000D03*
%TO.P,J2,4,Pin_4*%
%TO.N,/S2S*%
X151780000Y-113220000D03*
%TO.P,J2,5,Pin_5*%
%TO.N,/S3J*%
X149240000Y-115760000D03*
%TO.P,J2,6,Pin_6*%
%TO.N,/S3S*%
X151780000Y-115760000D03*
%TO.P,J2,7,Pin_7*%
%TO.N,/S4J*%
X149240000Y-118300000D03*
%TO.P,J2,8,Pin_8*%
%TO.N,/S4S*%
X151780000Y-118300000D03*
%TO.P,J2,9,Pin_9*%
%TO.N,GND*%
X149240000Y-120840000D03*
%TO.P,J2,10,Pin_10*%
X151780000Y-120840000D03*
%TO.P,J2,11,Pin_11*%
%TO.N,+3V3*%
X149240000Y-123380000D03*
%TO.P,J2,12,Pin_12*%
X151780000Y-123380000D03*
%TD*%
D14*
%TO.P,SW1,1*%
%TO.N,+3V3*%
X159550000Y-113200000D03*
D15*
%TO.P,SW1,2*%
X159550000Y-115740000D03*
%TO.P,SW1,3*%
X159550000Y-118280000D03*
%TO.P,SW1,4*%
X159550000Y-120820000D03*
%TO.P,SW1,5*%
%TO.N,/S4S*%
X167170000Y-120820000D03*
%TO.P,SW1,6*%
%TO.N,/S3S*%
X167170000Y-118280000D03*
%TO.P,SW1,7*%
%TO.N,/S2S*%
X167170000Y-115740000D03*
%TO.P,SW1,8*%
%TO.N,/S1S*%
X167170000Y-113200000D03*
%TD*%
D10*
%TO.P,PB3,1,1*%
%TO.N,GND*%
X144940000Y-111000000D03*
X138440000Y-111000000D03*
%TO.P,PB3,2,2*%
%TO.N,/P3S*%
X144940000Y-115500000D03*
X138440000Y-115500000D03*
%TD*%
%TO.P,PB4,1,1*%
%TO.N,GND*%
X138440000Y-118500000D03*
X144940000Y-118500000D03*
%TO.P,PB4,2,2*%
%TO.N,/P4S*%
X144940000Y-123000000D03*
X138440000Y-123000000D03*
%TD*%
D16*
%TO.P,C4,1*%
%TO.N,GND*%
X119802000Y-110287500D03*
%TO.P,C4,2*%
%TO.N,/P4S*%
X119802000Y-112012500D03*
%TD*%
D17*
%TO.P,R2,1,R1.1*%
%TO.N,GND*%
X156900000Y-110150000D03*
D18*
%TO.P,R2,2,R2.1*%
X156900000Y-110950000D03*
%TO.P,R2,3,R3.1*%
X156900000Y-111750000D03*
D17*
%TO.P,R2,4,R4.1*%
X156900000Y-112550000D03*
%TO.P,R2,5,R4.2*%
%TO.N,/S4S*%
X155100000Y-112550000D03*
D18*
%TO.P,R2,6,R3.2*%
%TO.N,/S3S*%
X155100000Y-111750000D03*
%TO.P,R2,7,R2.2*%
%TO.N,/S2S*%
X155100000Y-110950000D03*
D17*
%TO.P,R2,8,R1.2*%
%TO.N,/S1S*%
X155100000Y-110150000D03*
%TD*%
D16*
%TO.P,C1,1*%
%TO.N,GND*%
X126072000Y-110287500D03*
%TO.P,C1,2*%
%TO.N,/P1S*%
X126072000Y-112012500D03*
%TD*%
%TO.P,C2,1*%
%TO.N,GND*%
X123982000Y-110287500D03*
%TO.P,C2,2*%
%TO.N,/P2S*%
X123982000Y-112012500D03*
%TD*%
D19*
%TO.P,R1,1,R1.1*%
%TO.N,+3V3*%
X124140000Y-123350000D03*
D20*
%TO.P,R1,2,R2.1*%
X123340000Y-123350000D03*
%TO.P,R1,3,R3.1*%
X122540000Y-123350000D03*
D19*
%TO.P,R1,4,R4.1*%
X121740000Y-123350000D03*
%TO.P,R1,5,R4.2*%
%TO.N,/P4S*%
X121740000Y-121550000D03*
D20*
%TO.P,R1,6,R3.2*%
%TO.N,/P3S*%
X122540000Y-121550000D03*
%TO.P,R1,7,R2.2*%
%TO.N,/P2S*%
X123340000Y-121550000D03*
D19*
%TO.P,R1,8,R1.2*%
%TO.N,/P1S*%
X124140000Y-121550000D03*
%TD*%
D16*
%TO.P,C3,1*%
%TO.N,GND*%
X121892000Y-110287500D03*
%TO.P,C3,2*%
%TO.N,/P3S*%
X121892000Y-112012500D03*
%TD*%
D21*
%TO.N,/P2S*%
X123340000Y-118490000D03*
%TO.N,/P3S*%
X121885000Y-116855000D03*
%TO.N,/P4S*%
X121740000Y-120410000D03*
%TD*%
D22*
%TO.N,GND*%
X119802000Y-110287500D02*
X123982000Y-110287500D01*
X113632389Y-109521089D02*
X112565169Y-110588309D01*
X112565169Y-110588309D02*
X112565169Y-119275169D01*
X119802000Y-110287500D02*
X119035589Y-109521089D01*
X112565169Y-119275169D02*
X114100000Y-120810000D01*
X123982000Y-110287500D02*
X126072000Y-110287500D01*
X119035589Y-109521089D02*
X113632389Y-109521089D01*
%TO.N,/P1S*%
X124140000Y-115800000D02*
X124140000Y-121550000D01*
X128940000Y-111000000D02*
X127927500Y-112012500D01*
X128940000Y-111000000D02*
X124140000Y-115800000D01*
X127927500Y-112012500D02*
X126072000Y-112012500D01*
%TO.N,/P2S*%
X123340000Y-112654500D02*
X123982000Y-112012500D01*
X123340000Y-118490000D02*
X123340000Y-112654500D01*
X123340000Y-121550000D02*
X123340000Y-118490000D01*
%TO.N,/P3S*%
X121892000Y-112012500D02*
X121892000Y-116848000D01*
X121885000Y-116855000D02*
X121881089Y-116858911D01*
X121890000Y-116850000D02*
X121885000Y-116855000D01*
X121890000Y-116850000D02*
X122540000Y-117500000D01*
X122540000Y-117500000D02*
X122540000Y-121550000D01*
X121892000Y-116848000D02*
X121890000Y-116850000D01*
X121881089Y-116858911D02*
X115228911Y-116858911D01*
X115228911Y-116858911D02*
X114100000Y-115730000D01*
%TO.N,/P4S*%
X112971089Y-112722389D02*
X112971089Y-117141089D01*
X113680978Y-112012500D02*
X112971089Y-112722389D01*
X121740000Y-121550000D02*
X121740000Y-120410000D01*
X119802000Y-112012500D02*
X113680978Y-112012500D01*
X112971089Y-117141089D02*
X114100000Y-118270000D01*
D23*
%TO.N,+3V3*%
X116640000Y-123350000D02*
X117822911Y-124532911D01*
D22*
X121740000Y-123350000D02*
X121740000Y-124330000D01*
D23*
X148087089Y-124532911D02*
X149240000Y-123380000D01*
D24*
X149240000Y-123380000D02*
X151780000Y-123380000D01*
D22*
X124140000Y-123350000D02*
X124140000Y-124360000D01*
D23*
X117822911Y-124532911D02*
X121942911Y-124532911D01*
D22*
X159550000Y-120820000D02*
X154340000Y-120820000D01*
X123340000Y-124510000D02*
X123317089Y-124532911D01*
D23*
X122772911Y-124532911D02*
X123317089Y-124532911D01*
D22*
X154340000Y-120820000D02*
X151780000Y-123380000D01*
X122540000Y-123350000D02*
X122540000Y-124300000D01*
D23*
X123967089Y-124532911D02*
X148087089Y-124532911D01*
D22*
X124140000Y-124360000D02*
X123967089Y-124532911D01*
D23*
X121942911Y-124532911D02*
X122772911Y-124532911D01*
X123317089Y-124532911D02*
X123967089Y-124532911D01*
D22*
X123340000Y-123350000D02*
X123340000Y-124510000D01*
X159550000Y-113200000D02*
X159550000Y-120820000D01*
%TO.N,/S1S*%
X155100000Y-110150000D02*
X152310000Y-110150000D01*
X152310000Y-110150000D02*
X151780000Y-110680000D01*
%TO.N,/S2S*%
X155100000Y-110950000D02*
X154050000Y-110950000D01*
X154050000Y-110950000D02*
X151780000Y-113220000D01*
%TO.N,/S3S*%
X154446000Y-111750000D02*
X152910000Y-113286000D01*
X155100000Y-111750000D02*
X154446000Y-111750000D01*
X152910000Y-114630000D02*
X151780000Y-115760000D01*
X152910000Y-113286000D02*
X152910000Y-114630000D01*
%TO.N,/S4S*%
X155100000Y-114980000D02*
X151780000Y-118300000D01*
X155100000Y-112550000D02*
X155100000Y-114980000D01*
%TD*%
%TA.AperFunction,Conductor*%
%TO.N,GND*%
G36*
X134552170Y-109501109D02*
G01*
X134620281Y-109521141D01*
X134666751Y-109574817D01*
X134676824Y-109645095D01*
X134647302Y-109709663D01*
X134617950Y-109734541D01*
X134563531Y-109767890D01*
X134550584Y-109775824D01*
X134370031Y-109930031D01*
X134366823Y-109933787D01*
X134360505Y-109941185D01*
X134215824Y-110110584D01*
X134213245Y-110114792D01*
X134213241Y-110114798D01*
X134173711Y-110179305D01*
X134091760Y-110313037D01*
X134089867Y-110317607D01*
X134089865Y-110317611D01*
X134005413Y-110521498D01*
X134000895Y-110532406D01*
X133995459Y-110555048D01*
X133949057Y-110748329D01*
X133945465Y-110763289D01*
X133926835Y-111000000D01*
X133945465Y-111236711D01*
X133946619Y-111241518D01*
X133946620Y-111241524D01*
X133977174Y-111368790D01*
X134000895Y-111467594D01*
X134002788Y-111472165D01*
X134002789Y-111472167D01*
X134089772Y-111682163D01*
X134091760Y-111686963D01*
X134094346Y-111691183D01*
X134213241Y-111885202D01*
X134213245Y-111885208D01*
X134215824Y-111889416D01*
X134305721Y-111994672D01*
X134366329Y-112065634D01*
X134370031Y-112069969D01*
X134550584Y-112224176D01*
X134554792Y-112226755D01*
X134554798Y-112226759D01*
X134689343Y-112309208D01*
X134753037Y-112348240D01*
X134757607Y-112350133D01*
X134757611Y-112350135D01*
X134967833Y-112437211D01*
X134972406Y-112439105D01*
X135052609Y-112458360D01*
X135198476Y-112493380D01*
X135198482Y-112493381D01*
X135203289Y-112494535D01*
X135440000Y-112513165D01*
X135676711Y-112494535D01*
X135681518Y-112493381D01*
X135681524Y-112493380D01*
X135827391Y-112458360D01*
X135907594Y-112439105D01*
X135912167Y-112437211D01*
X136122389Y-112350135D01*
X136122393Y-112350133D01*
X136126963Y-112348240D01*
X136190657Y-112309208D01*
X136315556Y-112232670D01*
X137572160Y-112232670D01*
X137577887Y-112240320D01*
X137749042Y-112345205D01*
X137757837Y-112349687D01*
X137967988Y-112436734D01*
X137977373Y-112439783D01*
X138198554Y-112492885D01*
X138208301Y-112494428D01*
X138435070Y-112512275D01*
X138444930Y-112512275D01*
X138671699Y-112494428D01*
X138681446Y-112492885D01*
X138902627Y-112439783D01*
X138912012Y-112436734D01*
X139122163Y-112349687D01*
X139130958Y-112345205D01*
X139298445Y-112242568D01*
X139307400Y-112232670D01*
X144072160Y-112232670D01*
X144077887Y-112240320D01*
X144249042Y-112345205D01*
X144257837Y-112349687D01*
X144467988Y-112436734D01*
X144477373Y-112439783D01*
X144698554Y-112492885D01*
X144708301Y-112494428D01*
X144935070Y-112512275D01*
X144944930Y-112512275D01*
X145171699Y-112494428D01*
X145181446Y-112492885D01*
X145402627Y-112439783D01*
X145412012Y-112436734D01*
X145622163Y-112349687D01*
X145630958Y-112345205D01*
X145798445Y-112242568D01*
X145807907Y-112232110D01*
X145804124Y-112223334D01*
X144952812Y-111372022D01*
X144938868Y-111364408D01*
X144937035Y-111364539D01*
X144930420Y-111368790D01*
X144078920Y-112220290D01*
X144072160Y-112232670D01*
X139307400Y-112232670D01*
X139307907Y-112232110D01*
X139304124Y-112223334D01*
X138452812Y-111372022D01*
X138438868Y-111364408D01*
X138437035Y-111364539D01*
X138430420Y-111368790D01*
X137578920Y-112220290D01*
X137572160Y-112232670D01*
X136315556Y-112232670D01*
X136325202Y-112226759D01*
X136325208Y-112226755D01*
X136329416Y-112224176D01*
X136509969Y-112069969D01*
X136513672Y-112065634D01*
X136574279Y-111994672D01*
X136664176Y-111889416D01*
X136666755Y-111885208D01*
X136666759Y-111885202D01*
X136785654Y-111691183D01*
X136788240Y-111686963D01*
X136790229Y-111682163D01*
X136823862Y-111600964D01*
X136868410Y-111545683D01*
X136935774Y-111523262D01*
X137004565Y-111540820D01*
X137052943Y-111592782D01*
X137056680Y-111600964D01*
X137090313Y-111682163D01*
X137094795Y-111690958D01*
X137197432Y-111858445D01*
X137207890Y-111867907D01*
X137216666Y-111864124D01*
X138067978Y-111012812D01*
X138074356Y-111001132D01*
X138804408Y-111001132D01*
X138804539Y-111002965D01*
X138808790Y-111009580D01*
X139660290Y-111861080D01*
X139672670Y-111867840D01*
X139680320Y-111862113D01*
X139785205Y-111690958D01*
X139789687Y-111682163D01*
X139876734Y-111472012D01*
X139879783Y-111462627D01*
X139932885Y-111241446D01*
X139934428Y-111231699D01*
X139952275Y-111004930D01*
X143427725Y-111004930D01*
X143445572Y-111231699D01*
X143447115Y-111241446D01*
X143500217Y-111462627D01*
X143503266Y-111472012D01*
X143590313Y-111682163D01*
X143594795Y-111690958D01*
X143697432Y-111858445D01*
X143707890Y-111867907D01*
X143716666Y-111864124D01*
X144567978Y-111012812D01*
X144574356Y-111001132D01*
X145304408Y-111001132D01*
X145304539Y-111002965D01*
X145308790Y-111009580D01*
X146160290Y-111861080D01*
X146172670Y-111867840D01*
X146180320Y-111862113D01*
X146285205Y-111690958D01*
X146289687Y-111682163D01*
X146376734Y-111472012D01*
X146379783Y-111462627D01*
X146432885Y-111241446D01*
X146434428Y-111231699D01*
X146452275Y-111004930D01*
X146452275Y-110995070D01*
X146434428Y-110768301D01*
X146432885Y-110758554D01*
X146379783Y-110537373D01*
X146376734Y-110527988D01*
X146289687Y-110317837D01*
X146285205Y-110309042D01*
X146182568Y-110141555D01*
X146172110Y-110132093D01*
X146163334Y-110135876D01*
X145312022Y-110987188D01*
X145304408Y-111001132D01*
X144574356Y-111001132D01*
X144575592Y-110998868D01*
X144575461Y-110997035D01*
X144571210Y-110990420D01*
X143719710Y-110138920D01*
X143707330Y-110132160D01*
X143699680Y-110137887D01*
X143594795Y-110309042D01*
X143590313Y-110317837D01*
X143503266Y-110527988D01*
X143500217Y-110537373D01*
X143447115Y-110758554D01*
X143445572Y-110768301D01*
X143427725Y-110995070D01*
X143427725Y-111004930D01*
X139952275Y-111004930D01*
X139952275Y-110995070D01*
X139934428Y-110768301D01*
X139932885Y-110758554D01*
X139879783Y-110537373D01*
X139876734Y-110527988D01*
X139789687Y-110317837D01*
X139785205Y-110309042D01*
X139682568Y-110141555D01*
X139672110Y-110132093D01*
X139663334Y-110135876D01*
X138812022Y-110987188D01*
X138804408Y-111001132D01*
X138074356Y-111001132D01*
X138075592Y-110998868D01*
X138075461Y-110997035D01*
X138071210Y-110990420D01*
X137219710Y-110138920D01*
X137207330Y-110132160D01*
X137199680Y-110137887D01*
X137094795Y-110309042D01*
X137090313Y-110317837D01*
X137056680Y-110399036D01*
X137012132Y-110454317D01*
X136944769Y-110476738D01*
X136875978Y-110459180D01*
X136827599Y-110407218D01*
X136823862Y-110399036D01*
X136790135Y-110317611D01*
X136790133Y-110317607D01*
X136788240Y-110313037D01*
X136706289Y-110179305D01*
X136666759Y-110114798D01*
X136666755Y-110114792D01*
X136664176Y-110110584D01*
X136519495Y-109941185D01*
X136513177Y-109933787D01*
X136509969Y-109930031D01*
X136329416Y-109775824D01*
X136325203Y-109773242D01*
X136325193Y-109773235D01*
X136263320Y-109735319D01*
X136215689Y-109682672D01*
X136204082Y-109612630D01*
X136232185Y-109547433D01*
X136291076Y-109507779D01*
X136329208Y-109501887D01*
X137550988Y-109502422D01*
X137619098Y-109522454D01*
X137665568Y-109576130D01*
X137675641Y-109646408D01*
X137646119Y-109710976D01*
X137616767Y-109735854D01*
X137581554Y-109757433D01*
X137572093Y-109767890D01*
X137575876Y-109776666D01*
X138427188Y-110627978D01*
X138441132Y-110635592D01*
X138442965Y-110635461D01*
X138449580Y-110631210D01*
X139301080Y-109779710D01*
X139307840Y-109767330D01*
X139302114Y-109759681D01*
X139264504Y-109736633D01*
X139216873Y-109683985D01*
X139205267Y-109613944D01*
X139233371Y-109548746D01*
X139292262Y-109509093D01*
X139330390Y-109503202D01*
X144046344Y-109505267D01*
X144114456Y-109525299D01*
X144160926Y-109578975D01*
X144170999Y-109649253D01*
X144141477Y-109713821D01*
X144112124Y-109738699D01*
X144081555Y-109757432D01*
X144072093Y-109767890D01*
X144075876Y-109776666D01*
X144927188Y-110627978D01*
X144941132Y-110635592D01*
X144942965Y-110635461D01*
X144949580Y-110631210D01*
X145801080Y-109779710D01*
X145807840Y-109767330D01*
X145802114Y-109759681D01*
X145769153Y-109739482D01*
X145721522Y-109686834D01*
X145709916Y-109616793D01*
X145738020Y-109551595D01*
X145796910Y-109511942D01*
X145835042Y-109506050D01*
X147398028Y-109506735D01*
X147786279Y-109506905D01*
X147854391Y-109526937D01*
X147900861Y-109580613D01*
X147910934Y-109650891D01*
X147904206Y-109677134D01*
X147888255Y-109719684D01*
X147881500Y-109781866D01*
X147881500Y-111578134D01*
X147888255Y-111640316D01*
X147939385Y-111776705D01*
X148026739Y-111893261D01*
X148143295Y-111980615D01*
X148151704Y-111983767D01*
X148151705Y-111983768D01*
X148260451Y-112024535D01*
X148317216Y-112067176D01*
X148341916Y-112133738D01*
X148326709Y-112203087D01*
X148307316Y-112229568D01*
X148196811Y-112345205D01*
X148180629Y-112362138D01*
X148177720Y-112366403D01*
X148177714Y-112366411D01*
X148110592Y-112464809D01*
X148054743Y-112546680D01*
X147960688Y-112749305D01*
X147900989Y-112964570D01*
X147877251Y-113186695D01*
X147877548Y-113191848D01*
X147877548Y-113191851D01*
X147881088Y-113253240D01*
X147890110Y-113409715D01*
X147891247Y-113414761D01*
X147891248Y-113414767D01*
X147893015Y-113422607D01*
X147939222Y-113627639D01*
X148023266Y-113834616D01*
X148061052Y-113896277D01*
X148137291Y-114020688D01*
X148139987Y-114025088D01*
X148286250Y-114193938D01*
X148458126Y-114336632D01*
X148480106Y-114349476D01*
X148531445Y-114379476D01*
X148580169Y-114431114D01*
X148593240Y-114500897D01*
X148566509Y-114566669D01*
X148526055Y-114600027D01*
X148521349Y-114602477D01*
X148513607Y-114606507D01*
X148509474Y-114609610D01*
X148509471Y-114609612D01*
X148339100Y-114737530D01*
X148334965Y-114740635D01*
X148331393Y-114744373D01*
X148184319Y-114898277D01*
X148180629Y-114902138D01*
X148177720Y-114906403D01*
X148177714Y-114906411D01*
X148109434Y-115006506D01*
X148054743Y-115086680D01*
X148032100Y-115135461D01*
X147970438Y-115268301D01*
X147960688Y-115289305D01*
X147900989Y-115504570D01*
X147877251Y-115726695D01*
X147877548Y-115731848D01*
X147877548Y-115731851D01*
X147879171Y-115760000D01*
X147890110Y-115949715D01*
X147891247Y-115954761D01*
X147891248Y-115954767D01*
X147910642Y-116040820D01*
X147939222Y-116167639D01*
X147971723Y-116247680D01*
X148020515Y-116367840D01*
X148023266Y-116374616D01*
X148074942Y-116458944D01*
X148137291Y-116560688D01*
X148139987Y-116565088D01*
X148286250Y-116733938D01*
X148458126Y-116876632D01*
X148476608Y-116887432D01*
X148531445Y-116919476D01*
X148580169Y-116971114D01*
X148593240Y-117040897D01*
X148566509Y-117106669D01*
X148526055Y-117140027D01*
X148521349Y-117142477D01*
X148513607Y-117146507D01*
X148509474Y-117149610D01*
X148509471Y-117149612D01*
X148340251Y-117276666D01*
X148334965Y-117280635D01*
X148331393Y-117284373D01*
X148225215Y-117395482D01*
X148180629Y-117442138D01*
X148177720Y-117446403D01*
X148177714Y-117446411D01*
X148116481Y-117536175D01*
X148054743Y-117626680D01*
X148018375Y-117705028D01*
X147970094Y-117809042D01*
X147960688Y-117829305D01*
X147900989Y-118044570D01*
X147877251Y-118266695D01*
X147877548Y-118271848D01*
X147877548Y-118271851D01*
X147889812Y-118484547D01*
X147890110Y-118489715D01*
X147891247Y-118494761D01*
X147891248Y-118494767D01*
X147895315Y-118512812D01*
X147939222Y-118707639D01*
X147977461Y-118801811D01*
X148012873Y-118889020D01*
X148023266Y-118914616D01*
X148061052Y-118976277D01*
X148137291Y-119100688D01*
X148139987Y-119105088D01*
X148286250Y-119273938D01*
X148458126Y-119416632D01*
X148499649Y-119440896D01*
X148531955Y-119459774D01*
X148580679Y-119511412D01*
X148593750Y-119581195D01*
X148567019Y-119646967D01*
X148526562Y-119680327D01*
X148518457Y-119684546D01*
X148509738Y-119690036D01*
X148339433Y-119817905D01*
X148331726Y-119824748D01*
X148184590Y-119978717D01*
X148178104Y-119986727D01*
X148058098Y-120162649D01*
X148053000Y-120171623D01*
X147963338Y-120364783D01*
X147959775Y-120374470D01*
X147904389Y-120574183D01*
X147905912Y-120582607D01*
X147918292Y-120586000D01*
X153098344Y-120586000D01*
X153111875Y-120582027D01*
X153113180Y-120572947D01*
X153071214Y-120405875D01*
X153067894Y-120396124D01*
X152982972Y-120200814D01*
X152978105Y-120191739D01*
X152862426Y-120012926D01*
X152856136Y-120004757D01*
X152712806Y-119847240D01*
X152705273Y-119840215D01*
X152538139Y-119708222D01*
X152529556Y-119702520D01*
X152492602Y-119682120D01*
X152442631Y-119631687D01*
X152427859Y-119562245D01*
X152452975Y-119495839D01*
X152480327Y-119469232D01*
X152520053Y-119440896D01*
X152659860Y-119341173D01*
X152715028Y-119286198D01*
X152814435Y-119187137D01*
X152818096Y-119183489D01*
X152877594Y-119100689D01*
X152945435Y-119006277D01*
X152948453Y-119002077D01*
X152963236Y-118972167D01*
X153045136Y-118806453D01*
X153045137Y-118806451D01*
X153047430Y-118801811D01*
X153112370Y-118588069D01*
X153141529Y-118366590D01*
X153143156Y-118300000D01*
X153124852Y-118077361D01*
X153109080Y-118014570D01*
X153097389Y-117968024D01*
X153100194Y-117897083D01*
X153130498Y-117848234D01*
X155493483Y-115485250D01*
X155501809Y-115477674D01*
X155508303Y-115473553D01*
X155555086Y-115423734D01*
X155557840Y-115420893D01*
X155577639Y-115401094D01*
X155580063Y-115397969D01*
X155580071Y-115397960D01*
X155580137Y-115397874D01*
X155587845Y-115388849D01*
X155612790Y-115362285D01*
X155618217Y-115356506D01*
X155628023Y-115338669D01*
X155638873Y-115322153D01*
X155651350Y-115306067D01*
X155668976Y-115265334D01*
X155674193Y-115254686D01*
X155691749Y-115222751D01*
X155695569Y-115215803D01*
X155697540Y-115208128D01*
X155697542Y-115208122D01*
X155700631Y-115196089D01*
X155707034Y-115177387D01*
X155715117Y-115158708D01*
X155722060Y-115114873D01*
X155724467Y-115103251D01*
X155735500Y-115060282D01*
X155735500Y-115039935D01*
X155737051Y-115020224D01*
X155738995Y-115007950D01*
X155740235Y-115000121D01*
X155736059Y-114955944D01*
X155735500Y-114944086D01*
X155735500Y-113322040D01*
X155755502Y-113253919D01*
X155785935Y-113221214D01*
X155856080Y-113168643D01*
X155856081Y-113168642D01*
X155863261Y-113163261D01*
X155899487Y-113114925D01*
X155956345Y-113072411D01*
X156027164Y-113067385D01*
X156089457Y-113101445D01*
X156101138Y-113114925D01*
X156131717Y-113155726D01*
X156144276Y-113168285D01*
X156246351Y-113244786D01*
X156261946Y-113253324D01*
X156382394Y-113298478D01*
X156397649Y-113302105D01*
X156448514Y-113307631D01*
X156455328Y-113308000D01*
X156631885Y-113308000D01*
X156647124Y-113303525D01*
X156648329Y-113302135D01*
X156650000Y-113294452D01*
X156650000Y-113289884D01*
X157150000Y-113289884D01*
X157154475Y-113305123D01*
X157155865Y-113306328D01*
X157163548Y-113307999D01*
X157344669Y-113307999D01*
X157351490Y-113307629D01*
X157402352Y-113302105D01*
X157417604Y-113298479D01*
X157538054Y-113253324D01*
X157553649Y-113244786D01*
X157655724Y-113168285D01*
X157668285Y-113155724D01*
X157744786Y-113053649D01*
X157753324Y-113038054D01*
X157798478Y-112917606D01*
X157802105Y-112902351D01*
X157807631Y-112851486D01*
X157808000Y-112844672D01*
X157808000Y-112818115D01*
X157803525Y-112802876D01*
X157802135Y-112801671D01*
X157794452Y-112800000D01*
X157168115Y-112800000D01*
X157152876Y-112804475D01*
X157151671Y-112805865D01*
X157150000Y-112813548D01*
X157150000Y-113289884D01*
X156650000Y-113289884D01*
X156650000Y-112281885D01*
X157150000Y-112281885D01*
X157154475Y-112297124D01*
X157155865Y-112298329D01*
X157163548Y-112300000D01*
X157789884Y-112300000D01*
X157805123Y-112295525D01*
X157806328Y-112294135D01*
X157807999Y-112286452D01*
X157807999Y-112255331D01*
X157807629Y-112248510D01*
X157802105Y-112197648D01*
X157798478Y-112182393D01*
X157793544Y-112169231D01*
X157788360Y-112098424D01*
X157793544Y-112080769D01*
X157798477Y-112067610D01*
X157802105Y-112052351D01*
X157807631Y-112001486D01*
X157808000Y-111994672D01*
X157808000Y-111968115D01*
X157803525Y-111952876D01*
X157802135Y-111951671D01*
X157794452Y-111950000D01*
X157168115Y-111950000D01*
X157152876Y-111954475D01*
X157151671Y-111955865D01*
X157150000Y-111963548D01*
X157150000Y-112281885D01*
X156650000Y-112281885D01*
X156650000Y-111848905D01*
X156670002Y-111780784D01*
X156680775Y-111766393D01*
X156698329Y-111746135D01*
X156700000Y-111738452D01*
X156700000Y-111531885D01*
X157100000Y-111531885D01*
X157104475Y-111547124D01*
X157105865Y-111548329D01*
X157113548Y-111550000D01*
X157789884Y-111550000D01*
X157805123Y-111545525D01*
X157806328Y-111544135D01*
X157807999Y-111536452D01*
X157807999Y-111505331D01*
X157807629Y-111498510D01*
X157802105Y-111447648D01*
X157798479Y-111432397D01*
X157784171Y-111394230D01*
X157778988Y-111323423D01*
X157784171Y-111305770D01*
X157798478Y-111267606D01*
X157802105Y-111252351D01*
X157807631Y-111201486D01*
X157808000Y-111194672D01*
X157808000Y-111168115D01*
X157803525Y-111152876D01*
X157802135Y-111151671D01*
X157794452Y-111150000D01*
X157118115Y-111150000D01*
X157102876Y-111154475D01*
X157101671Y-111155865D01*
X157100000Y-111163548D01*
X157100000Y-111531885D01*
X156700000Y-111531885D01*
X156700000Y-110966115D01*
X156695526Y-110950876D01*
X156693488Y-110949111D01*
X156655104Y-110889385D01*
X156650000Y-110853886D01*
X156650000Y-110731885D01*
X157150000Y-110731885D01*
X157154475Y-110747124D01*
X157155865Y-110748329D01*
X157163548Y-110750000D01*
X157789884Y-110750000D01*
X157805123Y-110745525D01*
X157806328Y-110744135D01*
X157807999Y-110736452D01*
X157807999Y-110705331D01*
X157807629Y-110698510D01*
X157802105Y-110647648D01*
X157798478Y-110632393D01*
X157793544Y-110619231D01*
X157788360Y-110548424D01*
X157793544Y-110530769D01*
X157798477Y-110517610D01*
X157802105Y-110502351D01*
X157807631Y-110451486D01*
X157808000Y-110444672D01*
X157808000Y-110418115D01*
X157803525Y-110402876D01*
X157802135Y-110401671D01*
X157794452Y-110400000D01*
X157168115Y-110400000D01*
X157152876Y-110404475D01*
X157151671Y-110405865D01*
X157150000Y-110413548D01*
X157150000Y-110731885D01*
X156650000Y-110731885D01*
X156650000Y-110026000D01*
X156670002Y-109957879D01*
X156723658Y-109911386D01*
X156776000Y-109900000D01*
X157789884Y-109900000D01*
X157805123Y-109895525D01*
X157806328Y-109894135D01*
X157807999Y-109886452D01*
X157807999Y-109855331D01*
X157807629Y-109848510D01*
X157802105Y-109797648D01*
X157798479Y-109782397D01*
X157760675Y-109681555D01*
X157755492Y-109610748D01*
X157789413Y-109548379D01*
X157851668Y-109514249D01*
X157878711Y-109511325D01*
X161279367Y-109512815D01*
X168944449Y-109516172D01*
X168963776Y-109517672D01*
X168978747Y-109520003D01*
X168978751Y-109520003D01*
X168987621Y-109521384D01*
X168996524Y-109520220D01*
X168996526Y-109520220D01*
X168996650Y-109520204D01*
X169027088Y-109519933D01*
X169059951Y-109523635D01*
X169089158Y-109526926D01*
X169116666Y-109533204D01*
X169193756Y-109560179D01*
X169219176Y-109572420D01*
X169288326Y-109615869D01*
X169310386Y-109633461D01*
X169368135Y-109691209D01*
X169385727Y-109713269D01*
X169429178Y-109782421D01*
X169441420Y-109807841D01*
X169468393Y-109884924D01*
X169474672Y-109912432D01*
X169480919Y-109967872D01*
X169480611Y-109983564D01*
X169481693Y-109983577D01*
X169481584Y-109992546D01*
X169480202Y-110001421D01*
X169482663Y-110020241D01*
X169484329Y-110032980D01*
X169485393Y-110049318D01*
X169485393Y-123958330D01*
X169483893Y-123977715D01*
X169481583Y-123992548D01*
X169481583Y-123992552D01*
X169480202Y-124001421D01*
X169481382Y-124010446D01*
X169481654Y-124040881D01*
X169477013Y-124082077D01*
X169474661Y-124102955D01*
X169468382Y-124130464D01*
X169441408Y-124207552D01*
X169429169Y-124232968D01*
X169385714Y-124302125D01*
X169368125Y-124324180D01*
X169310380Y-124381925D01*
X169288325Y-124399514D01*
X169219168Y-124442969D01*
X169193752Y-124455208D01*
X169116664Y-124482182D01*
X169089159Y-124488460D01*
X169033673Y-124494712D01*
X169018040Y-124494045D01*
X169018022Y-124495494D01*
X169009049Y-124495384D01*
X169000173Y-124494002D01*
X168968744Y-124498111D01*
X168952362Y-124499174D01*
X158033344Y-124494393D01*
X152893531Y-124492142D01*
X152825420Y-124472110D01*
X152778950Y-124418434D01*
X152768877Y-124348156D01*
X152798399Y-124283588D01*
X152804648Y-124276891D01*
X152814430Y-124267144D01*
X152814440Y-124267132D01*
X152818096Y-124263489D01*
X152837028Y-124237143D01*
X152945435Y-124086277D01*
X152948453Y-124082077D01*
X152976342Y-124025649D01*
X153045136Y-123886453D01*
X153045137Y-123886451D01*
X153047430Y-123881811D01*
X153112370Y-123668069D01*
X153141529Y-123446590D01*
X153143156Y-123380000D01*
X153124852Y-123157361D01*
X153097389Y-123048024D01*
X153100194Y-122977083D01*
X153130498Y-122928234D01*
X153844135Y-122214598D01*
X154566328Y-121492405D01*
X154628640Y-121458379D01*
X154655423Y-121455500D01*
X158332007Y-121455500D01*
X158400128Y-121475502D01*
X158435219Y-121509228D01*
X158439975Y-121516020D01*
X158537147Y-121654795D01*
X158543802Y-121664300D01*
X158705700Y-121826198D01*
X158710208Y-121829355D01*
X158710211Y-121829357D01*
X158745108Y-121853792D01*
X158893251Y-121957523D01*
X158898233Y-121959846D01*
X158898238Y-121959849D01*
X159095775Y-122051961D01*
X159100757Y-122054284D01*
X159106065Y-122055706D01*
X159106067Y-122055707D01*
X159316598Y-122112119D01*
X159316600Y-122112119D01*
X159321913Y-122113543D01*
X159550000Y-122133498D01*
X159778087Y-122113543D01*
X159783400Y-122112119D01*
X159783402Y-122112119D01*
X159993933Y-122055707D01*
X159993935Y-122055706D01*
X159999243Y-122054284D01*
X160004225Y-122051961D01*
X160201762Y-121959849D01*
X160201767Y-121959846D01*
X160206749Y-121957523D01*
X160354892Y-121853792D01*
X160389789Y-121829357D01*
X160389792Y-121829355D01*
X160394300Y-121826198D01*
X160556198Y-121664300D01*
X160562854Y-121654795D01*
X160639013Y-121546028D01*
X160687523Y-121476749D01*
X160689846Y-121471767D01*
X160689849Y-121471762D01*
X160781961Y-121274225D01*
X160781961Y-121274224D01*
X160784284Y-121269243D01*
X160827499Y-121107966D01*
X160842119Y-121053402D01*
X160842119Y-121053400D01*
X160843543Y-121048087D01*
X160863498Y-120820000D01*
X165856502Y-120820000D01*
X165876457Y-121048087D01*
X165877881Y-121053400D01*
X165877881Y-121053402D01*
X165892502Y-121107966D01*
X165935716Y-121269243D01*
X165938039Y-121274224D01*
X165938039Y-121274225D01*
X166030151Y-121471762D01*
X166030154Y-121471767D01*
X166032477Y-121476749D01*
X166080987Y-121546028D01*
X166157147Y-121654795D01*
X166163802Y-121664300D01*
X166325700Y-121826198D01*
X166330208Y-121829355D01*
X166330211Y-121829357D01*
X166365108Y-121853792D01*
X166513251Y-121957523D01*
X166518233Y-121959846D01*
X166518238Y-121959849D01*
X166715775Y-122051961D01*
X166720757Y-122054284D01*
X166726065Y-122055706D01*
X166726067Y-122055707D01*
X166936598Y-122112119D01*
X166936600Y-122112119D01*
X166941913Y-122113543D01*
X167170000Y-122133498D01*
X167398087Y-122113543D01*
X167403400Y-122112119D01*
X167403402Y-122112119D01*
X167613933Y-122055707D01*
X167613935Y-122055706D01*
X167619243Y-122054284D01*
X167624225Y-122051961D01*
X167821762Y-121959849D01*
X167821767Y-121959846D01*
X167826749Y-121957523D01*
X167974892Y-121853792D01*
X168009789Y-121829357D01*
X168009792Y-121829355D01*
X168014300Y-121826198D01*
X168176198Y-121664300D01*
X168182854Y-121654795D01*
X168259013Y-121546028D01*
X168307523Y-121476749D01*
X168309846Y-121471767D01*
X168309849Y-121471762D01*
X168401961Y-121274225D01*
X168401961Y-121274224D01*
X168404284Y-121269243D01*
X168447499Y-121107966D01*
X168462119Y-121053402D01*
X168462119Y-121053400D01*
X168463543Y-121048087D01*
X168483498Y-120820000D01*
X168463543Y-120591913D01*
X168461959Y-120586000D01*
X168405707Y-120376067D01*
X168405706Y-120376065D01*
X168404284Y-120370757D01*
X168390452Y-120341094D01*
X168309849Y-120168238D01*
X168309846Y-120168233D01*
X168307523Y-120163251D01*
X168232477Y-120056074D01*
X168179357Y-119980211D01*
X168179355Y-119980208D01*
X168176198Y-119975700D01*
X168014300Y-119813802D01*
X168009792Y-119810645D01*
X168009789Y-119810643D01*
X167931611Y-119755902D01*
X167826749Y-119682477D01*
X167821767Y-119680154D01*
X167821762Y-119680151D01*
X167787543Y-119664195D01*
X167734258Y-119617278D01*
X167714797Y-119549001D01*
X167735339Y-119481041D01*
X167787543Y-119435805D01*
X167821762Y-119419849D01*
X167821767Y-119419846D01*
X167826749Y-119417523D01*
X167978632Y-119311173D01*
X168009789Y-119289357D01*
X168009792Y-119289355D01*
X168014300Y-119286198D01*
X168176198Y-119124300D01*
X168186919Y-119108990D01*
X168282786Y-118972077D01*
X168307523Y-118936749D01*
X168309846Y-118931767D01*
X168309849Y-118931762D01*
X168401961Y-118734225D01*
X168401961Y-118734224D01*
X168404284Y-118729243D01*
X168408791Y-118712425D01*
X168462119Y-118513402D01*
X168462119Y-118513400D01*
X168463543Y-118508087D01*
X168483498Y-118280000D01*
X168463543Y-118051913D01*
X168462119Y-118046598D01*
X168405707Y-117836067D01*
X168405706Y-117836065D01*
X168404284Y-117830757D01*
X168385528Y-117790535D01*
X168309849Y-117628238D01*
X168309846Y-117628233D01*
X168307523Y-117623251D01*
X168220442Y-117498887D01*
X168179357Y-117440211D01*
X168179355Y-117440208D01*
X168176198Y-117435700D01*
X168014300Y-117273802D01*
X168009792Y-117270645D01*
X168009789Y-117270643D01*
X167904537Y-117196945D01*
X167826749Y-117142477D01*
X167821767Y-117140154D01*
X167821762Y-117140151D01*
X167787543Y-117124195D01*
X167734258Y-117077278D01*
X167714797Y-117009001D01*
X167735339Y-116941041D01*
X167787543Y-116895805D01*
X167821762Y-116879849D01*
X167821767Y-116879846D01*
X167826749Y-116877523D01*
X167940992Y-116797529D01*
X168009789Y-116749357D01*
X168009792Y-116749355D01*
X168014300Y-116746198D01*
X168176198Y-116584300D01*
X168183987Y-116573177D01*
X168280638Y-116435144D01*
X168307523Y-116396749D01*
X168309846Y-116391767D01*
X168309849Y-116391762D01*
X168401961Y-116194225D01*
X168401961Y-116194224D01*
X168404284Y-116189243D01*
X168408791Y-116172425D01*
X168462119Y-115973402D01*
X168462119Y-115973400D01*
X168463543Y-115968087D01*
X168483498Y-115740000D01*
X168463543Y-115511913D01*
X168461672Y-115504930D01*
X168405707Y-115296067D01*
X168405706Y-115296065D01*
X168404284Y-115290757D01*
X168387464Y-115254686D01*
X168309849Y-115088238D01*
X168309846Y-115088233D01*
X168307523Y-115083251D01*
X168218468Y-114956067D01*
X168179357Y-114900211D01*
X168179355Y-114900208D01*
X168176198Y-114895700D01*
X168014300Y-114733802D01*
X168009792Y-114730645D01*
X168009789Y-114730643D01*
X167915438Y-114664578D01*
X167826749Y-114602477D01*
X167821767Y-114600154D01*
X167821762Y-114600151D01*
X167787543Y-114584195D01*
X167734258Y-114537278D01*
X167714797Y-114469001D01*
X167735339Y-114401041D01*
X167787543Y-114355805D01*
X167821762Y-114339849D01*
X167821767Y-114339846D01*
X167826749Y-114337523D01*
X167940992Y-114257529D01*
X168009789Y-114209357D01*
X168009792Y-114209355D01*
X168014300Y-114206198D01*
X168176198Y-114044300D01*
X168186919Y-114028990D01*
X168286034Y-113887438D01*
X168307523Y-113856749D01*
X168309846Y-113851767D01*
X168309849Y-113851762D01*
X168401961Y-113654225D01*
X168401961Y-113654224D01*
X168404284Y-113649243D01*
X168408791Y-113632425D01*
X168462119Y-113433402D01*
X168462119Y-113433400D01*
X168463543Y-113428087D01*
X168483498Y-113200000D01*
X168463543Y-112971913D01*
X168462119Y-112966598D01*
X168405707Y-112756067D01*
X168405706Y-112756065D01*
X168404284Y-112750757D01*
X168395261Y-112731406D01*
X168309849Y-112548238D01*
X168309846Y-112548233D01*
X168307523Y-112543251D01*
X168183698Y-112366411D01*
X168179357Y-112360211D01*
X168179355Y-112360208D01*
X168176198Y-112355700D01*
X168014300Y-112193802D01*
X168009792Y-112190645D01*
X168009789Y-112190643D01*
X167869116Y-112092143D01*
X167826749Y-112062477D01*
X167821767Y-112060154D01*
X167821762Y-112060151D01*
X167624225Y-111968039D01*
X167624224Y-111968039D01*
X167619243Y-111965716D01*
X167613935Y-111964294D01*
X167613933Y-111964293D01*
X167403402Y-111907881D01*
X167403400Y-111907881D01*
X167398087Y-111906457D01*
X167170000Y-111886502D01*
X166941913Y-111906457D01*
X166936600Y-111907881D01*
X166936598Y-111907881D01*
X166726067Y-111964293D01*
X166726065Y-111964294D01*
X166720757Y-111965716D01*
X166715776Y-111968039D01*
X166715775Y-111968039D01*
X166518238Y-112060151D01*
X166518233Y-112060154D01*
X166513251Y-112062477D01*
X166470884Y-112092143D01*
X166330211Y-112190643D01*
X166330208Y-112190645D01*
X166325700Y-112193802D01*
X166163802Y-112355700D01*
X166160645Y-112360208D01*
X166160643Y-112360211D01*
X166156302Y-112366411D01*
X166032477Y-112543251D01*
X166030154Y-112548233D01*
X166030151Y-112548238D01*
X165944739Y-112731406D01*
X165935716Y-112750757D01*
X165934294Y-112756065D01*
X165934293Y-112756067D01*
X165877881Y-112966598D01*
X165876457Y-112971913D01*
X165856502Y-113200000D01*
X165876457Y-113428087D01*
X165877881Y-113433400D01*
X165877881Y-113433402D01*
X165931210Y-113632425D01*
X165935716Y-113649243D01*
X165938039Y-113654224D01*
X165938039Y-113654225D01*
X166030151Y-113851762D01*
X166030154Y-113851767D01*
X166032477Y-113856749D01*
X166053966Y-113887438D01*
X166153082Y-114028990D01*
X166163802Y-114044300D01*
X166325700Y-114206198D01*
X166330208Y-114209355D01*
X166330211Y-114209357D01*
X166399008Y-114257529D01*
X166513251Y-114337523D01*
X166518233Y-114339846D01*
X166518238Y-114339849D01*
X166552457Y-114355805D01*
X166605742Y-114402722D01*
X166625203Y-114470999D01*
X166604661Y-114538959D01*
X166552457Y-114584195D01*
X166518238Y-114600151D01*
X166518233Y-114600154D01*
X166513251Y-114602477D01*
X166424562Y-114664578D01*
X166330211Y-114730643D01*
X166330208Y-114730645D01*
X166325700Y-114733802D01*
X166163802Y-114895700D01*
X166160645Y-114900208D01*
X166160643Y-114900211D01*
X166121532Y-114956067D01*
X166032477Y-115083251D01*
X166030154Y-115088233D01*
X166030151Y-115088238D01*
X165952536Y-115254686D01*
X165935716Y-115290757D01*
X165934294Y-115296065D01*
X165934293Y-115296067D01*
X165878328Y-115504930D01*
X165876457Y-115511913D01*
X165856502Y-115740000D01*
X165876457Y-115968087D01*
X165877881Y-115973400D01*
X165877881Y-115973402D01*
X165931210Y-116172425D01*
X165935716Y-116189243D01*
X165938039Y-116194224D01*
X165938039Y-116194225D01*
X166030151Y-116391762D01*
X166030154Y-116391767D01*
X166032477Y-116396749D01*
X166059362Y-116435144D01*
X166156014Y-116573177D01*
X166163802Y-116584300D01*
X166325700Y-116746198D01*
X166330208Y-116749355D01*
X166330211Y-116749357D01*
X166399008Y-116797529D01*
X166513251Y-116877523D01*
X166518233Y-116879846D01*
X166518238Y-116879849D01*
X166552457Y-116895805D01*
X166605742Y-116942722D01*
X166625203Y-117010999D01*
X166604661Y-117078959D01*
X166552457Y-117124195D01*
X166518238Y-117140151D01*
X166518233Y-117140154D01*
X166513251Y-117142477D01*
X166435463Y-117196945D01*
X166330211Y-117270643D01*
X166330208Y-117270645D01*
X166325700Y-117273802D01*
X166163802Y-117435700D01*
X166160645Y-117440208D01*
X166160643Y-117440211D01*
X166119558Y-117498887D01*
X166032477Y-117623251D01*
X166030154Y-117628233D01*
X166030151Y-117628238D01*
X165954472Y-117790535D01*
X165935716Y-117830757D01*
X165934294Y-117836065D01*
X165934293Y-117836067D01*
X165877881Y-118046598D01*
X165876457Y-118051913D01*
X165856502Y-118280000D01*
X165876457Y-118508087D01*
X165877881Y-118513400D01*
X165877881Y-118513402D01*
X165931210Y-118712425D01*
X165935716Y-118729243D01*
X165938039Y-118734224D01*
X165938039Y-118734225D01*
X166030151Y-118931762D01*
X166030154Y-118931767D01*
X166032477Y-118936749D01*
X166057214Y-118972077D01*
X166153082Y-119108990D01*
X166163802Y-119124300D01*
X166325700Y-119286198D01*
X166330208Y-119289355D01*
X166330211Y-119289357D01*
X166361368Y-119311173D01*
X166513251Y-119417523D01*
X166518233Y-119419846D01*
X166518238Y-119419849D01*
X166552457Y-119435805D01*
X166605742Y-119482722D01*
X166625203Y-119550999D01*
X166604661Y-119618959D01*
X166552457Y-119664195D01*
X166518238Y-119680151D01*
X166518233Y-119680154D01*
X166513251Y-119682477D01*
X166408389Y-119755902D01*
X166330211Y-119810643D01*
X166330208Y-119810645D01*
X166325700Y-119813802D01*
X166163802Y-119975700D01*
X166160645Y-119980208D01*
X166160643Y-119980211D01*
X166107523Y-120056074D01*
X166032477Y-120163251D01*
X166030154Y-120168233D01*
X166030151Y-120168238D01*
X165949548Y-120341094D01*
X165935716Y-120370757D01*
X165934294Y-120376065D01*
X165934293Y-120376067D01*
X165878041Y-120586000D01*
X165876457Y-120591913D01*
X165856502Y-120820000D01*
X160863498Y-120820000D01*
X160843543Y-120591913D01*
X160841959Y-120586000D01*
X160785707Y-120376067D01*
X160785706Y-120376065D01*
X160784284Y-120370757D01*
X160770452Y-120341094D01*
X160689849Y-120168238D01*
X160689846Y-120168233D01*
X160687523Y-120163251D01*
X160612477Y-120056074D01*
X160559357Y-119980211D01*
X160559355Y-119980208D01*
X160556198Y-119975700D01*
X160394300Y-119813802D01*
X160389792Y-119810645D01*
X160389789Y-119810643D01*
X160260751Y-119720290D01*
X160239229Y-119705220D01*
X160194901Y-119649763D01*
X160185500Y-119602007D01*
X160185500Y-119497993D01*
X160205502Y-119429872D01*
X160239229Y-119394780D01*
X160389789Y-119289357D01*
X160389792Y-119289355D01*
X160394300Y-119286198D01*
X160556198Y-119124300D01*
X160566919Y-119108990D01*
X160662786Y-118972077D01*
X160687523Y-118936749D01*
X160689846Y-118931767D01*
X160689849Y-118931762D01*
X160781961Y-118734225D01*
X160781961Y-118734224D01*
X160784284Y-118729243D01*
X160788791Y-118712425D01*
X160842119Y-118513402D01*
X160842119Y-118513400D01*
X160843543Y-118508087D01*
X160863498Y-118280000D01*
X160843543Y-118051913D01*
X160842119Y-118046598D01*
X160785707Y-117836067D01*
X160785706Y-117836065D01*
X160784284Y-117830757D01*
X160765528Y-117790535D01*
X160689849Y-117628238D01*
X160689846Y-117628233D01*
X160687523Y-117623251D01*
X160600442Y-117498887D01*
X160559357Y-117440211D01*
X160559355Y-117440208D01*
X160556198Y-117435700D01*
X160394300Y-117273802D01*
X160389792Y-117270645D01*
X160389789Y-117270643D01*
X160284537Y-117196945D01*
X160239229Y-117165220D01*
X160194901Y-117109763D01*
X160185500Y-117062007D01*
X160185500Y-116957993D01*
X160205502Y-116889872D01*
X160239229Y-116854780D01*
X160252263Y-116845654D01*
X160320992Y-116797529D01*
X160389789Y-116749357D01*
X160389792Y-116749355D01*
X160394300Y-116746198D01*
X160556198Y-116584300D01*
X160563987Y-116573177D01*
X160660638Y-116435144D01*
X160687523Y-116396749D01*
X160689846Y-116391767D01*
X160689849Y-116391762D01*
X160781961Y-116194225D01*
X160781961Y-116194224D01*
X160784284Y-116189243D01*
X160788791Y-116172425D01*
X160842119Y-115973402D01*
X160842119Y-115973400D01*
X160843543Y-115968087D01*
X160863498Y-115740000D01*
X160843543Y-115511913D01*
X160841672Y-115504930D01*
X160785707Y-115296067D01*
X160785706Y-115296065D01*
X160784284Y-115290757D01*
X160767464Y-115254686D01*
X160689849Y-115088238D01*
X160689846Y-115088233D01*
X160687523Y-115083251D01*
X160598468Y-114956067D01*
X160559357Y-114900211D01*
X160559355Y-114900208D01*
X160556198Y-114895700D01*
X160394300Y-114733802D01*
X160389789Y-114730643D01*
X160385576Y-114727108D01*
X160386527Y-114725974D01*
X160346529Y-114675929D01*
X160339224Y-114605310D01*
X160371258Y-114541951D01*
X160432462Y-114505970D01*
X160449517Y-114502918D01*
X160460316Y-114501745D01*
X160596705Y-114450615D01*
X160713261Y-114363261D01*
X160800615Y-114246705D01*
X160851745Y-114110316D01*
X160858500Y-114048134D01*
X160858500Y-112351866D01*
X160851745Y-112289684D01*
X160800615Y-112153295D01*
X160713261Y-112036739D01*
X160596705Y-111949385D01*
X160460316Y-111898255D01*
X160398134Y-111891500D01*
X158701866Y-111891500D01*
X158639684Y-111898255D01*
X158503295Y-111949385D01*
X158386739Y-112036739D01*
X158299385Y-112153295D01*
X158248255Y-112289684D01*
X158241500Y-112351866D01*
X158241500Y-114048134D01*
X158248255Y-114110316D01*
X158299385Y-114246705D01*
X158386739Y-114363261D01*
X158503295Y-114450615D01*
X158639684Y-114501745D01*
X158650474Y-114502917D01*
X158652606Y-114503803D01*
X158655222Y-114504425D01*
X158655121Y-114504848D01*
X158716035Y-114530155D01*
X158756463Y-114588517D01*
X158758922Y-114659471D01*
X158722629Y-114720490D01*
X158713969Y-114727489D01*
X158710207Y-114730646D01*
X158705700Y-114733802D01*
X158543802Y-114895700D01*
X158540645Y-114900208D01*
X158540643Y-114900211D01*
X158501532Y-114956067D01*
X158412477Y-115083251D01*
X158410154Y-115088233D01*
X158410151Y-115088238D01*
X158332536Y-115254686D01*
X158315716Y-115290757D01*
X158314294Y-115296065D01*
X158314293Y-115296067D01*
X158258328Y-115504930D01*
X158256457Y-115511913D01*
X158236502Y-115740000D01*
X158256457Y-115968087D01*
X158257881Y-115973400D01*
X158257881Y-115973402D01*
X158311210Y-116172425D01*
X158315716Y-116189243D01*
X158318039Y-116194224D01*
X158318039Y-116194225D01*
X158410151Y-116391762D01*
X158410154Y-116391767D01*
X158412477Y-116396749D01*
X158439362Y-116435144D01*
X158536014Y-116573177D01*
X158543802Y-116584300D01*
X158705700Y-116746198D01*
X158710208Y-116749355D01*
X158710211Y-116749357D01*
X158779008Y-116797529D01*
X158847738Y-116845654D01*
X158860771Y-116854780D01*
X158905099Y-116910237D01*
X158914500Y-116957993D01*
X158914500Y-117062007D01*
X158894498Y-117130128D01*
X158860772Y-117165219D01*
X158815463Y-117196945D01*
X158710211Y-117270643D01*
X158710208Y-117270645D01*
X158705700Y-117273802D01*
X158543802Y-117435700D01*
X158540645Y-117440208D01*
X158540643Y-117440211D01*
X158499558Y-117498887D01*
X158412477Y-117623251D01*
X158410154Y-117628233D01*
X158410151Y-117628238D01*
X158334472Y-117790535D01*
X158315716Y-117830757D01*
X158314294Y-117836065D01*
X158314293Y-117836067D01*
X158257881Y-118046598D01*
X158256457Y-118051913D01*
X158236502Y-118280000D01*
X158256457Y-118508087D01*
X158257881Y-118513400D01*
X158257881Y-118513402D01*
X158311210Y-118712425D01*
X158315716Y-118729243D01*
X158318039Y-118734224D01*
X158318039Y-118734225D01*
X158410151Y-118931762D01*
X158410154Y-118931767D01*
X158412477Y-118936749D01*
X158437214Y-118972077D01*
X158533082Y-119108990D01*
X158543802Y-119124300D01*
X158705700Y-119286198D01*
X158710208Y-119289355D01*
X158710211Y-119289357D01*
X158860771Y-119394780D01*
X158905099Y-119450237D01*
X158914500Y-119497993D01*
X158914500Y-119602007D01*
X158894498Y-119670128D01*
X158860772Y-119705219D01*
X158839249Y-119720290D01*
X158710211Y-119810643D01*
X158710208Y-119810645D01*
X158705700Y-119813802D01*
X158543802Y-119975700D01*
X158540645Y-119980208D01*
X158540643Y-119980211D01*
X158435220Y-120130771D01*
X158379763Y-120175099D01*
X158332007Y-120184500D01*
X154419032Y-120184500D01*
X154407793Y-120183970D01*
X154400281Y-120182291D01*
X154392356Y-120182540D01*
X154392355Y-120182540D01*
X154331970Y-120184438D01*
X154328012Y-120184500D01*
X154300017Y-120184500D01*
X154296083Y-120184997D01*
X154296081Y-120184997D01*
X154295994Y-120185008D01*
X154284160Y-120185940D01*
X154239795Y-120187335D01*
X154232182Y-120189547D01*
X154232181Y-120189547D01*
X154220252Y-120193013D01*
X154200888Y-120197023D01*
X154188560Y-120198580D01*
X154188558Y-120198580D01*
X154180701Y-120199573D01*
X154173337Y-120202489D01*
X154173332Y-120202490D01*
X154139444Y-120215907D01*
X154128215Y-120219752D01*
X154114241Y-120223812D01*
X154085607Y-120232131D01*
X154078781Y-120236168D01*
X154068091Y-120242490D01*
X154050341Y-120251187D01*
X154031412Y-120258681D01*
X154024998Y-120263341D01*
X153995514Y-120284762D01*
X153985594Y-120291278D01*
X153954229Y-120309827D01*
X153954226Y-120309829D01*
X153947402Y-120313865D01*
X153933014Y-120328253D01*
X153917980Y-120341094D01*
X153901513Y-120353058D01*
X153896460Y-120359166D01*
X153873228Y-120387249D01*
X153865238Y-120396029D01*
X153204172Y-121057095D01*
X153141860Y-121091121D01*
X153115077Y-121094000D01*
X147923225Y-121094000D01*
X147909694Y-121097973D01*
X147908257Y-121107966D01*
X147938565Y-121242446D01*
X147941645Y-121252275D01*
X148021770Y-121449603D01*
X148026413Y-121458794D01*
X148137694Y-121640388D01*
X148143777Y-121648699D01*
X148283213Y-121809667D01*
X148290580Y-121816883D01*
X148454434Y-121952916D01*
X148462881Y-121958831D01*
X148531969Y-121999203D01*
X148580693Y-122050842D01*
X148593764Y-122120625D01*
X148567033Y-122186396D01*
X148526584Y-122219752D01*
X148513607Y-122226507D01*
X148509474Y-122229610D01*
X148509471Y-122229612D01*
X148339100Y-122357530D01*
X148334965Y-122360635D01*
X148298268Y-122399036D01*
X148184319Y-122518277D01*
X148180629Y-122522138D01*
X148177715Y-122526410D01*
X148177714Y-122526411D01*
X148161059Y-122550827D01*
X148054743Y-122706680D01*
X147960688Y-122909305D01*
X147900989Y-123124570D01*
X147877251Y-123346695D01*
X147877548Y-123351848D01*
X147877548Y-123351851D01*
X147883918Y-123462327D01*
X147867870Y-123531486D01*
X147847222Y-123558675D01*
X147768391Y-123637506D01*
X147706079Y-123671532D01*
X147679296Y-123674411D01*
X146482011Y-123674411D01*
X146413890Y-123654409D01*
X146367397Y-123600753D01*
X146357293Y-123530479D01*
X146365602Y-123500193D01*
X146377211Y-123472167D01*
X146377212Y-123472165D01*
X146379105Y-123467594D01*
X146406529Y-123353365D01*
X146433380Y-123241524D01*
X146433381Y-123241518D01*
X146434535Y-123236711D01*
X146453165Y-123000000D01*
X146434535Y-122763289D01*
X146422151Y-122711703D01*
X146380260Y-122537218D01*
X146379105Y-122532406D01*
X146373253Y-122518277D01*
X146290135Y-122317611D01*
X146290133Y-122317607D01*
X146288240Y-122313037D01*
X146248263Y-122247800D01*
X146166759Y-122114798D01*
X146166755Y-122114792D01*
X146164176Y-122110584D01*
X146009969Y-121930031D01*
X145829416Y-121775824D01*
X145825208Y-121773245D01*
X145825202Y-121773241D01*
X145631183Y-121654346D01*
X145626963Y-121651760D01*
X145622393Y-121649867D01*
X145622389Y-121649865D01*
X145412167Y-121562789D01*
X145412165Y-121562788D01*
X145407594Y-121560895D01*
X145327391Y-121541640D01*
X145181524Y-121506620D01*
X145181518Y-121506619D01*
X145176711Y-121505465D01*
X144940000Y-121486835D01*
X144703289Y-121505465D01*
X144698482Y-121506619D01*
X144698476Y-121506620D01*
X144552609Y-121541640D01*
X144472406Y-121560895D01*
X144467835Y-121562788D01*
X144467833Y-121562789D01*
X144257611Y-121649865D01*
X144257607Y-121649867D01*
X144253037Y-121651760D01*
X144248817Y-121654346D01*
X144054798Y-121773241D01*
X144054792Y-121773245D01*
X144050584Y-121775824D01*
X143870031Y-121930031D01*
X143715824Y-122110584D01*
X143713245Y-122114792D01*
X143713241Y-122114798D01*
X143631737Y-122247800D01*
X143591760Y-122313037D01*
X143589867Y-122317607D01*
X143589865Y-122317611D01*
X143506747Y-122518277D01*
X143500895Y-122532406D01*
X143499740Y-122537218D01*
X143457850Y-122711703D01*
X143445465Y-122763289D01*
X143426835Y-123000000D01*
X143445465Y-123236711D01*
X143446619Y-123241518D01*
X143446620Y-123241524D01*
X143473471Y-123353365D01*
X143500895Y-123467594D01*
X143502788Y-123472165D01*
X143502789Y-123472167D01*
X143514398Y-123500193D01*
X143521987Y-123570783D01*
X143490208Y-123634270D01*
X143429150Y-123670497D01*
X143397989Y-123674411D01*
X139982011Y-123674411D01*
X139913890Y-123654409D01*
X139867397Y-123600753D01*
X139857293Y-123530479D01*
X139865602Y-123500193D01*
X139877211Y-123472167D01*
X139877212Y-123472165D01*
X139879105Y-123467594D01*
X139906529Y-123353365D01*
X139933380Y-123241524D01*
X139933381Y-123241518D01*
X139934535Y-123236711D01*
X139953165Y-123000000D01*
X139934535Y-122763289D01*
X139922151Y-122711703D01*
X139880260Y-122537218D01*
X139879105Y-122532406D01*
X139873253Y-122518277D01*
X139790135Y-122317611D01*
X139790133Y-122317607D01*
X139788240Y-122313037D01*
X139748263Y-122247800D01*
X139666759Y-122114798D01*
X139666755Y-122114792D01*
X139664176Y-122110584D01*
X139509969Y-121930031D01*
X139329416Y-121775824D01*
X139325208Y-121773245D01*
X139325202Y-121773241D01*
X139131183Y-121654346D01*
X139126963Y-121651760D01*
X139122393Y-121649867D01*
X139122389Y-121649865D01*
X138912167Y-121562789D01*
X138912165Y-121562788D01*
X138907594Y-121560895D01*
X138827391Y-121541640D01*
X138681524Y-121506620D01*
X138681518Y-121506619D01*
X138676711Y-121505465D01*
X138440000Y-121486835D01*
X138203289Y-121505465D01*
X138198482Y-121506619D01*
X138198476Y-121506620D01*
X138052609Y-121541640D01*
X137972406Y-121560895D01*
X137967835Y-121562788D01*
X137967833Y-121562789D01*
X137757611Y-121649865D01*
X137757607Y-121649867D01*
X137753037Y-121651760D01*
X137748817Y-121654346D01*
X137554798Y-121773241D01*
X137554792Y-121773245D01*
X137550584Y-121775824D01*
X137370031Y-121930031D01*
X137215824Y-122110584D01*
X137213245Y-122114792D01*
X137213241Y-122114798D01*
X137131737Y-122247800D01*
X137091760Y-122313037D01*
X137089867Y-122317607D01*
X137089865Y-122317611D01*
X137056138Y-122399036D01*
X137011590Y-122454317D01*
X136944226Y-122476738D01*
X136875435Y-122459180D01*
X136827057Y-122407218D01*
X136823320Y-122399036D01*
X136789687Y-122317837D01*
X136785205Y-122309042D01*
X136682568Y-122141555D01*
X136672110Y-122132093D01*
X136663334Y-122135876D01*
X135529095Y-123270115D01*
X135466783Y-123304141D01*
X135395968Y-123299076D01*
X135350905Y-123270115D01*
X134219710Y-122138920D01*
X134207330Y-122132160D01*
X134199680Y-122137887D01*
X134094795Y-122309042D01*
X134090313Y-122317837D01*
X134003266Y-122527988D01*
X134000217Y-122537373D01*
X133947115Y-122758554D01*
X133945572Y-122768301D01*
X133927725Y-122995070D01*
X133927725Y-123004930D01*
X133945572Y-123231699D01*
X133947115Y-123241446D01*
X134000217Y-123462627D01*
X134003266Y-123472013D01*
X134014939Y-123500193D01*
X134022528Y-123570783D01*
X133990748Y-123634270D01*
X133929690Y-123670497D01*
X133898530Y-123674411D01*
X130481470Y-123674411D01*
X130413349Y-123654409D01*
X130366856Y-123600753D01*
X130356752Y-123530479D01*
X130365061Y-123500193D01*
X130376734Y-123472013D01*
X130379783Y-123462627D01*
X130432885Y-123241446D01*
X130434428Y-123231699D01*
X130452275Y-123004930D01*
X130452275Y-122995070D01*
X130434428Y-122768301D01*
X130432885Y-122758554D01*
X130379783Y-122537373D01*
X130376734Y-122527988D01*
X130289687Y-122317837D01*
X130285205Y-122309042D01*
X130182568Y-122141555D01*
X130172110Y-122132093D01*
X130163334Y-122135876D01*
X129029095Y-123270115D01*
X128966783Y-123304141D01*
X128895968Y-123299076D01*
X128850905Y-123270115D01*
X127719710Y-122138920D01*
X127707330Y-122132160D01*
X127699680Y-122137887D01*
X127594795Y-122309042D01*
X127590313Y-122317837D01*
X127503266Y-122527988D01*
X127500217Y-122537373D01*
X127447115Y-122758554D01*
X127445572Y-122768301D01*
X127427725Y-122995070D01*
X127427725Y-123004930D01*
X127445572Y-123231699D01*
X127447115Y-123241446D01*
X127500217Y-123462627D01*
X127503266Y-123472013D01*
X127514939Y-123500193D01*
X127522528Y-123570783D01*
X127490748Y-123634270D01*
X127429690Y-123670497D01*
X127398530Y-123674411D01*
X125024500Y-123674411D01*
X124956379Y-123654409D01*
X124909886Y-123600753D01*
X124898500Y-123548411D01*
X124898500Y-122901866D01*
X124891745Y-122839684D01*
X124840615Y-122703295D01*
X124753261Y-122586739D01*
X124705340Y-122550824D01*
X124662827Y-122493967D01*
X124657801Y-122423149D01*
X124691861Y-122360855D01*
X124705330Y-122349183D01*
X124753261Y-122313261D01*
X124840615Y-122196705D01*
X124891745Y-122060316D01*
X124898500Y-121998134D01*
X124898500Y-121767890D01*
X128072093Y-121767890D01*
X128075876Y-121776666D01*
X128927188Y-122627978D01*
X128941132Y-122635592D01*
X128942965Y-122635461D01*
X128949580Y-122631210D01*
X129801080Y-121779710D01*
X129807534Y-121767890D01*
X134572093Y-121767890D01*
X134575876Y-121776666D01*
X135427188Y-122627978D01*
X135441132Y-122635592D01*
X135442965Y-122635461D01*
X135449580Y-122631210D01*
X136301080Y-121779710D01*
X136307840Y-121767330D01*
X136302113Y-121759680D01*
X136130958Y-121654795D01*
X136122163Y-121650313D01*
X135912012Y-121563266D01*
X135902627Y-121560217D01*
X135681446Y-121507115D01*
X135671699Y-121505572D01*
X135444930Y-121487725D01*
X135435070Y-121487725D01*
X135208301Y-121505572D01*
X135198554Y-121507115D01*
X134977373Y-121560217D01*
X134967988Y-121563266D01*
X134757837Y-121650313D01*
X134749042Y-121654795D01*
X134581555Y-121757432D01*
X134572093Y-121767890D01*
X129807534Y-121767890D01*
X129807840Y-121767330D01*
X129802113Y-121759680D01*
X129630958Y-121654795D01*
X129622163Y-121650313D01*
X129412012Y-121563266D01*
X129402627Y-121560217D01*
X129181446Y-121507115D01*
X129171699Y-121505572D01*
X128944930Y-121487725D01*
X128935070Y-121487725D01*
X128708301Y-121505572D01*
X128698554Y-121507115D01*
X128477373Y-121560217D01*
X128467988Y-121563266D01*
X128257837Y-121650313D01*
X128249042Y-121654795D01*
X128081555Y-121757432D01*
X128072093Y-121767890D01*
X124898500Y-121767890D01*
X124898500Y-121101866D01*
X124891745Y-121039684D01*
X124840615Y-120903295D01*
X124800674Y-120850001D01*
X124775826Y-120783496D01*
X124775500Y-120774437D01*
X124775500Y-118500000D01*
X127426835Y-118500000D01*
X127445465Y-118736711D01*
X127446619Y-118741518D01*
X127446620Y-118741524D01*
X127476122Y-118864408D01*
X127500895Y-118967594D01*
X127502788Y-118972165D01*
X127502789Y-118972167D01*
X127589772Y-119182163D01*
X127591760Y-119186963D01*
X127594346Y-119191183D01*
X127713241Y-119385202D01*
X127713245Y-119385208D01*
X127715824Y-119389416D01*
X127870031Y-119569969D01*
X128050584Y-119724176D01*
X128054792Y-119726755D01*
X128054798Y-119726759D01*
X128202450Y-119817240D01*
X128253037Y-119848240D01*
X128257607Y-119850133D01*
X128257611Y-119850135D01*
X128467833Y-119937211D01*
X128472406Y-119939105D01*
X128545807Y-119956727D01*
X128698476Y-119993380D01*
X128698482Y-119993381D01*
X128703289Y-119994535D01*
X128940000Y-120013165D01*
X129176711Y-119994535D01*
X129181518Y-119993381D01*
X129181524Y-119993380D01*
X129334193Y-119956727D01*
X129407594Y-119939105D01*
X129412167Y-119937211D01*
X129622389Y-119850135D01*
X129622393Y-119850133D01*
X129626963Y-119848240D01*
X129677550Y-119817240D01*
X129825202Y-119726759D01*
X129825208Y-119726755D01*
X129829416Y-119724176D01*
X130009969Y-119569969D01*
X130164176Y-119389416D01*
X130166755Y-119385208D01*
X130166759Y-119385202D01*
X130285654Y-119191183D01*
X130288240Y-119186963D01*
X130290229Y-119182163D01*
X130377211Y-118972167D01*
X130377212Y-118972165D01*
X130379105Y-118967594D01*
X130403878Y-118864408D01*
X130433380Y-118741524D01*
X130433381Y-118741518D01*
X130434535Y-118736711D01*
X130453165Y-118500000D01*
X133926835Y-118500000D01*
X133945465Y-118736711D01*
X133946619Y-118741518D01*
X133946620Y-118741524D01*
X133976122Y-118864408D01*
X134000895Y-118967594D01*
X134002788Y-118972165D01*
X134002789Y-118972167D01*
X134089772Y-119182163D01*
X134091760Y-119186963D01*
X134094346Y-119191183D01*
X134213241Y-119385202D01*
X134213245Y-119385208D01*
X134215824Y-119389416D01*
X134370031Y-119569969D01*
X134550584Y-119724176D01*
X134554792Y-119726755D01*
X134554798Y-119726759D01*
X134702450Y-119817240D01*
X134753037Y-119848240D01*
X134757607Y-119850133D01*
X134757611Y-119850135D01*
X134967833Y-119937211D01*
X134972406Y-119939105D01*
X135045807Y-119956727D01*
X135198476Y-119993380D01*
X135198482Y-119993381D01*
X135203289Y-119994535D01*
X135440000Y-120013165D01*
X135676711Y-119994535D01*
X135681518Y-119993381D01*
X135681524Y-119993380D01*
X135834193Y-119956727D01*
X135907594Y-119939105D01*
X135912167Y-119937211D01*
X136122389Y-119850135D01*
X136122393Y-119850133D01*
X136126963Y-119848240D01*
X136177550Y-119817240D01*
X136315556Y-119732670D01*
X137572160Y-119732670D01*
X137577887Y-119740320D01*
X137749042Y-119845205D01*
X137757837Y-119849687D01*
X137967988Y-119936734D01*
X137977373Y-119939783D01*
X138198554Y-119992885D01*
X138208301Y-119994428D01*
X138435070Y-120012275D01*
X138444930Y-120012275D01*
X138671699Y-119994428D01*
X138681446Y-119992885D01*
X138902627Y-119939783D01*
X138912012Y-119936734D01*
X139122163Y-119849687D01*
X139130958Y-119845205D01*
X139298445Y-119742568D01*
X139307400Y-119732670D01*
X144072160Y-119732670D01*
X144077887Y-119740320D01*
X144249042Y-119845205D01*
X144257837Y-119849687D01*
X144467988Y-119936734D01*
X144477373Y-119939783D01*
X144698554Y-119992885D01*
X144708301Y-119994428D01*
X144935070Y-120012275D01*
X144944930Y-120012275D01*
X145171699Y-119994428D01*
X145181446Y-119992885D01*
X145402627Y-119939783D01*
X145412012Y-119936734D01*
X145622163Y-119849687D01*
X145630958Y-119845205D01*
X145798445Y-119742568D01*
X145807907Y-119732110D01*
X145804124Y-119723334D01*
X144952812Y-118872022D01*
X144938868Y-118864408D01*
X144937035Y-118864539D01*
X144930420Y-118868790D01*
X144078920Y-119720290D01*
X144072160Y-119732670D01*
X139307400Y-119732670D01*
X139307907Y-119732110D01*
X139304124Y-119723334D01*
X138452812Y-118872022D01*
X138438868Y-118864408D01*
X138437035Y-118864539D01*
X138430420Y-118868790D01*
X137578920Y-119720290D01*
X137572160Y-119732670D01*
X136315556Y-119732670D01*
X136325202Y-119726759D01*
X136325208Y-119726755D01*
X136329416Y-119724176D01*
X136509969Y-119569969D01*
X136664176Y-119389416D01*
X136666755Y-119385208D01*
X136666759Y-119385202D01*
X136785654Y-119191183D01*
X136788240Y-119186963D01*
X136790229Y-119182163D01*
X136823862Y-119100964D01*
X136868410Y-119045683D01*
X136935774Y-119023262D01*
X137004565Y-119040820D01*
X137052943Y-119092782D01*
X137056680Y-119100964D01*
X137090313Y-119182163D01*
X137094795Y-119190958D01*
X137197432Y-119358445D01*
X137207890Y-119367907D01*
X137216666Y-119364124D01*
X138067978Y-118512812D01*
X138074356Y-118501132D01*
X138804408Y-118501132D01*
X138804539Y-118502965D01*
X138808790Y-118509580D01*
X139660290Y-119361080D01*
X139672670Y-119367840D01*
X139680320Y-119362113D01*
X139785205Y-119190958D01*
X139789687Y-119182163D01*
X139876734Y-118972012D01*
X139879783Y-118962627D01*
X139932885Y-118741446D01*
X139934428Y-118731699D01*
X139952275Y-118504930D01*
X143427725Y-118504930D01*
X143445572Y-118731699D01*
X143447115Y-118741446D01*
X143500217Y-118962627D01*
X143503266Y-118972012D01*
X143590313Y-119182163D01*
X143594795Y-119190958D01*
X143697432Y-119358445D01*
X143707890Y-119367907D01*
X143716666Y-119364124D01*
X144567978Y-118512812D01*
X144574356Y-118501132D01*
X145304408Y-118501132D01*
X145304539Y-118502965D01*
X145308790Y-118509580D01*
X146160290Y-119361080D01*
X146172670Y-119367840D01*
X146180320Y-119362113D01*
X146285205Y-119190958D01*
X146289687Y-119182163D01*
X146376734Y-118972012D01*
X146379783Y-118962627D01*
X146432885Y-118741446D01*
X146434428Y-118731699D01*
X146452275Y-118504930D01*
X146452275Y-118495070D01*
X146434428Y-118268301D01*
X146432885Y-118258554D01*
X146379783Y-118037373D01*
X146376734Y-118027988D01*
X146289687Y-117817837D01*
X146285205Y-117809042D01*
X146182568Y-117641555D01*
X146172110Y-117632093D01*
X146163334Y-117635876D01*
X145312022Y-118487188D01*
X145304408Y-118501132D01*
X144574356Y-118501132D01*
X144575592Y-118498868D01*
X144575461Y-118497035D01*
X144571210Y-118490420D01*
X143719710Y-117638920D01*
X143707330Y-117632160D01*
X143699680Y-117637887D01*
X143594795Y-117809042D01*
X143590313Y-117817837D01*
X143503266Y-118027988D01*
X143500217Y-118037373D01*
X143447115Y-118258554D01*
X143445572Y-118268301D01*
X143427725Y-118495070D01*
X143427725Y-118504930D01*
X139952275Y-118504930D01*
X139952275Y-118495070D01*
X139934428Y-118268301D01*
X139932885Y-118258554D01*
X139879783Y-118037373D01*
X139876734Y-118027988D01*
X139789687Y-117817837D01*
X139785205Y-117809042D01*
X139682568Y-117641555D01*
X139672110Y-117632093D01*
X139663334Y-117635876D01*
X138812022Y-118487188D01*
X138804408Y-118501132D01*
X138074356Y-118501132D01*
X138075592Y-118498868D01*
X138075461Y-118497035D01*
X138071210Y-118490420D01*
X137219710Y-117638920D01*
X137207330Y-117632160D01*
X137199680Y-117637887D01*
X137094795Y-117809042D01*
X137090313Y-117817837D01*
X137056680Y-117899036D01*
X137012132Y-117954317D01*
X136944769Y-117976738D01*
X136875978Y-117959180D01*
X136827599Y-117907218D01*
X136823862Y-117899036D01*
X136790135Y-117817611D01*
X136790133Y-117817607D01*
X136788240Y-117813037D01*
X136774451Y-117790535D01*
X136666759Y-117614798D01*
X136666755Y-117614792D01*
X136664176Y-117610584D01*
X136509969Y-117430031D01*
X136329416Y-117275824D01*
X136325208Y-117273245D01*
X136325202Y-117273241D01*
X136131183Y-117154346D01*
X136126963Y-117151760D01*
X136122393Y-117149867D01*
X136122389Y-117149865D01*
X136040964Y-117116138D01*
X135985683Y-117071590D01*
X135963262Y-117004226D01*
X135980820Y-116935435D01*
X136032782Y-116887057D01*
X136040964Y-116883320D01*
X136122163Y-116849687D01*
X136130958Y-116845205D01*
X136298445Y-116742568D01*
X136307907Y-116732110D01*
X136304124Y-116723334D01*
X135452812Y-115872022D01*
X135438868Y-115864408D01*
X135437035Y-115864539D01*
X135430420Y-115868790D01*
X134578920Y-116720290D01*
X134572160Y-116732670D01*
X134577887Y-116740320D01*
X134749042Y-116845205D01*
X134757837Y-116849687D01*
X134839036Y-116883320D01*
X134894317Y-116927868D01*
X134916738Y-116995231D01*
X134899180Y-117064022D01*
X134847218Y-117112401D01*
X134839036Y-117116138D01*
X134757611Y-117149865D01*
X134757607Y-117149867D01*
X134753037Y-117151760D01*
X134748817Y-117154346D01*
X134554798Y-117273241D01*
X134554792Y-117273245D01*
X134550584Y-117275824D01*
X134370031Y-117430031D01*
X134215824Y-117610584D01*
X134213245Y-117614792D01*
X134213241Y-117614798D01*
X134105549Y-117790535D01*
X134091760Y-117813037D01*
X134089867Y-117817607D01*
X134089865Y-117817611D01*
X134008283Y-118014570D01*
X134000895Y-118032406D01*
X133996212Y-118051913D01*
X133950612Y-118241851D01*
X133945465Y-118263289D01*
X133926835Y-118500000D01*
X130453165Y-118500000D01*
X130434535Y-118263289D01*
X130429389Y-118241851D01*
X130383788Y-118051913D01*
X130379105Y-118032406D01*
X130371717Y-118014570D01*
X130290135Y-117817611D01*
X130290133Y-117817607D01*
X130288240Y-117813037D01*
X130274451Y-117790535D01*
X130166759Y-117614798D01*
X130166755Y-117614792D01*
X130164176Y-117610584D01*
X130009969Y-117430031D01*
X129829416Y-117275824D01*
X129825208Y-117273245D01*
X129825202Y-117273241D01*
X129631183Y-117154346D01*
X129626963Y-117151760D01*
X129622393Y-117149867D01*
X129622389Y-117149865D01*
X129540964Y-117116138D01*
X129485683Y-117071590D01*
X129463262Y-117004226D01*
X129480820Y-116935435D01*
X129532782Y-116887057D01*
X129540964Y-116883320D01*
X129622163Y-116849687D01*
X129630958Y-116845205D01*
X129798445Y-116742568D01*
X129807907Y-116732110D01*
X129804124Y-116723334D01*
X128952812Y-115872022D01*
X128938868Y-115864408D01*
X128937035Y-115864539D01*
X128930420Y-115868790D01*
X128078920Y-116720290D01*
X128072160Y-116732670D01*
X128077887Y-116740320D01*
X128249042Y-116845205D01*
X128257837Y-116849687D01*
X128339036Y-116883320D01*
X128394317Y-116927868D01*
X128416738Y-116995231D01*
X128399180Y-117064022D01*
X128347218Y-117112401D01*
X128339036Y-117116138D01*
X128257611Y-117149865D01*
X128257607Y-117149867D01*
X128253037Y-117151760D01*
X128248817Y-117154346D01*
X128054798Y-117273241D01*
X128054792Y-117273245D01*
X128050584Y-117275824D01*
X127870031Y-117430031D01*
X127715824Y-117610584D01*
X127713245Y-117614792D01*
X127713241Y-117614798D01*
X127605549Y-117790535D01*
X127591760Y-117813037D01*
X127589867Y-117817607D01*
X127589865Y-117817611D01*
X127508283Y-118014570D01*
X127500895Y-118032406D01*
X127496212Y-118051913D01*
X127450612Y-118241851D01*
X127445465Y-118263289D01*
X127426835Y-118500000D01*
X124775500Y-118500000D01*
X124775500Y-116115422D01*
X124795502Y-116047301D01*
X124812405Y-116026327D01*
X125333802Y-115504930D01*
X127427725Y-115504930D01*
X127445572Y-115731699D01*
X127447115Y-115741446D01*
X127500217Y-115962627D01*
X127503266Y-115972012D01*
X127590313Y-116182163D01*
X127594795Y-116190958D01*
X127697432Y-116358445D01*
X127707890Y-116367907D01*
X127716666Y-116364124D01*
X128567978Y-115512812D01*
X128574356Y-115501132D01*
X129304408Y-115501132D01*
X129304539Y-115502965D01*
X129308790Y-115509580D01*
X130160290Y-116361080D01*
X130172670Y-116367840D01*
X130180320Y-116362113D01*
X130285205Y-116190958D01*
X130289687Y-116182163D01*
X130376734Y-115972012D01*
X130379783Y-115962627D01*
X130432885Y-115741446D01*
X130434428Y-115731699D01*
X130452275Y-115504930D01*
X133927725Y-115504930D01*
X133945572Y-115731699D01*
X133947115Y-115741446D01*
X134000217Y-115962627D01*
X134003266Y-115972012D01*
X134090313Y-116182163D01*
X134094795Y-116190958D01*
X134197432Y-116358445D01*
X134207890Y-116367907D01*
X134216666Y-116364124D01*
X135067978Y-115512812D01*
X135074356Y-115501132D01*
X135804408Y-115501132D01*
X135804539Y-115502965D01*
X135808790Y-115509580D01*
X136660290Y-116361080D01*
X136672670Y-116367840D01*
X136680320Y-116362113D01*
X136785205Y-116190958D01*
X136789687Y-116182163D01*
X136823320Y-116100964D01*
X136867868Y-116045683D01*
X136935231Y-116023262D01*
X137004022Y-116040820D01*
X137052401Y-116092782D01*
X137056138Y-116100964D01*
X137089772Y-116182163D01*
X137091760Y-116186963D01*
X137094346Y-116191183D01*
X137213241Y-116385202D01*
X137213245Y-116385208D01*
X137215824Y-116389416D01*
X137370031Y-116569969D01*
X137550584Y-116724176D01*
X137554792Y-116726755D01*
X137554798Y-116726759D01*
X137676231Y-116801173D01*
X137753037Y-116848240D01*
X137757607Y-116850133D01*
X137757611Y-116850135D01*
X137839036Y-116883862D01*
X137894317Y-116928410D01*
X137916738Y-116995774D01*
X137899180Y-117064565D01*
X137847218Y-117112943D01*
X137839036Y-117116680D01*
X137757837Y-117150313D01*
X137749042Y-117154795D01*
X137581555Y-117257432D01*
X137572093Y-117267890D01*
X137575876Y-117276666D01*
X138427188Y-118127978D01*
X138441132Y-118135592D01*
X138442965Y-118135461D01*
X138449580Y-118131210D01*
X139301080Y-117279710D01*
X139307840Y-117267330D01*
X139302113Y-117259680D01*
X139130958Y-117154795D01*
X139122163Y-117150313D01*
X139040964Y-117116680D01*
X138985683Y-117072132D01*
X138963262Y-117004769D01*
X138980820Y-116935978D01*
X139032782Y-116887599D01*
X139040964Y-116883862D01*
X139122389Y-116850135D01*
X139122393Y-116850133D01*
X139126963Y-116848240D01*
X139203769Y-116801173D01*
X139325202Y-116726759D01*
X139325208Y-116726755D01*
X139329416Y-116724176D01*
X139509969Y-116569969D01*
X139664176Y-116389416D01*
X139666755Y-116385208D01*
X139666759Y-116385202D01*
X139785654Y-116191183D01*
X139788240Y-116186963D01*
X139790229Y-116182163D01*
X139877211Y-115972167D01*
X139877212Y-115972165D01*
X139879105Y-115967594D01*
X139913434Y-115824605D01*
X139933380Y-115741524D01*
X139933381Y-115741518D01*
X139934535Y-115736711D01*
X139953165Y-115500000D01*
X143426835Y-115500000D01*
X143445465Y-115736711D01*
X143446619Y-115741518D01*
X143446620Y-115741524D01*
X143466566Y-115824605D01*
X143500895Y-115967594D01*
X143502788Y-115972165D01*
X143502789Y-115972167D01*
X143589772Y-116182163D01*
X143591760Y-116186963D01*
X143594346Y-116191183D01*
X143713241Y-116385202D01*
X143713245Y-116385208D01*
X143715824Y-116389416D01*
X143870031Y-116569969D01*
X144050584Y-116724176D01*
X144054792Y-116726755D01*
X144054798Y-116726759D01*
X144176231Y-116801173D01*
X144253037Y-116848240D01*
X144257607Y-116850133D01*
X144257611Y-116850135D01*
X144339036Y-116883862D01*
X144394317Y-116928410D01*
X144416738Y-116995774D01*
X144399180Y-117064565D01*
X144347218Y-117112943D01*
X144339036Y-117116680D01*
X144257837Y-117150313D01*
X144249042Y-117154795D01*
X144081555Y-117257432D01*
X144072093Y-117267890D01*
X144075876Y-117276666D01*
X144927188Y-118127978D01*
X144941132Y-118135592D01*
X144942965Y-118135461D01*
X144949580Y-118131210D01*
X145801080Y-117279710D01*
X145807840Y-117267330D01*
X145802113Y-117259680D01*
X145630958Y-117154795D01*
X145622163Y-117150313D01*
X145540964Y-117116680D01*
X145485683Y-117072132D01*
X145463262Y-117004769D01*
X145480820Y-116935978D01*
X145532782Y-116887599D01*
X145540964Y-116883862D01*
X145622389Y-116850135D01*
X145622393Y-116850133D01*
X145626963Y-116848240D01*
X145703769Y-116801173D01*
X145825202Y-116726759D01*
X145825208Y-116726755D01*
X145829416Y-116724176D01*
X146009969Y-116569969D01*
X146164176Y-116389416D01*
X146166755Y-116385208D01*
X146166759Y-116385202D01*
X146285654Y-116191183D01*
X146288240Y-116186963D01*
X146290229Y-116182163D01*
X146377211Y-115972167D01*
X146377212Y-115972165D01*
X146379105Y-115967594D01*
X146413434Y-115824605D01*
X146433380Y-115741524D01*
X146433381Y-115741518D01*
X146434535Y-115736711D01*
X146453165Y-115500000D01*
X146434535Y-115263289D01*
X146429282Y-115241406D01*
X146391312Y-115083251D01*
X146379105Y-115032406D01*
X146362463Y-114992229D01*
X146290135Y-114817611D01*
X146290133Y-114817607D01*
X146288240Y-114813037D01*
X146258725Y-114764873D01*
X146166759Y-114614798D01*
X146166755Y-114614792D01*
X146164176Y-114610584D01*
X146009969Y-114430031D01*
X145829416Y-114275824D01*
X145825208Y-114273245D01*
X145825202Y-114273241D01*
X145631183Y-114154346D01*
X145626963Y-114151760D01*
X145622393Y-114149867D01*
X145622389Y-114149865D01*
X145412167Y-114062789D01*
X145412165Y-114062788D01*
X145407594Y-114060895D01*
X145319681Y-114039789D01*
X145181524Y-114006620D01*
X145181518Y-114006619D01*
X145176711Y-114005465D01*
X144940000Y-113986835D01*
X144703289Y-114005465D01*
X144698482Y-114006619D01*
X144698476Y-114006620D01*
X144560319Y-114039789D01*
X144472406Y-114060895D01*
X144467835Y-114062788D01*
X144467833Y-114062789D01*
X144257611Y-114149865D01*
X144257607Y-114149867D01*
X144253037Y-114151760D01*
X144248817Y-114154346D01*
X144054798Y-114273241D01*
X144054792Y-114273245D01*
X144050584Y-114275824D01*
X143870031Y-114430031D01*
X143715824Y-114610584D01*
X143713245Y-114614792D01*
X143713241Y-114614798D01*
X143621275Y-114764873D01*
X143591760Y-114813037D01*
X143589867Y-114817607D01*
X143589865Y-114817611D01*
X143517537Y-114992229D01*
X143500895Y-115032406D01*
X143488688Y-115083251D01*
X143450719Y-115241406D01*
X143445465Y-115263289D01*
X143426835Y-115500000D01*
X139953165Y-115500000D01*
X139934535Y-115263289D01*
X139929282Y-115241406D01*
X139891312Y-115083251D01*
X139879105Y-115032406D01*
X139862463Y-114992229D01*
X139790135Y-114817611D01*
X139790133Y-114817607D01*
X139788240Y-114813037D01*
X139758725Y-114764873D01*
X139666759Y-114614798D01*
X139666755Y-114614792D01*
X139664176Y-114610584D01*
X139509969Y-114430031D01*
X139329416Y-114275824D01*
X139325208Y-114273245D01*
X139325202Y-114273241D01*
X139131183Y-114154346D01*
X139126963Y-114151760D01*
X139122393Y-114149867D01*
X139122389Y-114149865D01*
X138912167Y-114062789D01*
X138912165Y-114062788D01*
X138907594Y-114060895D01*
X138819681Y-114039789D01*
X138681524Y-114006620D01*
X138681518Y-114006619D01*
X138676711Y-114005465D01*
X138440000Y-113986835D01*
X138203289Y-114005465D01*
X138198482Y-114006619D01*
X138198476Y-114006620D01*
X138060319Y-114039789D01*
X137972406Y-114060895D01*
X137967835Y-114062788D01*
X137967833Y-114062789D01*
X137757611Y-114149865D01*
X137757607Y-114149867D01*
X137753037Y-114151760D01*
X137748817Y-114154346D01*
X137554798Y-114273241D01*
X137554792Y-114273245D01*
X137550584Y-114275824D01*
X137370031Y-114430031D01*
X137215824Y-114610584D01*
X137213245Y-114614792D01*
X137213241Y-114614798D01*
X137121275Y-114764873D01*
X137091760Y-114813037D01*
X137089867Y-114817607D01*
X137089865Y-114817611D01*
X137056138Y-114899036D01*
X137011590Y-114954317D01*
X136944226Y-114976738D01*
X136875435Y-114959180D01*
X136827057Y-114907218D01*
X136823320Y-114899036D01*
X136789687Y-114817837D01*
X136785205Y-114809042D01*
X136682568Y-114641555D01*
X136672110Y-114632093D01*
X136663334Y-114635876D01*
X135812022Y-115487188D01*
X135804408Y-115501132D01*
X135074356Y-115501132D01*
X135075592Y-115498868D01*
X135075461Y-115497035D01*
X135071210Y-115490420D01*
X134219710Y-114638920D01*
X134207330Y-114632160D01*
X134199680Y-114637887D01*
X134094795Y-114809042D01*
X134090313Y-114817837D01*
X134003266Y-115027988D01*
X134000217Y-115037373D01*
X133947115Y-115258554D01*
X133945572Y-115268301D01*
X133927725Y-115495070D01*
X133927725Y-115504930D01*
X130452275Y-115504930D01*
X130452275Y-115495070D01*
X130434428Y-115268301D01*
X130432885Y-115258554D01*
X130379783Y-115037373D01*
X130376734Y-115027988D01*
X130289687Y-114817837D01*
X130285205Y-114809042D01*
X130182568Y-114641555D01*
X130172110Y-114632093D01*
X130163334Y-114635876D01*
X129312022Y-115487188D01*
X129304408Y-115501132D01*
X128574356Y-115501132D01*
X128575592Y-115498868D01*
X128575461Y-115497035D01*
X128571210Y-115490420D01*
X127719710Y-114638920D01*
X127707330Y-114632160D01*
X127699680Y-114637887D01*
X127594795Y-114809042D01*
X127590313Y-114817837D01*
X127503266Y-115027988D01*
X127500217Y-115037373D01*
X127447115Y-115258554D01*
X127445572Y-115268301D01*
X127427725Y-115495070D01*
X127427725Y-115504930D01*
X125333802Y-115504930D01*
X126559023Y-114279710D01*
X126570843Y-114267890D01*
X128072093Y-114267890D01*
X128075876Y-114276666D01*
X128927188Y-115127978D01*
X128941132Y-115135592D01*
X128942965Y-115135461D01*
X128949580Y-115131210D01*
X129801080Y-114279710D01*
X129807534Y-114267890D01*
X134572093Y-114267890D01*
X134575876Y-114276666D01*
X135427188Y-115127978D01*
X135441132Y-115135592D01*
X135442965Y-115135461D01*
X135449580Y-115131210D01*
X136301080Y-114279710D01*
X136307840Y-114267330D01*
X136302113Y-114259680D01*
X136130958Y-114154795D01*
X136122163Y-114150313D01*
X135912012Y-114063266D01*
X135902627Y-114060217D01*
X135681446Y-114007115D01*
X135671699Y-114005572D01*
X135444930Y-113987725D01*
X135435070Y-113987725D01*
X135208301Y-114005572D01*
X135198554Y-114007115D01*
X134977373Y-114060217D01*
X134967988Y-114063266D01*
X134757837Y-114150313D01*
X134749042Y-114154795D01*
X134581555Y-114257432D01*
X134572093Y-114267890D01*
X129807534Y-114267890D01*
X129807840Y-114267330D01*
X129802113Y-114259680D01*
X129630958Y-114154795D01*
X129622163Y-114150313D01*
X129412012Y-114063266D01*
X129402627Y-114060217D01*
X129181446Y-114007115D01*
X129171699Y-114005572D01*
X128944930Y-113987725D01*
X128935070Y-113987725D01*
X128708301Y-114005572D01*
X128698554Y-114007115D01*
X128477373Y-114060217D01*
X128467988Y-114063266D01*
X128257837Y-114150313D01*
X128249042Y-114154795D01*
X128081555Y-114257432D01*
X128072093Y-114267890D01*
X126570843Y-114267890D01*
X128334486Y-112504247D01*
X128349520Y-112491406D01*
X128359573Y-112484102D01*
X128365987Y-112479442D01*
X128371041Y-112473333D01*
X128371146Y-112473234D01*
X128434496Y-112441182D01*
X128486814Y-112442564D01*
X128698476Y-112493380D01*
X128698482Y-112493381D01*
X128703289Y-112494535D01*
X128940000Y-112513165D01*
X129176711Y-112494535D01*
X129181518Y-112493381D01*
X129181524Y-112493380D01*
X129327391Y-112458360D01*
X129407594Y-112439105D01*
X129412167Y-112437211D01*
X129622389Y-112350135D01*
X129622393Y-112350133D01*
X129626963Y-112348240D01*
X129690657Y-112309208D01*
X129825202Y-112226759D01*
X129825208Y-112226755D01*
X129829416Y-112224176D01*
X130009969Y-112069969D01*
X130013672Y-112065634D01*
X130074279Y-111994672D01*
X130164176Y-111889416D01*
X130166755Y-111885208D01*
X130166759Y-111885202D01*
X130285654Y-111691183D01*
X130288240Y-111686963D01*
X130290229Y-111682163D01*
X130377211Y-111472167D01*
X130377212Y-111472165D01*
X130379105Y-111467594D01*
X130402826Y-111368790D01*
X130433380Y-111241524D01*
X130433381Y-111241518D01*
X130434535Y-111236711D01*
X130453165Y-111000000D01*
X130434535Y-110763289D01*
X130430944Y-110748329D01*
X130384541Y-110555048D01*
X130379105Y-110532406D01*
X130374587Y-110521498D01*
X130290135Y-110317611D01*
X130290133Y-110317607D01*
X130288240Y-110313037D01*
X130206289Y-110179305D01*
X130166759Y-110114798D01*
X130166755Y-110114792D01*
X130164176Y-110110584D01*
X130019495Y-109941185D01*
X130013177Y-109933787D01*
X130009969Y-109930031D01*
X129829416Y-109775824D01*
X129816469Y-109767890D01*
X129758672Y-109732471D01*
X129711041Y-109679823D01*
X129699435Y-109609782D01*
X129727539Y-109544584D01*
X129786429Y-109504931D01*
X129824562Y-109499039D01*
X134552170Y-109501109D01*
G37*
%TD.AperFunction*%
%TA.AperFunction,Conductor*%
G36*
X113033113Y-109491685D02*
G01*
X113101225Y-109511717D01*
X113147695Y-109565393D01*
X113157768Y-109635671D01*
X113124152Y-109704736D01*
X113053050Y-109779140D01*
X113040629Y-109792138D01*
X112914743Y-109976680D01*
X112879084Y-110053502D01*
X112839914Y-110137887D01*
X112820688Y-110179305D01*
X112760989Y-110394570D01*
X112737251Y-110616695D01*
X112737548Y-110621848D01*
X112737548Y-110621851D01*
X112743893Y-110731885D01*
X112750110Y-110839715D01*
X112751247Y-110844761D01*
X112751248Y-110844767D01*
X112763460Y-110898953D01*
X112799222Y-111057639D01*
X112838543Y-111154475D01*
X112874008Y-111241815D01*
X112883266Y-111264616D01*
X112885965Y-111269020D01*
X112995428Y-111447648D01*
X112999987Y-111455088D01*
X113080854Y-111548443D01*
X113110336Y-111613026D01*
X113100222Y-111683299D01*
X113074711Y-111720034D01*
X112577606Y-112217139D01*
X112569280Y-112224715D01*
X112562786Y-112228836D01*
X112537906Y-112255331D01*
X112516004Y-112278654D01*
X112513249Y-112281496D01*
X112493450Y-112301295D01*
X112491026Y-112304420D01*
X112491018Y-112304429D01*
X112490952Y-112304515D01*
X112483244Y-112313540D01*
X112452872Y-112345883D01*
X112443936Y-112362138D01*
X112443067Y-112363718D01*
X112432216Y-112380236D01*
X112419739Y-112396322D01*
X112402113Y-112437055D01*
X112396896Y-112447703D01*
X112375520Y-112486586D01*
X112373549Y-112494261D01*
X112373547Y-112494267D01*
X112370458Y-112506300D01*
X112364055Y-112525002D01*
X112355972Y-112543681D01*
X112351361Y-112572792D01*
X112349029Y-112587516D01*
X112346624Y-112599129D01*
X112335589Y-112642107D01*
X112335589Y-112662454D01*
X112334038Y-112682165D01*
X112330854Y-112702268D01*
X112331600Y-112710160D01*
X112335030Y-112746445D01*
X112335589Y-112758303D01*
X112335589Y-117062069D01*
X112335059Y-117073303D01*
X112333381Y-117080808D01*
X112335319Y-117142477D01*
X112335527Y-117149101D01*
X112335589Y-117153058D01*
X112335589Y-117181072D01*
X112336085Y-117184997D01*
X112336085Y-117184998D01*
X112336097Y-117185093D01*
X112337030Y-117196938D01*
X112338424Y-117241294D01*
X112340636Y-117248906D01*
X112344102Y-117260837D01*
X112348112Y-117280201D01*
X112350662Y-117300388D01*
X112353578Y-117307752D01*
X112353579Y-117307757D01*
X112366996Y-117341645D01*
X112370841Y-117352874D01*
X112383220Y-117395482D01*
X112387258Y-117402309D01*
X112387259Y-117402312D01*
X112393577Y-117412995D01*
X112402277Y-117430753D01*
X112406850Y-117442304D01*
X112406854Y-117442310D01*
X112409770Y-117449677D01*
X112414428Y-117456088D01*
X112414429Y-117456090D01*
X112435853Y-117485577D01*
X112442370Y-117495499D01*
X112460915Y-117526857D01*
X112460918Y-117526861D01*
X112464955Y-117533687D01*
X112479339Y-117548071D01*
X112492180Y-117563105D01*
X112504147Y-117579576D01*
X112510255Y-117584629D01*
X112538344Y-117607866D01*
X112547124Y-117615856D01*
X112749164Y-117817896D01*
X112783190Y-117880208D01*
X112781486Y-117940662D01*
X112760989Y-118014570D01*
X112760441Y-118019700D01*
X112760440Y-118019704D01*
X112754814Y-118072350D01*
X112737251Y-118236695D01*
X112737548Y-118241848D01*
X112737548Y-118241851D01*
X112744932Y-118369908D01*
X112750110Y-118459715D01*
X112751247Y-118464761D01*
X112751248Y-118464767D01*
X112762076Y-118512812D01*
X112799222Y-118677639D01*
X112837461Y-118771811D01*
X112875114Y-118864539D01*
X112883266Y-118884616D01*
X112921878Y-118947625D01*
X112997291Y-119070688D01*
X112999987Y-119075088D01*
X113146250Y-119243938D01*
X113318126Y-119386632D01*
X113332070Y-119394780D01*
X113391955Y-119429774D01*
X113440679Y-119481412D01*
X113453750Y-119551195D01*
X113427019Y-119616967D01*
X113386562Y-119650327D01*
X113378457Y-119654546D01*
X113369738Y-119660036D01*
X113199433Y-119787905D01*
X113191726Y-119794748D01*
X113044590Y-119948717D01*
X113038104Y-119956727D01*
X112918098Y-120132649D01*
X112913000Y-120141623D01*
X112823338Y-120334783D01*
X112819775Y-120344470D01*
X112764389Y-120544183D01*
X112765912Y-120552607D01*
X112778292Y-120556000D01*
X117958344Y-120556000D01*
X117971875Y-120552027D01*
X117973180Y-120542947D01*
X117931214Y-120375875D01*
X117927894Y-120366124D01*
X117842972Y-120170814D01*
X117838105Y-120161739D01*
X117722426Y-119982926D01*
X117716136Y-119974757D01*
X117572806Y-119817240D01*
X117565273Y-119810215D01*
X117398139Y-119678222D01*
X117389556Y-119672520D01*
X117352602Y-119652120D01*
X117302631Y-119601687D01*
X117287859Y-119532245D01*
X117312975Y-119465839D01*
X117340327Y-119439232D01*
X117375188Y-119414366D01*
X117519860Y-119311173D01*
X117541753Y-119289357D01*
X117649095Y-119182389D01*
X117678096Y-119153489D01*
X117712876Y-119105088D01*
X117805435Y-118976277D01*
X117808453Y-118972077D01*
X117813124Y-118962627D01*
X117905136Y-118776453D01*
X117905137Y-118776451D01*
X117907430Y-118771811D01*
X117972370Y-118558069D01*
X118001529Y-118336590D01*
X118002912Y-118280000D01*
X118003074Y-118273365D01*
X118003074Y-118273361D01*
X118003156Y-118270000D01*
X117984852Y-118047361D01*
X117930431Y-117830702D01*
X117860839Y-117670652D01*
X117852019Y-117600207D01*
X117882686Y-117536175D01*
X117943102Y-117498887D01*
X117976389Y-117494411D01*
X121275645Y-117494411D01*
X121343766Y-117514413D01*
X121349706Y-117518475D01*
X121378367Y-117539298D01*
X121456955Y-117596396D01*
X121462983Y-117599080D01*
X121462985Y-117599081D01*
X121583623Y-117652792D01*
X121620454Y-117669190D01*
X121731536Y-117692801D01*
X121789058Y-117705028D01*
X121789060Y-117705028D01*
X121795514Y-117706400D01*
X121795419Y-117706845D01*
X121857326Y-117732314D01*
X121897956Y-117790535D01*
X121904500Y-117830612D01*
X121904500Y-119432600D01*
X121884498Y-119500721D01*
X121830842Y-119547214D01*
X121778500Y-119558600D01*
X121650514Y-119558600D01*
X121644061Y-119559972D01*
X121644057Y-119559972D01*
X121581934Y-119573177D01*
X121475454Y-119595810D01*
X121469424Y-119598495D01*
X121469423Y-119598495D01*
X121317985Y-119665919D01*
X121317983Y-119665920D01*
X121311955Y-119668604D01*
X121306614Y-119672484D01*
X121306613Y-119672485D01*
X121213247Y-119740320D01*
X121167164Y-119773801D01*
X121162743Y-119778711D01*
X121162742Y-119778712D01*
X121101040Y-119847240D01*
X121047409Y-119906803D01*
X120957923Y-120061797D01*
X120955881Y-120068082D01*
X120906601Y-120219752D01*
X120902618Y-120232009D01*
X120901928Y-120238572D01*
X120901928Y-120238573D01*
X120885378Y-120396029D01*
X120883910Y-120410000D01*
X120884600Y-120416565D01*
X120899256Y-120556000D01*
X120902618Y-120587991D01*
X120957923Y-120758203D01*
X121010548Y-120849352D01*
X121027285Y-120918343D01*
X121019410Y-120956577D01*
X120988255Y-121039684D01*
X120981500Y-121101866D01*
X120981500Y-121998134D01*
X120988255Y-122060316D01*
X121039385Y-122196705D01*
X121126739Y-122313261D01*
X121174660Y-122349176D01*
X121217173Y-122406033D01*
X121222199Y-122476851D01*
X121188139Y-122539145D01*
X121174670Y-122550817D01*
X121126739Y-122586739D01*
X121039385Y-122703295D01*
X120988255Y-122839684D01*
X120981500Y-122901866D01*
X120981500Y-123548411D01*
X120961498Y-123616532D01*
X120907842Y-123663025D01*
X120855500Y-123674411D01*
X118230704Y-123674411D01*
X118162583Y-123654409D01*
X118141609Y-123637506D01*
X118036062Y-123531959D01*
X118002036Y-123469647D01*
X118000235Y-123426416D01*
X118001529Y-123416590D01*
X118003156Y-123350000D01*
X117984852Y-123127361D01*
X117930431Y-122910702D01*
X117841354Y-122705840D01*
X117732368Y-122537373D01*
X117722822Y-122522617D01*
X117722820Y-122522614D01*
X117720014Y-122518277D01*
X117569670Y-122353051D01*
X117565619Y-122349852D01*
X117565615Y-122349848D01*
X117398414Y-122217800D01*
X117398410Y-122217798D01*
X117394359Y-122214598D01*
X117352569Y-122191529D01*
X117302598Y-122141097D01*
X117287826Y-122071654D01*
X117312942Y-122005248D01*
X117340294Y-121978641D01*
X117515328Y-121853792D01*
X117523200Y-121847139D01*
X117674052Y-121696812D01*
X117680730Y-121688965D01*
X117805003Y-121516020D01*
X117810313Y-121507183D01*
X117904670Y-121316267D01*
X117908469Y-121306672D01*
X117970377Y-121102910D01*
X117972555Y-121092837D01*
X117973986Y-121081962D01*
X117971775Y-121067778D01*
X117958617Y-121064000D01*
X112783225Y-121064000D01*
X112769694Y-121067973D01*
X112768257Y-121077966D01*
X112798565Y-121212446D01*
X112801645Y-121222275D01*
X112881770Y-121419603D01*
X112886413Y-121428794D01*
X112997694Y-121610388D01*
X113003777Y-121618699D01*
X113143213Y-121779667D01*
X113150580Y-121786883D01*
X113314434Y-121922916D01*
X113322881Y-121928831D01*
X113391969Y-121969203D01*
X113440693Y-122020842D01*
X113453764Y-122090625D01*
X113427033Y-122156396D01*
X113386584Y-122189752D01*
X113373607Y-122196507D01*
X113369474Y-122199610D01*
X113369471Y-122199612D01*
X113199100Y-122327530D01*
X113194965Y-122330635D01*
X113191393Y-122334373D01*
X113050436Y-122481876D01*
X113040629Y-122492138D01*
X113037720Y-122496403D01*
X113037714Y-122496411D01*
X112976097Y-122586739D01*
X112914743Y-122676680D01*
X112820688Y-122879305D01*
X112760989Y-123094570D01*
X112737251Y-123316695D01*
X112737548Y-123321848D01*
X112737548Y-123321851D01*
X112744932Y-123449908D01*
X112750110Y-123539715D01*
X112751247Y-123544761D01*
X112751248Y-123544767D01*
X112767422Y-123616532D01*
X112799222Y-123757639D01*
X112831723Y-123837680D01*
X112880714Y-123958330D01*
X112883266Y-123964616D01*
X112920667Y-124025649D01*
X112997291Y-124150688D01*
X112999987Y-124155088D01*
X113003365Y-124158988D01*
X113003366Y-124158989D01*
X113096212Y-124266173D01*
X113125694Y-124330758D01*
X113115579Y-124401030D01*
X113069078Y-124454679D01*
X113000919Y-124474670D01*
X112706382Y-124474541D01*
X111046945Y-124473814D01*
X111027616Y-124472314D01*
X111012646Y-124469983D01*
X111012642Y-124469983D01*
X111003773Y-124468602D01*
X110994871Y-124469766D01*
X110994869Y-124469766D01*
X110994753Y-124469781D01*
X110964304Y-124470052D01*
X110902233Y-124463057D01*
X110874727Y-124456779D01*
X110797645Y-124429806D01*
X110772226Y-124417565D01*
X110731483Y-124391965D01*
X110703076Y-124374116D01*
X110681017Y-124356524D01*
X110623271Y-124298776D01*
X110605680Y-124276717D01*
X110562233Y-124207570D01*
X110549992Y-124182150D01*
X110523018Y-124105063D01*
X110516739Y-124077554D01*
X110512753Y-124042167D01*
X110510477Y-124021967D01*
X110509694Y-124006322D01*
X110509803Y-123997446D01*
X110511184Y-123988573D01*
X110510020Y-123979670D01*
X110510020Y-123979665D01*
X110507057Y-123957003D01*
X110505993Y-123940667D01*
X110505993Y-110031663D01*
X110507493Y-110012276D01*
X110509803Y-109997443D01*
X110509803Y-109997442D01*
X110511184Y-109988573D01*
X110510005Y-109979553D01*
X110509733Y-109949105D01*
X110510626Y-109941185D01*
X110516728Y-109887030D01*
X110523007Y-109859524D01*
X110549978Y-109782445D01*
X110562220Y-109757024D01*
X110605674Y-109687868D01*
X110623266Y-109665809D01*
X110681009Y-109608066D01*
X110703068Y-109590474D01*
X110772224Y-109547020D01*
X110797637Y-109534781D01*
X110874730Y-109507805D01*
X110902231Y-109501528D01*
X110942920Y-109496943D01*
X110957723Y-109495275D01*
X110973364Y-109495507D01*
X110973376Y-109494493D01*
X110982348Y-109494603D01*
X110991221Y-109495984D01*
X111000122Y-109494820D01*
X111000127Y-109494820D01*
X111022638Y-109491876D01*
X111039030Y-109490812D01*
X113033113Y-109491685D01*
G37*
%TD.AperFunction*%
%TA.AperFunction,Conductor*%
G36*
X118415215Y-109494042D02*
G01*
X118769573Y-109494198D01*
X118837685Y-109514230D01*
X118884155Y-109567906D01*
X118894228Y-109638184D01*
X118883711Y-109673451D01*
X118881943Y-109677242D01*
X118831685Y-109828766D01*
X118828819Y-109842132D01*
X118819328Y-109934770D01*
X118819000Y-109941185D01*
X118819000Y-110015385D01*
X118823475Y-110030624D01*
X118824865Y-110031829D01*
X118832548Y-110033500D01*
X119930000Y-110033500D01*
X119998121Y-110053502D01*
X120044614Y-110107158D01*
X120056000Y-110159500D01*
X120056000Y-110415500D01*
X120035998Y-110483621D01*
X119982342Y-110530114D01*
X119930000Y-110541500D01*
X118837115Y-110541500D01*
X118821876Y-110545975D01*
X118820671Y-110547365D01*
X118819000Y-110555048D01*
X118819000Y-110633766D01*
X118819337Y-110640282D01*
X118829075Y-110734132D01*
X118831968Y-110747528D01*
X118882488Y-110898953D01*
X118888653Y-110912115D01*
X118972426Y-111047492D01*
X118981464Y-111058894D01*
X118983139Y-111060567D01*
X118983919Y-111061993D01*
X118986007Y-111064627D01*
X118985556Y-111064984D01*
X119017219Y-111122849D01*
X119012216Y-111193669D01*
X118983299Y-111238754D01*
X118981260Y-111240797D01*
X118975071Y-111246997D01*
X118971231Y-111253227D01*
X118971230Y-111253228D01*
X118931849Y-111317116D01*
X118879077Y-111364609D01*
X118824589Y-111377000D01*
X118124500Y-111377000D01*
X118056379Y-111356998D01*
X118009886Y-111303342D01*
X117998500Y-111251000D01*
X117998500Y-109751866D01*
X117991745Y-109689684D01*
X117988972Y-109682286D01*
X117988970Y-109682279D01*
X117982167Y-109664132D01*
X117976984Y-109593325D01*
X118010906Y-109530957D01*
X118073161Y-109496828D01*
X118100200Y-109493904D01*
X118415215Y-109494042D01*
G37*
%TD.AperFunction*%
%TA.AperFunction,Conductor*%
G36*
X128056811Y-109498265D02*
G01*
X128124923Y-109518297D01*
X128171393Y-109571973D01*
X128181466Y-109642251D01*
X128151944Y-109706819D01*
X128122592Y-109731697D01*
X128050584Y-109775824D01*
X127870031Y-109930031D01*
X127866823Y-109933787D01*
X127860505Y-109941185D01*
X127715824Y-110110584D01*
X127713245Y-110114792D01*
X127713241Y-110114798D01*
X127673711Y-110179305D01*
X127591760Y-110313037D01*
X127589867Y-110317607D01*
X127589865Y-110317611D01*
X127505413Y-110521498D01*
X127500895Y-110532406D01*
X127495459Y-110555048D01*
X127449057Y-110748329D01*
X127445465Y-110763289D01*
X127426835Y-111000000D01*
X127427223Y-111004930D01*
X127445465Y-111236711D01*
X127444288Y-111236804D01*
X127435895Y-111301710D01*
X127390169Y-111356020D01*
X127320550Y-111377000D01*
X127049404Y-111377000D01*
X126981283Y-111356998D01*
X126942260Y-111317303D01*
X126901970Y-111252195D01*
X126901964Y-111252188D01*
X126898116Y-111245969D01*
X126890861Y-111238726D01*
X126889894Y-111236960D01*
X126888389Y-111235061D01*
X126888714Y-111234803D01*
X126856781Y-111176446D01*
X126861782Y-111105625D01*
X126890708Y-111060530D01*
X126893364Y-111057869D01*
X126902375Y-111046460D01*
X126985912Y-110910937D01*
X126992056Y-110897759D01*
X127042315Y-110746234D01*
X127045181Y-110732868D01*
X127054672Y-110640230D01*
X127055000Y-110633815D01*
X127055000Y-110559615D01*
X127050525Y-110544376D01*
X127049135Y-110543171D01*
X127041452Y-110541500D01*
X125944000Y-110541500D01*
X125875879Y-110521498D01*
X125829386Y-110467842D01*
X125818000Y-110415500D01*
X125818000Y-110159500D01*
X125838002Y-110091379D01*
X125891658Y-110044886D01*
X125944000Y-110033500D01*
X127036885Y-110033500D01*
X127052124Y-110029025D01*
X127053329Y-110027635D01*
X127055000Y-110019952D01*
X127055000Y-109941234D01*
X127054663Y-109934718D01*
X127044925Y-109840868D01*
X127042032Y-109827472D01*
X126989197Y-109669107D01*
X126990759Y-109668586D01*
X126981315Y-109607123D01*
X127010183Y-109542260D01*
X127069535Y-109503301D01*
X127106255Y-109497849D01*
X128056811Y-109498265D01*
G37*
%TD.AperFunction*%
%TD*%
M02*
