M48
; DRILL file {KiCad 6.0.4-6f826c9f35~116~ubuntu20.04.1} date Mon 18 Apr 2022 02:11:31 PM
; FORMAT={-:-/ absolute / metric / decimal}
; #@! TF.CreationDate,2022-04-18T14:11:31+07:00
; #@! TF.GenerationSoftware,Kicad,Pcbnew,6.0.4-6f826c9f35~116~ubuntu20.04.1
; #@! TF.FileFunction,MixedPlating,1,2
FMAT,2
METRIC
; #@! TA.AperFunction,Plated,PTH,ViaDrill
T1C0.330
; #@! TA.AperFunction,Plated,PTH,ComponentDrill
T2C0.800
; #@! TA.AperFunction,Plated,PTH,ComponentDrill
T3C1.000
; #@! TA.AperFunction,Plated,PTH,ComponentDrill
T4C1.100
%
G90
G05
T1
X121.74Y-120.41
X121.885Y-116.855
X123.34Y-118.49
T2
X159.55Y-113.2
X159.55Y-115.74
X159.55Y-118.28
X159.55Y-120.82
X167.17Y-113.2
X167.17Y-115.74
X167.17Y-118.28
X167.17Y-120.82
T3
X114.1Y-110.65
X114.1Y-113.19
X114.1Y-115.73
X114.1Y-118.27
X114.1Y-120.81
X114.1Y-123.35
X116.64Y-110.65
X116.64Y-113.19
X116.64Y-115.73
X116.64Y-118.27
X116.64Y-120.81
X116.64Y-123.35
X149.24Y-110.68
X149.24Y-113.22
X149.24Y-115.76
X149.24Y-118.3
X149.24Y-120.84
X149.24Y-123.38
X151.78Y-110.68
X151.78Y-113.22
X151.78Y-115.76
X151.78Y-118.3
X151.78Y-120.84
X151.78Y-123.38
T4
X128.94Y-111.0
X128.94Y-115.5
X128.94Y-118.5
X128.94Y-123.0
X135.44Y-111.0
X135.44Y-115.5
X135.44Y-118.5
X135.44Y-123.0
X138.44Y-111.0
X138.44Y-115.5
X138.44Y-118.5
X138.44Y-123.0
X144.94Y-111.0
X144.94Y-115.5
X144.94Y-118.5
X144.94Y-123.0
T0
M30
