%TF.GenerationSoftware,KiCad,Pcbnew,6.0.4-6f826c9f35~116~ubuntu20.04.1*%
%TF.CreationDate,2022-04-18T14:11:44+07:00*%
%TF.ProjectId,pmod-thin-switches,706d6f64-2d74-4686-996e-2d7377697463,1.0*%
%TF.SameCoordinates,Original*%
%TF.FileFunction,Legend,Top*%
%TF.FilePolarity,Positive*%
%FSLAX46Y46*%
G04 Gerber Fmt 4.6, Leading zero omitted, Abs format (unit mm)*
G04 Created by KiCad (PCBNEW 6.0.4-6f826c9f35~116~ubuntu20.04.1) date 2022-04-18 14:11:44*
%MOMM*%
%LPD*%
G01*
G04 APERTURE LIST*
%ADD10C,0.150000*%
%ADD11C,0.187500*%
%ADD12C,0.120000*%
G04 APERTURE END LIST*
D10*
X126080000Y-111850000D02*
X125080000Y-111850000D01*
X119830000Y-120100000D02*
X120000000Y-119990000D01*
X154040000Y-115720000D02*
X154210000Y-115830000D01*
X126080000Y-111850000D02*
X125910000Y-111960000D01*
X126080000Y-111850000D02*
X125910000Y-111740000D01*
X119830000Y-120100000D02*
X120830000Y-120100000D01*
X154040000Y-115720000D02*
X155040000Y-115720000D01*
X154040000Y-115720000D02*
X154210000Y-115610000D01*
X119830000Y-120100000D02*
X120000000Y-120210000D01*
X154025714Y-116781428D02*
X154025714Y-116181428D01*
X154025714Y-116467142D02*
X154368571Y-116467142D01*
X154368571Y-116781428D02*
X154368571Y-116181428D01*
X154654285Y-116781428D02*
X154654285Y-116181428D01*
X154797142Y-116181428D01*
X154882857Y-116210000D01*
X154940000Y-116267142D01*
X154968571Y-116324285D01*
X154997142Y-116438571D01*
X154997142Y-116524285D01*
X154968571Y-116638571D01*
X154940000Y-116695714D01*
X154882857Y-116752857D01*
X154797142Y-116781428D01*
X154654285Y-116781428D01*
X155597142Y-116781428D02*
X155397142Y-116495714D01*
X155254285Y-116781428D02*
X155254285Y-116181428D01*
X155482857Y-116181428D01*
X155540000Y-116210000D01*
X155568571Y-116238571D01*
X155597142Y-116295714D01*
X155597142Y-116381428D01*
X155568571Y-116438571D01*
X155540000Y-116467142D01*
X155482857Y-116495714D01*
X155254285Y-116495714D01*
X155997142Y-116981428D02*
X155997142Y-116124285D01*
X156397142Y-116752857D02*
X156482857Y-116781428D01*
X156625714Y-116781428D01*
X156682857Y-116752857D01*
X156711428Y-116724285D01*
X156740000Y-116667142D01*
X156740000Y-116610000D01*
X156711428Y-116552857D01*
X156682857Y-116524285D01*
X156625714Y-116495714D01*
X156511428Y-116467142D01*
X156454285Y-116438571D01*
X156425714Y-116410000D01*
X156397142Y-116352857D01*
X156397142Y-116295714D01*
X156425714Y-116238571D01*
X156454285Y-116210000D01*
X156511428Y-116181428D01*
X156654285Y-116181428D01*
X156740000Y-116210000D01*
X156940000Y-116181428D02*
X157082857Y-116781428D01*
X157197142Y-116352857D01*
X157311428Y-116781428D01*
X157454285Y-116181428D01*
X157597142Y-116181428D02*
X157940000Y-116181428D01*
X157768571Y-116781428D02*
X157768571Y-116181428D01*
D11*
X157504285Y-113559285D02*
X157075714Y-113559285D01*
X157290000Y-113559285D02*
X157290000Y-112809285D01*
X157218571Y-112916428D01*
X157147142Y-112987857D01*
X157075714Y-113023571D01*
X154928571Y-117950535D02*
X154500000Y-117950535D01*
X154714285Y-117950535D02*
X154714285Y-117200535D01*
X154642857Y-117307678D01*
X154571428Y-117379107D01*
X154500000Y-117414821D01*
X156000000Y-118200535D02*
X156000000Y-117129107D01*
X157500000Y-117950535D02*
X157071428Y-117950535D01*
X157285714Y-117950535D02*
X157285714Y-117200535D01*
X157214285Y-117307678D01*
X157142857Y-117379107D01*
X157071428Y-117414821D01*
X154500000Y-118479464D02*
X154535714Y-118443750D01*
X154607142Y-118408035D01*
X154785714Y-118408035D01*
X154857142Y-118443750D01*
X154892857Y-118479464D01*
X154928571Y-118550892D01*
X154928571Y-118622321D01*
X154892857Y-118729464D01*
X154464285Y-119158035D01*
X154928571Y-119158035D01*
X156000000Y-119408035D02*
X156000000Y-118336607D01*
X157071428Y-118479464D02*
X157107142Y-118443750D01*
X157178571Y-118408035D01*
X157357142Y-118408035D01*
X157428571Y-118443750D01*
X157464285Y-118479464D01*
X157500000Y-118550892D01*
X157500000Y-118622321D01*
X157464285Y-118729464D01*
X157035714Y-119158035D01*
X157500000Y-119158035D01*
X154464285Y-119615535D02*
X154928571Y-119615535D01*
X154678571Y-119901250D01*
X154785714Y-119901250D01*
X154857142Y-119936964D01*
X154892857Y-119972678D01*
X154928571Y-120044107D01*
X154928571Y-120222678D01*
X154892857Y-120294107D01*
X154857142Y-120329821D01*
X154785714Y-120365535D01*
X154571428Y-120365535D01*
X154500000Y-120329821D01*
X154464285Y-120294107D01*
X156000000Y-120615535D02*
X156000000Y-119544107D01*
X157035714Y-119615535D02*
X157500000Y-119615535D01*
X157250000Y-119901250D01*
X157357142Y-119901250D01*
X157428571Y-119936964D01*
X157464285Y-119972678D01*
X157500000Y-120044107D01*
X157500000Y-120222678D01*
X157464285Y-120294107D01*
X157428571Y-120329821D01*
X157357142Y-120365535D01*
X157142857Y-120365535D01*
X157071428Y-120329821D01*
X157035714Y-120294107D01*
X154857142Y-121073035D02*
X154857142Y-121573035D01*
X154678571Y-120787321D02*
X154500000Y-121323035D01*
X154964285Y-121323035D01*
X156000000Y-121823035D02*
X156000000Y-120751607D01*
X157428571Y-121073035D02*
X157428571Y-121573035D01*
X157250000Y-120787321D02*
X157071428Y-121323035D01*
X157535714Y-121323035D01*
X155428571Y-122066250D02*
X155357142Y-122030535D01*
X155250000Y-122030535D01*
X155142857Y-122066250D01*
X155071428Y-122137678D01*
X155035714Y-122209107D01*
X155000000Y-122351964D01*
X155000000Y-122459107D01*
X155035714Y-122601964D01*
X155071428Y-122673392D01*
X155142857Y-122744821D01*
X155250000Y-122780535D01*
X155321428Y-122780535D01*
X155428571Y-122744821D01*
X155464285Y-122709107D01*
X155464285Y-122459107D01*
X155321428Y-122459107D01*
X155785714Y-122780535D02*
X155785714Y-122030535D01*
X156214285Y-122780535D01*
X156214285Y-122030535D01*
X156571428Y-122780535D02*
X156571428Y-122030535D01*
X156750000Y-122030535D01*
X156857142Y-122066250D01*
X156928571Y-122137678D01*
X156964285Y-122209107D01*
X157000000Y-122351964D01*
X157000000Y-122459107D01*
X156964285Y-122601964D01*
X156928571Y-122673392D01*
X156857142Y-122744821D01*
X156750000Y-122780535D01*
X156571428Y-122780535D01*
X155071428Y-123238035D02*
X155535714Y-123238035D01*
X155285714Y-123523750D01*
X155392857Y-123523750D01*
X155464285Y-123559464D01*
X155500000Y-123595178D01*
X155535714Y-123666607D01*
X155535714Y-123845178D01*
X155500000Y-123916607D01*
X155464285Y-123952321D01*
X155392857Y-123988035D01*
X155178571Y-123988035D01*
X155107142Y-123952321D01*
X155071428Y-123916607D01*
X155750000Y-123238035D02*
X156000000Y-123988035D01*
X156250000Y-123238035D01*
X156428571Y-123238035D02*
X156892857Y-123238035D01*
X156642857Y-123523750D01*
X156750000Y-123523750D01*
X156821428Y-123559464D01*
X156857142Y-123595178D01*
X156892857Y-123666607D01*
X156892857Y-123845178D01*
X156857142Y-123916607D01*
X156821428Y-123952321D01*
X156750000Y-123988035D01*
X156535714Y-123988035D01*
X156464285Y-123952321D01*
X156428571Y-123916607D01*
X120263571Y-116366428D02*
X120370714Y-116402142D01*
X120406428Y-116437857D01*
X120442142Y-116509285D01*
X120442142Y-116616428D01*
X120406428Y-116687857D01*
X120370714Y-116723571D01*
X120299285Y-116759285D01*
X120013571Y-116759285D01*
X120013571Y-116009285D01*
X120263571Y-116009285D01*
X120335000Y-116045000D01*
X120370714Y-116080714D01*
X120406428Y-116152142D01*
X120406428Y-116223571D01*
X120370714Y-116295000D01*
X120335000Y-116330714D01*
X120263571Y-116366428D01*
X120013571Y-116366428D01*
X120656428Y-116009285D02*
X121085000Y-116009285D01*
X120870714Y-116759285D02*
X120870714Y-116009285D01*
X121335000Y-116759285D02*
X121335000Y-116009285D01*
X121763571Y-116759285D01*
X121763571Y-116009285D01*
X122870714Y-117009285D02*
X122870714Y-115937857D01*
X123977857Y-116759285D02*
X123977857Y-116009285D01*
X123977857Y-116366428D02*
X124406428Y-116366428D01*
X124406428Y-116759285D02*
X124406428Y-116009285D01*
X124763571Y-116759285D02*
X124763571Y-116009285D01*
X124942142Y-116009285D01*
X125049285Y-116045000D01*
X125120714Y-116116428D01*
X125156428Y-116187857D01*
X125192142Y-116330714D01*
X125192142Y-116437857D01*
X125156428Y-116580714D01*
X125120714Y-116652142D01*
X125049285Y-116723571D01*
X124942142Y-116759285D01*
X124763571Y-116759285D01*
X125942142Y-116759285D02*
X125692142Y-116402142D01*
X125513571Y-116759285D02*
X125513571Y-116009285D01*
X125799285Y-116009285D01*
X125870714Y-116045000D01*
X125906428Y-116080714D01*
X125942142Y-116152142D01*
X125942142Y-116259285D01*
X125906428Y-116330714D01*
X125870714Y-116366428D01*
X125799285Y-116402142D01*
X125513571Y-116402142D01*
X121838571Y-112185535D02*
X121410000Y-112185535D01*
X121624285Y-112185535D02*
X121624285Y-111435535D01*
X121552857Y-111542678D01*
X121481428Y-111614107D01*
X121410000Y-111649821D01*
X122910000Y-112435535D02*
X122910000Y-111364107D01*
X123945714Y-111435535D02*
X124410000Y-111435535D01*
X124160000Y-111721250D01*
X124267142Y-111721250D01*
X124338571Y-111756964D01*
X124374285Y-111792678D01*
X124410000Y-111864107D01*
X124410000Y-112042678D01*
X124374285Y-112114107D01*
X124338571Y-112149821D01*
X124267142Y-112185535D01*
X124052857Y-112185535D01*
X123981428Y-112149821D01*
X123945714Y-112114107D01*
X121410000Y-112714464D02*
X121445714Y-112678750D01*
X121517142Y-112643035D01*
X121695714Y-112643035D01*
X121767142Y-112678750D01*
X121802857Y-112714464D01*
X121838571Y-112785892D01*
X121838571Y-112857321D01*
X121802857Y-112964464D01*
X121374285Y-113393035D01*
X121838571Y-113393035D01*
X122910000Y-113643035D02*
X122910000Y-112571607D01*
X124338571Y-112893035D02*
X124338571Y-113393035D01*
X124160000Y-112607321D02*
X123981428Y-113143035D01*
X124445714Y-113143035D01*
X121808571Y-117970535D02*
X121380000Y-117970535D01*
X121594285Y-117970535D02*
X121594285Y-117220535D01*
X121522857Y-117327678D01*
X121451428Y-117399107D01*
X121380000Y-117434821D01*
X122880000Y-118220535D02*
X122880000Y-117149107D01*
X124380000Y-117970535D02*
X123951428Y-117970535D01*
X124165714Y-117970535D02*
X124165714Y-117220535D01*
X124094285Y-117327678D01*
X124022857Y-117399107D01*
X123951428Y-117434821D01*
X121380000Y-118499464D02*
X121415714Y-118463750D01*
X121487142Y-118428035D01*
X121665714Y-118428035D01*
X121737142Y-118463750D01*
X121772857Y-118499464D01*
X121808571Y-118570892D01*
X121808571Y-118642321D01*
X121772857Y-118749464D01*
X121344285Y-119178035D01*
X121808571Y-119178035D01*
X122880000Y-119428035D02*
X122880000Y-118356607D01*
X123951428Y-118499464D02*
X123987142Y-118463750D01*
X124058571Y-118428035D01*
X124237142Y-118428035D01*
X124308571Y-118463750D01*
X124344285Y-118499464D01*
X124380000Y-118570892D01*
X124380000Y-118642321D01*
X124344285Y-118749464D01*
X123915714Y-119178035D01*
X124380000Y-119178035D01*
X121344285Y-119635535D02*
X121808571Y-119635535D01*
X121558571Y-119921250D01*
X121665714Y-119921250D01*
X121737142Y-119956964D01*
X121772857Y-119992678D01*
X121808571Y-120064107D01*
X121808571Y-120242678D01*
X121772857Y-120314107D01*
X121737142Y-120349821D01*
X121665714Y-120385535D01*
X121451428Y-120385535D01*
X121380000Y-120349821D01*
X121344285Y-120314107D01*
X122880000Y-120635535D02*
X122880000Y-119564107D01*
X123915714Y-119635535D02*
X124380000Y-119635535D01*
X124130000Y-119921250D01*
X124237142Y-119921250D01*
X124308571Y-119956964D01*
X124344285Y-119992678D01*
X124380000Y-120064107D01*
X124380000Y-120242678D01*
X124344285Y-120314107D01*
X124308571Y-120349821D01*
X124237142Y-120385535D01*
X124022857Y-120385535D01*
X123951428Y-120349821D01*
X123915714Y-120314107D01*
X121737142Y-121093035D02*
X121737142Y-121593035D01*
X121558571Y-120807321D02*
X121380000Y-121343035D01*
X121844285Y-121343035D01*
X122880000Y-121843035D02*
X122880000Y-120771607D01*
X124308571Y-121093035D02*
X124308571Y-121593035D01*
X124130000Y-120807321D02*
X123951428Y-121343035D01*
X124415714Y-121343035D01*
X122308571Y-122086250D02*
X122237142Y-122050535D01*
X122130000Y-122050535D01*
X122022857Y-122086250D01*
X121951428Y-122157678D01*
X121915714Y-122229107D01*
X121880000Y-122371964D01*
X121880000Y-122479107D01*
X121915714Y-122621964D01*
X121951428Y-122693392D01*
X122022857Y-122764821D01*
X122130000Y-122800535D01*
X122201428Y-122800535D01*
X122308571Y-122764821D01*
X122344285Y-122729107D01*
X122344285Y-122479107D01*
X122201428Y-122479107D01*
X122665714Y-122800535D02*
X122665714Y-122050535D01*
X123094285Y-122800535D01*
X123094285Y-122050535D01*
X123451428Y-122800535D02*
X123451428Y-122050535D01*
X123630000Y-122050535D01*
X123737142Y-122086250D01*
X123808571Y-122157678D01*
X123844285Y-122229107D01*
X123880000Y-122371964D01*
X123880000Y-122479107D01*
X123844285Y-122621964D01*
X123808571Y-122693392D01*
X123737142Y-122764821D01*
X123630000Y-122800535D01*
X123451428Y-122800535D01*
X121951428Y-123258035D02*
X122415714Y-123258035D01*
X122165714Y-123543750D01*
X122272857Y-123543750D01*
X122344285Y-123579464D01*
X122380000Y-123615178D01*
X122415714Y-123686607D01*
X122415714Y-123865178D01*
X122380000Y-123936607D01*
X122344285Y-123972321D01*
X122272857Y-124008035D01*
X122058571Y-124008035D01*
X121987142Y-123972321D01*
X121951428Y-123936607D01*
X122630000Y-123258035D02*
X122880000Y-124008035D01*
X123130000Y-123258035D01*
X123308571Y-123258035D02*
X123772857Y-123258035D01*
X123522857Y-123543750D01*
X123630000Y-123543750D01*
X123701428Y-123579464D01*
X123737142Y-123615178D01*
X123772857Y-123686607D01*
X123772857Y-123865178D01*
X123737142Y-123936607D01*
X123701428Y-123972321D01*
X123630000Y-124008035D01*
X123415714Y-124008035D01*
X123344285Y-123972321D01*
X123308571Y-123936607D01*
X122255000Y-110596428D02*
X122362142Y-110632142D01*
X122397857Y-110667857D01*
X122433571Y-110739285D01*
X122433571Y-110846428D01*
X122397857Y-110917857D01*
X122362142Y-110953571D01*
X122290714Y-110989285D01*
X122005000Y-110989285D01*
X122005000Y-110239285D01*
X122255000Y-110239285D01*
X122326428Y-110275000D01*
X122362142Y-110310714D01*
X122397857Y-110382142D01*
X122397857Y-110453571D01*
X122362142Y-110525000D01*
X122326428Y-110560714D01*
X122255000Y-110596428D01*
X122005000Y-110596428D01*
X122647857Y-110239285D02*
X123076428Y-110239285D01*
X122862142Y-110989285D02*
X122862142Y-110239285D01*
X123326428Y-110989285D02*
X123326428Y-110239285D01*
X123755000Y-110989285D01*
X123755000Y-110239285D01*
D10*
%TO.C,PB1*%
X130951904Y-113702380D02*
X130951904Y-112702380D01*
X131332857Y-112702380D01*
X131428095Y-112750000D01*
X131475714Y-112797619D01*
X131523333Y-112892857D01*
X131523333Y-113035714D01*
X131475714Y-113130952D01*
X131428095Y-113178571D01*
X131332857Y-113226190D01*
X130951904Y-113226190D01*
X132285238Y-113178571D02*
X132428095Y-113226190D01*
X132475714Y-113273809D01*
X132523333Y-113369047D01*
X132523333Y-113511904D01*
X132475714Y-113607142D01*
X132428095Y-113654761D01*
X132332857Y-113702380D01*
X131951904Y-113702380D01*
X131951904Y-112702380D01*
X132285238Y-112702380D01*
X132380476Y-112750000D01*
X132428095Y-112797619D01*
X132475714Y-112892857D01*
X132475714Y-112988095D01*
X132428095Y-113083333D01*
X132380476Y-113130952D01*
X132285238Y-113178571D01*
X131951904Y-113178571D01*
X133475714Y-113702380D02*
X132904285Y-113702380D01*
X133190000Y-113702380D02*
X133190000Y-112702380D01*
X133094761Y-112845238D01*
X132999523Y-112940476D01*
X132904285Y-112988095D01*
%TO.C,PB2*%
X130951904Y-121202380D02*
X130951904Y-120202380D01*
X131332857Y-120202380D01*
X131428095Y-120250000D01*
X131475714Y-120297619D01*
X131523333Y-120392857D01*
X131523333Y-120535714D01*
X131475714Y-120630952D01*
X131428095Y-120678571D01*
X131332857Y-120726190D01*
X130951904Y-120726190D01*
X132285238Y-120678571D02*
X132428095Y-120726190D01*
X132475714Y-120773809D01*
X132523333Y-120869047D01*
X132523333Y-121011904D01*
X132475714Y-121107142D01*
X132428095Y-121154761D01*
X132332857Y-121202380D01*
X131951904Y-121202380D01*
X131951904Y-120202380D01*
X132285238Y-120202380D01*
X132380476Y-120250000D01*
X132428095Y-120297619D01*
X132475714Y-120392857D01*
X132475714Y-120488095D01*
X132428095Y-120583333D01*
X132380476Y-120630952D01*
X132285238Y-120678571D01*
X131951904Y-120678571D01*
X132904285Y-120297619D02*
X132951904Y-120250000D01*
X133047142Y-120202380D01*
X133285238Y-120202380D01*
X133380476Y-120250000D01*
X133428095Y-120297619D01*
X133475714Y-120392857D01*
X133475714Y-120488095D01*
X133428095Y-120630952D01*
X132856666Y-121202380D01*
X133475714Y-121202380D01*
%TO.C,PB3*%
X140451904Y-113702380D02*
X140451904Y-112702380D01*
X140832857Y-112702380D01*
X140928095Y-112750000D01*
X140975714Y-112797619D01*
X141023333Y-112892857D01*
X141023333Y-113035714D01*
X140975714Y-113130952D01*
X140928095Y-113178571D01*
X140832857Y-113226190D01*
X140451904Y-113226190D01*
X141785238Y-113178571D02*
X141928095Y-113226190D01*
X141975714Y-113273809D01*
X142023333Y-113369047D01*
X142023333Y-113511904D01*
X141975714Y-113607142D01*
X141928095Y-113654761D01*
X141832857Y-113702380D01*
X141451904Y-113702380D01*
X141451904Y-112702380D01*
X141785238Y-112702380D01*
X141880476Y-112750000D01*
X141928095Y-112797619D01*
X141975714Y-112892857D01*
X141975714Y-112988095D01*
X141928095Y-113083333D01*
X141880476Y-113130952D01*
X141785238Y-113178571D01*
X141451904Y-113178571D01*
X142356666Y-112702380D02*
X142975714Y-112702380D01*
X142642380Y-113083333D01*
X142785238Y-113083333D01*
X142880476Y-113130952D01*
X142928095Y-113178571D01*
X142975714Y-113273809D01*
X142975714Y-113511904D01*
X142928095Y-113607142D01*
X142880476Y-113654761D01*
X142785238Y-113702380D01*
X142499523Y-113702380D01*
X142404285Y-113654761D01*
X142356666Y-113607142D01*
%TO.C,PB4*%
X140451904Y-121202380D02*
X140451904Y-120202380D01*
X140832857Y-120202380D01*
X140928095Y-120250000D01*
X140975714Y-120297619D01*
X141023333Y-120392857D01*
X141023333Y-120535714D01*
X140975714Y-120630952D01*
X140928095Y-120678571D01*
X140832857Y-120726190D01*
X140451904Y-120726190D01*
X141785238Y-120678571D02*
X141928095Y-120726190D01*
X141975714Y-120773809D01*
X142023333Y-120869047D01*
X142023333Y-121011904D01*
X141975714Y-121107142D01*
X141928095Y-121154761D01*
X141832857Y-121202380D01*
X141451904Y-121202380D01*
X141451904Y-120202380D01*
X141785238Y-120202380D01*
X141880476Y-120250000D01*
X141928095Y-120297619D01*
X141975714Y-120392857D01*
X141975714Y-120488095D01*
X141928095Y-120583333D01*
X141880476Y-120630952D01*
X141785238Y-120678571D01*
X141451904Y-120678571D01*
X142880476Y-120535714D02*
X142880476Y-121202380D01*
X142642380Y-120154761D02*
X142404285Y-120869047D01*
X143023333Y-120869047D01*
D12*
%TO.C,PB1*%
X134440000Y-110000000D02*
X129940000Y-110000000D01*
X129940000Y-116500000D02*
X134440000Y-116500000D01*
X128690000Y-112500000D02*
X128690000Y-114000000D01*
X135690000Y-114000000D02*
X135690000Y-112500000D01*
%TO.C,PB2*%
X128690000Y-120000000D02*
X128690000Y-121500000D01*
X135690000Y-121500000D02*
X135690000Y-120000000D01*
X129940000Y-124000000D02*
X134440000Y-124000000D01*
X134440000Y-117500000D02*
X129940000Y-117500000D01*
%TO.C,J1*%
X110000000Y-124680000D02*
X112660000Y-124680000D01*
X115597071Y-121190000D02*
X115142929Y-121190000D01*
X115597071Y-113570000D02*
X115142929Y-113570000D01*
X113057071Y-121190000D02*
X112660000Y-121190000D01*
X115597071Y-110270000D02*
X115142929Y-110270000D01*
X116640000Y-109380000D02*
X117910000Y-109380000D01*
X115597071Y-115350000D02*
X115142929Y-115350000D01*
X113057071Y-120430000D02*
X112660000Y-120430000D01*
X112660000Y-122080000D02*
X110000000Y-122080000D01*
X115597071Y-111030000D02*
X115142929Y-111030000D01*
X113057071Y-113570000D02*
X112660000Y-113570000D01*
X113057071Y-112810000D02*
X112660000Y-112810000D01*
X110000000Y-116110000D02*
X104000000Y-116110000D01*
X104000000Y-110270000D02*
X110000000Y-110270000D01*
X112660000Y-111920000D02*
X110000000Y-111920000D01*
X113057071Y-116110000D02*
X112660000Y-116110000D01*
X110000000Y-123730000D02*
X104000000Y-123730000D01*
X115530000Y-122970000D02*
X115142929Y-122970000D01*
X110000000Y-110490000D02*
X104000000Y-110490000D01*
X113057071Y-118650000D02*
X112660000Y-118650000D01*
X112660000Y-119540000D02*
X110000000Y-119540000D01*
X110000000Y-110610000D02*
X104000000Y-110610000D01*
X104000000Y-116110000D02*
X104000000Y-115350000D01*
X115597071Y-116110000D02*
X115142929Y-116110000D01*
X113057071Y-122970000D02*
X112660000Y-122970000D01*
X104000000Y-118650000D02*
X104000000Y-117890000D01*
X113057071Y-123730000D02*
X112660000Y-123730000D01*
X113057071Y-117890000D02*
X112660000Y-117890000D01*
X112660000Y-109320000D02*
X110000000Y-109320000D01*
X104000000Y-122970000D02*
X110000000Y-122970000D01*
X113057071Y-115350000D02*
X112660000Y-115350000D01*
X115597071Y-112810000D02*
X115142929Y-112810000D01*
X104000000Y-111030000D02*
X104000000Y-110270000D01*
X113057071Y-111030000D02*
X112660000Y-111030000D01*
X115597071Y-117890000D02*
X115142929Y-117890000D01*
X110000000Y-110850000D02*
X104000000Y-110850000D01*
X104000000Y-123730000D02*
X104000000Y-122970000D01*
X110000000Y-113570000D02*
X104000000Y-113570000D01*
X110000000Y-118650000D02*
X104000000Y-118650000D01*
X104000000Y-121190000D02*
X104000000Y-120430000D01*
X110000000Y-109320000D02*
X110000000Y-124680000D01*
X104000000Y-113570000D02*
X104000000Y-112810000D01*
X112660000Y-124680000D02*
X112660000Y-109320000D01*
X115597071Y-118650000D02*
X115142929Y-118650000D01*
X117910000Y-109380000D02*
X117910000Y-110650000D01*
X104000000Y-112810000D02*
X110000000Y-112810000D01*
X115530000Y-123730000D02*
X115142929Y-123730000D01*
X110000000Y-111030000D02*
X104000000Y-111030000D01*
X110000000Y-110730000D02*
X104000000Y-110730000D01*
X110000000Y-110970000D02*
X104000000Y-110970000D01*
X112660000Y-114460000D02*
X110000000Y-114460000D01*
X115597071Y-120430000D02*
X115142929Y-120430000D01*
X110000000Y-110370000D02*
X104000000Y-110370000D01*
X104000000Y-117890000D02*
X110000000Y-117890000D01*
X104000000Y-120430000D02*
X110000000Y-120430000D01*
X113057071Y-110270000D02*
X112660000Y-110270000D01*
X110000000Y-121190000D02*
X104000000Y-121190000D01*
X112660000Y-117000000D02*
X110000000Y-117000000D01*
X104000000Y-115350000D02*
X110000000Y-115350000D01*
%TO.C,J2*%
X147910000Y-111950000D02*
X147910000Y-124710000D01*
X147910000Y-124710000D02*
X153110000Y-124710000D01*
X153110000Y-109350000D02*
X153110000Y-124710000D01*
X150510000Y-111950000D02*
X150510000Y-109350000D01*
X147910000Y-111950000D02*
X150510000Y-111950000D01*
X147910000Y-110680000D02*
X147910000Y-109350000D01*
X147910000Y-109350000D02*
X149240000Y-109350000D01*
X150510000Y-109350000D02*
X153110000Y-109350000D01*
%TO.C,SW1*%
X161330000Y-120185000D02*
X161330000Y-121455000D01*
X161330000Y-118005000D02*
X162683333Y-118005000D01*
X161330000Y-116375000D02*
X165390000Y-116375000D01*
X162683333Y-115105000D02*
X162683333Y-116375000D01*
X158410000Y-123240000D02*
X168310000Y-123240000D01*
X161330000Y-116065000D02*
X162683333Y-116065000D01*
X161330000Y-120905000D02*
X162683333Y-120905000D01*
X165390000Y-121455000D02*
X165390000Y-120185000D01*
X161330000Y-120785000D02*
X162683333Y-120785000D01*
X165390000Y-115105000D02*
X161330000Y-115105000D01*
X165390000Y-120185000D02*
X161330000Y-120185000D01*
X161330000Y-113045000D02*
X162683333Y-113045000D01*
X158170000Y-110540000D02*
X159554000Y-110540000D01*
X158410000Y-110780000D02*
X158410000Y-123240000D01*
X161330000Y-120425000D02*
X162683333Y-120425000D01*
X165390000Y-117645000D02*
X161330000Y-117645000D01*
X161330000Y-117645000D02*
X161330000Y-118915000D01*
X161330000Y-112925000D02*
X162683333Y-112925000D01*
X161330000Y-115585000D02*
X162683333Y-115585000D01*
X161330000Y-121265000D02*
X162683333Y-121265000D01*
X161330000Y-121385000D02*
X162683333Y-121385000D01*
X161330000Y-115945000D02*
X162683333Y-115945000D01*
X161330000Y-120665000D02*
X162683333Y-120665000D01*
X158170000Y-110540000D02*
X158170000Y-111923000D01*
X161330000Y-115105000D02*
X161330000Y-116375000D01*
X161330000Y-113835000D02*
X165390000Y-113835000D01*
X162683333Y-112565000D02*
X162683333Y-113835000D01*
X161330000Y-112685000D02*
X162683333Y-112685000D01*
X161330000Y-117765000D02*
X162683333Y-117765000D01*
X161330000Y-121025000D02*
X162683333Y-121025000D01*
X161330000Y-113165000D02*
X162683333Y-113165000D01*
X161330000Y-112805000D02*
X162683333Y-112805000D01*
X161330000Y-118365000D02*
X162683333Y-118365000D01*
X161330000Y-118915000D02*
X165390000Y-118915000D01*
X161330000Y-115825000D02*
X162683333Y-115825000D01*
X161330000Y-115345000D02*
X162683333Y-115345000D01*
X161330000Y-113405000D02*
X162683333Y-113405000D01*
X161330000Y-118125000D02*
X162683333Y-118125000D01*
X161330000Y-113765000D02*
X162683333Y-113765000D01*
X161330000Y-120545000D02*
X162683333Y-120545000D01*
X165390000Y-112565000D02*
X161330000Y-112565000D01*
X161330000Y-112565000D02*
X161330000Y-113835000D01*
X161330000Y-118605000D02*
X162683333Y-118605000D01*
X162683333Y-120185000D02*
X162683333Y-121455000D01*
X165390000Y-113835000D02*
X165390000Y-112565000D01*
X165390000Y-118915000D02*
X165390000Y-117645000D01*
X161330000Y-121145000D02*
X162683333Y-121145000D01*
X161330000Y-113645000D02*
X162683333Y-113645000D01*
X161330000Y-118725000D02*
X162683333Y-118725000D01*
X168310000Y-110780000D02*
X168310000Y-123240000D01*
X161330000Y-116305000D02*
X162683333Y-116305000D01*
X161330000Y-120305000D02*
X162683333Y-120305000D01*
X161330000Y-118845000D02*
X162683333Y-118845000D01*
X161330000Y-115465000D02*
X162683333Y-115465000D01*
X161330000Y-113285000D02*
X162683333Y-113285000D01*
X161330000Y-118245000D02*
X162683333Y-118245000D01*
X161330000Y-118485000D02*
X162683333Y-118485000D01*
X162683333Y-117645000D02*
X162683333Y-118915000D01*
X161330000Y-115225000D02*
X162683333Y-115225000D01*
X161330000Y-113525000D02*
X162683333Y-113525000D01*
X165390000Y-116375000D02*
X165390000Y-115105000D01*
X161330000Y-115705000D02*
X162683333Y-115705000D01*
X161330000Y-117885000D02*
X162683333Y-117885000D01*
X161330000Y-116185000D02*
X162683333Y-116185000D01*
X161330000Y-121455000D02*
X165390000Y-121455000D01*
X158410000Y-110780000D02*
X168310000Y-110780000D01*
%TO.C,PB3*%
X145190000Y-114000000D02*
X145190000Y-112500000D01*
X139440000Y-116500000D02*
X143940000Y-116500000D01*
X138190000Y-112500000D02*
X138190000Y-114000000D01*
X143940000Y-110000000D02*
X139440000Y-110000000D01*
%TO.C,PB4*%
X143940000Y-117500000D02*
X139440000Y-117500000D01*
X145190000Y-121500000D02*
X145190000Y-120000000D01*
X139440000Y-124000000D02*
X143940000Y-124000000D01*
X138190000Y-120000000D02*
X138190000Y-121500000D01*
%TD*%
M02*
