%TF.GenerationSoftware,KiCad,Pcbnew,6.0.4-6f826c9f35~116~ubuntu20.04.1*%
%TF.CreationDate,2022-04-18T14:11:44+07:00*%
%TF.ProjectId,pmod-thin-switches,706d6f64-2d74-4686-996e-2d7377697463,1.0*%
%TF.SameCoordinates,Original*%
%TF.FileFunction,OtherDrawing,Comment*%
%FSLAX46Y46*%
G04 Gerber Fmt 4.6, Leading zero omitted, Abs format (unit mm)*
G04 Created by KiCad (PCBNEW 6.0.4-6f826c9f35~116~ubuntu20.04.1) date 2022-04-18 14:11:44*
%MOMM*%
%LPD*%
G01*
G04 APERTURE LIST*
%ADD10C,0.150000*%
%ADD11C,0.100000*%
G04 APERTURE END LIST*
D10*
X93702380Y-121047619D02*
X93702380Y-121619047D01*
X93702380Y-121333333D02*
X92702380Y-121333333D01*
X92845238Y-121428571D01*
X92940476Y-121523809D01*
X92988095Y-121619047D01*
X92702380Y-120190476D02*
X92702380Y-120380952D01*
X92750000Y-120476190D01*
X92797619Y-120523809D01*
X92940476Y-120619047D01*
X93130952Y-120666666D01*
X93511904Y-120666666D01*
X93607142Y-120619047D01*
X93654761Y-120571428D01*
X93702380Y-120476190D01*
X93702380Y-120285714D01*
X93654761Y-120190476D01*
X93607142Y-120142857D01*
X93511904Y-120095238D01*
X93273809Y-120095238D01*
X93178571Y-120142857D01*
X93130952Y-120190476D01*
X93083333Y-120285714D01*
X93083333Y-120476190D01*
X93130952Y-120571428D01*
X93178571Y-120619047D01*
X93273809Y-120666666D01*
X93607142Y-119666666D02*
X93654761Y-119619047D01*
X93702380Y-119666666D01*
X93654761Y-119714285D01*
X93607142Y-119666666D01*
X93702380Y-119666666D01*
X92702380Y-119000000D02*
X92702380Y-118904761D01*
X92750000Y-118809523D01*
X92797619Y-118761904D01*
X92892857Y-118714285D01*
X93083333Y-118666666D01*
X93321428Y-118666666D01*
X93511904Y-118714285D01*
X93607142Y-118761904D01*
X93654761Y-118809523D01*
X93702380Y-118904761D01*
X93702380Y-119000000D01*
X93654761Y-119095238D01*
X93607142Y-119142857D01*
X93511904Y-119190476D01*
X93321428Y-119238095D01*
X93083333Y-119238095D01*
X92892857Y-119190476D01*
X92797619Y-119142857D01*
X92750000Y-119095238D01*
X92702380Y-119000000D01*
X92702380Y-118047619D02*
X92702380Y-117952380D01*
X92750000Y-117857142D01*
X92797619Y-117809523D01*
X92892857Y-117761904D01*
X93083333Y-117714285D01*
X93321428Y-117714285D01*
X93511904Y-117761904D01*
X93607142Y-117809523D01*
X93654761Y-117857142D01*
X93702380Y-117952380D01*
X93702380Y-118047619D01*
X93654761Y-118142857D01*
X93607142Y-118190476D01*
X93511904Y-118238095D01*
X93321428Y-118285714D01*
X93083333Y-118285714D01*
X92892857Y-118238095D01*
X92797619Y-118190476D01*
X92750000Y-118142857D01*
X92702380Y-118047619D01*
X92702380Y-117095238D02*
X92702380Y-117000000D01*
X92750000Y-116904761D01*
X92797619Y-116857142D01*
X92892857Y-116809523D01*
X93083333Y-116761904D01*
X93321428Y-116761904D01*
X93511904Y-116809523D01*
X93607142Y-116857142D01*
X93654761Y-116904761D01*
X93702380Y-117000000D01*
X93702380Y-117095238D01*
X93654761Y-117190476D01*
X93607142Y-117238095D01*
X93511904Y-117285714D01*
X93321428Y-117333333D01*
X93083333Y-117333333D01*
X92892857Y-117285714D01*
X92797619Y-117238095D01*
X92750000Y-117190476D01*
X92702380Y-117095238D01*
X92702380Y-116142857D02*
X92702380Y-116047619D01*
X92750000Y-115952380D01*
X92797619Y-115904761D01*
X92892857Y-115857142D01*
X93083333Y-115809523D01*
X93321428Y-115809523D01*
X93511904Y-115857142D01*
X93607142Y-115904761D01*
X93654761Y-115952380D01*
X93702380Y-116047619D01*
X93702380Y-116142857D01*
X93654761Y-116238095D01*
X93607142Y-116285714D01*
X93511904Y-116333333D01*
X93321428Y-116380952D01*
X93083333Y-116380952D01*
X92892857Y-116333333D01*
X92797619Y-116285714D01*
X92750000Y-116238095D01*
X92702380Y-116142857D01*
X93702380Y-114619047D02*
X93035714Y-114619047D01*
X93130952Y-114619047D02*
X93083333Y-114571428D01*
X93035714Y-114476190D01*
X93035714Y-114333333D01*
X93083333Y-114238095D01*
X93178571Y-114190476D01*
X93702380Y-114190476D01*
X93178571Y-114190476D02*
X93083333Y-114142857D01*
X93035714Y-114047619D01*
X93035714Y-113904761D01*
X93083333Y-113809523D01*
X93178571Y-113761904D01*
X93702380Y-113761904D01*
X93702380Y-113285714D02*
X93035714Y-113285714D01*
X93130952Y-113285714D02*
X93083333Y-113238095D01*
X93035714Y-113142857D01*
X93035714Y-113000000D01*
X93083333Y-112904761D01*
X93178571Y-112857142D01*
X93702380Y-112857142D01*
X93178571Y-112857142D02*
X93083333Y-112809523D01*
X93035714Y-112714285D01*
X93035714Y-112571428D01*
X93083333Y-112476190D01*
X93178571Y-112428571D01*
X93702380Y-112428571D01*
D11*
X109500000Y-109000000D02*
X93813580Y-109000000D01*
X109500000Y-125000000D02*
X93813580Y-125000000D01*
X94400000Y-109000000D02*
X94400000Y-125000000D01*
X94400000Y-109000000D02*
X94400000Y-125000000D01*
X94400000Y-109000000D02*
X93813579Y-110126504D01*
X94400000Y-109000000D02*
X94986421Y-110126504D01*
X94400000Y-125000000D02*
X94986421Y-123873496D01*
X94400000Y-125000000D02*
X93813579Y-123873496D01*
D10*
X135861034Y-132769494D02*
X135670558Y-132769589D01*
X135575344Y-132817256D01*
X135527748Y-132864899D01*
X135432582Y-133007803D01*
X135385058Y-133198303D01*
X135385248Y-133579256D01*
X135432915Y-133674470D01*
X135480558Y-133722065D01*
X135575820Y-133769637D01*
X135766296Y-133769541D01*
X135861510Y-133721875D01*
X135909105Y-133674232D01*
X135956677Y-133578970D01*
X135956558Y-133340875D01*
X135908891Y-133245661D01*
X135861248Y-133198065D01*
X135765986Y-133150494D01*
X135575510Y-133150589D01*
X135480296Y-133198256D01*
X135432701Y-133245899D01*
X135385129Y-133341161D01*
X136575320Y-132769137D02*
X136670558Y-132769089D01*
X136765820Y-132816661D01*
X136813463Y-132864256D01*
X136861129Y-132959470D01*
X136908843Y-133149922D01*
X136908963Y-133388018D01*
X136861439Y-133578518D01*
X136813867Y-133673780D01*
X136766272Y-133721422D01*
X136671058Y-133769089D01*
X136575820Y-133769137D01*
X136480558Y-133721565D01*
X136432915Y-133673970D01*
X136385248Y-133578756D01*
X136337534Y-133388303D01*
X136337415Y-133150208D01*
X136384939Y-132959708D01*
X136432510Y-132864446D01*
X136480105Y-132816803D01*
X136575320Y-132769137D01*
X137337677Y-133673518D02*
X137385320Y-133721113D01*
X137337724Y-133768756D01*
X137290082Y-133721160D01*
X137337677Y-133673518D01*
X137337724Y-133768756D01*
X138003891Y-132768423D02*
X138099129Y-132768375D01*
X138194391Y-132815946D01*
X138242034Y-132863542D01*
X138289700Y-132958756D01*
X138337415Y-133149208D01*
X138337534Y-133387303D01*
X138290010Y-133577803D01*
X138242439Y-133673065D01*
X138194843Y-133720708D01*
X138099629Y-133768375D01*
X138004391Y-133768422D01*
X137909129Y-133720851D01*
X137861486Y-133673256D01*
X137813820Y-133578041D01*
X137766105Y-133387589D01*
X137765986Y-133149494D01*
X137813510Y-132958994D01*
X137861081Y-132863732D01*
X137908677Y-132816089D01*
X138003891Y-132768423D01*
X138956272Y-132767946D02*
X139051510Y-132767899D01*
X139146772Y-132815470D01*
X139194415Y-132863065D01*
X139242081Y-132958280D01*
X139289796Y-133148732D01*
X139289915Y-133386827D01*
X139242391Y-133577327D01*
X139194819Y-133672589D01*
X139147224Y-133720232D01*
X139052010Y-133767899D01*
X138956772Y-133767946D01*
X138861510Y-133720375D01*
X138813867Y-133672780D01*
X138766200Y-133577565D01*
X138718486Y-133387113D01*
X138718367Y-133149018D01*
X138765891Y-132958518D01*
X138813462Y-132863256D01*
X138861058Y-132815613D01*
X138956272Y-132767946D01*
X139908653Y-132767470D02*
X140003891Y-132767423D01*
X140099153Y-132814994D01*
X140146795Y-132862589D01*
X140194462Y-132957803D01*
X140242176Y-133148256D01*
X140242295Y-133386351D01*
X140194772Y-133576851D01*
X140147200Y-133672113D01*
X140099605Y-133719756D01*
X140004391Y-133767422D01*
X139909153Y-133767470D01*
X139813891Y-133719899D01*
X139766248Y-133672303D01*
X139718581Y-133577089D01*
X139670867Y-133386637D01*
X139670748Y-133148542D01*
X139718272Y-132958042D01*
X139765843Y-132862780D01*
X139813438Y-132815137D01*
X139908653Y-132767470D01*
X140861033Y-132766994D02*
X140956272Y-132766946D01*
X141051533Y-132814518D01*
X141099176Y-132862113D01*
X141146843Y-132957327D01*
X141194557Y-133147780D01*
X141194676Y-133385875D01*
X141147152Y-133576375D01*
X141099581Y-133671637D01*
X141051986Y-133719280D01*
X140956772Y-133766946D01*
X140861533Y-133766994D01*
X140766272Y-133719422D01*
X140718629Y-133671827D01*
X140670962Y-133576613D01*
X140623248Y-133386161D01*
X140623129Y-133148065D01*
X140670653Y-132957565D01*
X140718224Y-132862303D01*
X140765819Y-132814661D01*
X140861033Y-132766994D01*
X142385343Y-133766232D02*
X142385009Y-133099565D01*
X142385057Y-133194803D02*
X142432652Y-133147161D01*
X142527867Y-133099494D01*
X142670724Y-133099422D01*
X142765986Y-133146994D01*
X142813652Y-133242208D01*
X142813914Y-133766018D01*
X142813652Y-133242208D02*
X142861224Y-133146946D01*
X142956438Y-133099280D01*
X143099295Y-133099208D01*
X143194557Y-133146780D01*
X143242224Y-133241994D01*
X143242486Y-133765803D01*
X143718676Y-133765565D02*
X143718343Y-133098899D01*
X143718390Y-133194137D02*
X143765985Y-133146494D01*
X143861200Y-133098827D01*
X144004057Y-133098756D01*
X144099319Y-133146327D01*
X144146985Y-133241542D01*
X144147247Y-133765351D01*
X144146985Y-133241542D02*
X144194557Y-133146280D01*
X144289771Y-133098613D01*
X144432628Y-133098542D01*
X144527890Y-133146113D01*
X144575557Y-133241327D01*
X144575819Y-133765137D01*
X110000250Y-125500000D02*
X110005033Y-135066462D01*
X170000250Y-125470000D02*
X170005033Y-135036462D01*
X110004740Y-134480042D02*
X170004740Y-134450042D01*
X110004740Y-134480042D02*
X170004740Y-134450042D01*
X110004740Y-134480042D02*
X111131537Y-135065899D01*
X110004740Y-134480042D02*
X111130950Y-133893058D01*
X170004740Y-134450042D02*
X168877943Y-133864185D01*
X170004740Y-134450042D02*
X168878530Y-135037026D01*
M02*
