%TF.GenerationSoftware,KiCad,Pcbnew,6.0.4-6f826c9f35~116~ubuntu20.04.1*%
%TF.CreationDate,2022-04-18T14:11:44+07:00*%
%TF.ProjectId,pmod-thin-switches,706d6f64-2d74-4686-996e-2d7377697463,1.0*%
%TF.SameCoordinates,Original*%
%TF.FileFunction,Copper,L1,Top*%
%TF.FilePolarity,Positive*%
%FSLAX46Y46*%
G04 Gerber Fmt 4.6, Leading zero omitted, Abs format (unit mm)*
G04 Created by KiCad (PCBNEW 6.0.4-6f826c9f35~116~ubuntu20.04.1) date 2022-04-18 14:11:44*
%MOMM*%
%LPD*%
G01*
G04 APERTURE LIST*
%TA.AperFunction,ComponentPad*%
%ADD10C,2.000000*%
%TD*%
%TA.AperFunction,ComponentPad*%
%ADD11R,1.700000X1.700000*%
%TD*%
%TA.AperFunction,ComponentPad*%
%ADD12O,1.700000X1.700000*%
%TD*%
%TA.AperFunction,ComponentPad*%
%ADD13C,1.700000*%
%TD*%
%TA.AperFunction,ComponentPad*%
%ADD14R,1.600000X1.600000*%
%TD*%
%TA.AperFunction,ComponentPad*%
%ADD15O,1.600000X1.600000*%
%TD*%
%TA.AperFunction,ViaPad*%
%ADD16C,0.685800*%
%TD*%
%TA.AperFunction,Conductor*%
%ADD17C,0.762000*%
%TD*%
%TA.AperFunction,Conductor*%
%ADD18C,0.254000*%
%TD*%
%TA.AperFunction,Conductor*%
%ADD19C,0.152400*%
%TD*%
G04 APERTURE END LIST*
D10*
%TO.P,PB1,1,1*%
%TO.N,GND*%
X128940000Y-115500000D03*
X135440000Y-115500000D03*
%TO.P,PB1,2,2*%
%TO.N,/P1S*%
X135440000Y-111000000D03*
X128940000Y-111000000D03*
%TD*%
%TO.P,PB2,1,1*%
%TO.N,GND*%
X128940000Y-123000000D03*
X135440000Y-123000000D03*
%TO.P,PB2,2,2*%
%TO.N,/P2S*%
X135440000Y-118500000D03*
X128940000Y-118500000D03*
%TD*%
D11*
%TO.P,J1,1,Pin_1*%
%TO.N,/S1J*%
X116640000Y-110650000D03*
D12*
%TO.P,J1,2,Pin_2*%
%TO.N,/S2J*%
X116640000Y-113190000D03*
%TO.P,J1,3,Pin_3*%
%TO.N,/S3J*%
X116640000Y-115730000D03*
%TO.P,J1,4,Pin_4*%
%TO.N,/S4J*%
X116640000Y-118270000D03*
%TO.P,J1,5,Pin_5*%
%TO.N,GND*%
X116640000Y-120810000D03*
D13*
%TO.P,J1,6,Pin_6*%
%TO.N,+3V3*%
X116640000Y-123350000D03*
%TO.P,J1,7,Pin_7*%
%TO.N,/P1S*%
X114100000Y-110650000D03*
D12*
%TO.P,J1,8,Pin_8*%
%TO.N,/P2S*%
X114100000Y-113190000D03*
%TO.P,J1,9,Pin_9*%
%TO.N,/P3S*%
X114100000Y-115730000D03*
%TO.P,J1,10,Pin_10*%
%TO.N,/P4S*%
X114100000Y-118270000D03*
%TO.P,J1,11,Pin_11*%
%TO.N,GND*%
X114100000Y-120810000D03*
%TO.P,J1,12,Pin_12*%
%TO.N,+3V3*%
X114100000Y-123350000D03*
%TD*%
D11*
%TO.P,J2,1,Pin_1*%
%TO.N,/S1J*%
X149240000Y-110680000D03*
D12*
%TO.P,J2,2,Pin_2*%
%TO.N,/S1S*%
X151780000Y-110680000D03*
%TO.P,J2,3,Pin_3*%
%TO.N,/S2J*%
X149240000Y-113220000D03*
%TO.P,J2,4,Pin_4*%
%TO.N,/S2S*%
X151780000Y-113220000D03*
%TO.P,J2,5,Pin_5*%
%TO.N,/S3J*%
X149240000Y-115760000D03*
%TO.P,J2,6,Pin_6*%
%TO.N,/S3S*%
X151780000Y-115760000D03*
%TO.P,J2,7,Pin_7*%
%TO.N,/S4J*%
X149240000Y-118300000D03*
%TO.P,J2,8,Pin_8*%
%TO.N,/S4S*%
X151780000Y-118300000D03*
%TO.P,J2,9,Pin_9*%
%TO.N,GND*%
X149240000Y-120840000D03*
%TO.P,J2,10,Pin_10*%
X151780000Y-120840000D03*
%TO.P,J2,11,Pin_11*%
%TO.N,+3V3*%
X149240000Y-123380000D03*
%TO.P,J2,12,Pin_12*%
X151780000Y-123380000D03*
%TD*%
D14*
%TO.P,SW1,1*%
%TO.N,+3V3*%
X159550000Y-113200000D03*
D15*
%TO.P,SW1,2*%
X159550000Y-115740000D03*
%TO.P,SW1,3*%
X159550000Y-118280000D03*
%TO.P,SW1,4*%
X159550000Y-120820000D03*
%TO.P,SW1,5*%
%TO.N,/S4S*%
X167170000Y-120820000D03*
%TO.P,SW1,6*%
%TO.N,/S3S*%
X167170000Y-118280000D03*
%TO.P,SW1,7*%
%TO.N,/S2S*%
X167170000Y-115740000D03*
%TO.P,SW1,8*%
%TO.N,/S1S*%
X167170000Y-113200000D03*
%TD*%
D10*
%TO.P,PB3,1,1*%
%TO.N,GND*%
X144940000Y-111000000D03*
X138440000Y-111000000D03*
%TO.P,PB3,2,2*%
%TO.N,/P3S*%
X144940000Y-115500000D03*
X138440000Y-115500000D03*
%TD*%
%TO.P,PB4,1,1*%
%TO.N,GND*%
X138440000Y-118500000D03*
X144940000Y-118500000D03*
%TO.P,PB4,2,2*%
%TO.N,/P4S*%
X144940000Y-123000000D03*
X138440000Y-123000000D03*
%TD*%
D16*
%TO.N,/P2S*%
X123340000Y-118490000D03*
%TO.N,/P3S*%
X121885000Y-116855000D03*
%TO.N,/P4S*%
X121740000Y-120410000D03*
%TD*%
D17*
%TO.N,GND*%
X118830000Y-123000000D02*
X116640000Y-120810000D01*
X149240000Y-121250000D02*
X149240000Y-120840000D01*
X128940000Y-123000000D02*
X118830000Y-123000000D01*
D18*
%TO.N,/P1S*%
X115228911Y-109521089D02*
X127461089Y-109521089D01*
X127461089Y-109521089D02*
X128940000Y-111000000D01*
X114100000Y-110650000D02*
X115228911Y-109521089D01*
X128940000Y-111000000D02*
X135440000Y-111000000D01*
%TO.N,/P2S*%
X118456522Y-118490000D02*
X117086522Y-117120000D01*
X114100000Y-113190000D02*
X115511089Y-114601089D01*
X128940000Y-118500000D02*
X123350000Y-118500000D01*
X128940000Y-118500000D02*
X135440000Y-118500000D01*
X115511089Y-116197611D02*
X116433478Y-117120000D01*
X117086522Y-117120000D02*
X116433478Y-117120000D01*
X115511089Y-114601089D02*
X115511089Y-116197611D01*
X123350000Y-118500000D02*
X123340000Y-118490000D01*
X123340000Y-118490000D02*
X118456522Y-118490000D01*
%TO.N,/P3S*%
X137090000Y-116850000D02*
X121890000Y-116850000D01*
X138440000Y-115500000D02*
X137090000Y-116850000D01*
X138440000Y-115500000D02*
X144940000Y-115500000D01*
%TO.N,/P4S*%
X117088911Y-119398911D02*
X115228911Y-119398911D01*
X121740000Y-120410000D02*
X118100000Y-120410000D01*
X138440000Y-123000000D02*
X135850000Y-120410000D01*
X118100000Y-120410000D02*
X117088911Y-119398911D01*
X135850000Y-120410000D02*
X121740000Y-120410000D01*
X115228911Y-119398911D02*
X114100000Y-118270000D01*
X138440000Y-123000000D02*
X144940000Y-123000000D01*
%TO.N,/S1J*%
X118268911Y-112278911D02*
X147641089Y-112278911D01*
X147641089Y-112278911D02*
X149240000Y-110680000D01*
X116640000Y-110650000D02*
X118268911Y-112278911D01*
%TO.N,/S2J*%
X116640000Y-113190000D02*
X149210000Y-113190000D01*
D19*
X149210000Y-113190000D02*
X149240000Y-113220000D01*
D18*
%TO.N,/S3J*%
X116640000Y-115730000D02*
X118148911Y-114221089D01*
X147701089Y-114221089D02*
X149240000Y-115760000D01*
X118148911Y-114221089D02*
X147701089Y-114221089D01*
%TO.N,/S4J*%
X118148911Y-119778911D02*
X116640000Y-118270000D01*
X149240000Y-118300000D02*
X147761089Y-119778911D01*
X147761089Y-119778911D02*
X118148911Y-119778911D01*
D17*
%TO.N,+3V3*%
X114100000Y-123350000D02*
X116640000Y-123350000D01*
D18*
%TO.N,/S1S*%
X151780000Y-110680000D02*
X164650000Y-110680000D01*
X164650000Y-110680000D02*
X167170000Y-113200000D01*
%TO.N,/S2S*%
X151780000Y-113220000D02*
X152838911Y-114278911D01*
X165708911Y-114278911D02*
X167170000Y-115740000D01*
X152838911Y-114278911D02*
X165708911Y-114278911D01*
%TO.N,/S3S*%
X151780000Y-115760000D02*
X152838911Y-116818911D01*
X152838911Y-116818911D02*
X165708911Y-116818911D01*
X165708911Y-116818911D02*
X167170000Y-118280000D01*
%TO.N,/S4S*%
X152838911Y-119358911D02*
X165708911Y-119358911D01*
X165708911Y-119358911D02*
X167170000Y-120820000D01*
X151780000Y-118300000D02*
X152838911Y-119358911D01*
%TD*%
%TA.AperFunction,Conductor*%
%TO.N,GND*%
G36*
X168944449Y-109516172D02*
G01*
X168963776Y-109517672D01*
X168978747Y-109520003D01*
X168978751Y-109520003D01*
X168987621Y-109521384D01*
X168996524Y-109520220D01*
X168996526Y-109520220D01*
X168996650Y-109520204D01*
X169027088Y-109519933D01*
X169059951Y-109523635D01*
X169089158Y-109526926D01*
X169116666Y-109533204D01*
X169193756Y-109560179D01*
X169219176Y-109572420D01*
X169288326Y-109615869D01*
X169310386Y-109633461D01*
X169368135Y-109691209D01*
X169385727Y-109713269D01*
X169429178Y-109782421D01*
X169441420Y-109807841D01*
X169468393Y-109884924D01*
X169474672Y-109912432D01*
X169480919Y-109967872D01*
X169480611Y-109983564D01*
X169481693Y-109983577D01*
X169481584Y-109992546D01*
X169480202Y-110001421D01*
X169481367Y-110010326D01*
X169484329Y-110032980D01*
X169485393Y-110049318D01*
X169485393Y-123958330D01*
X169483893Y-123977715D01*
X169481583Y-123992548D01*
X169481583Y-123992552D01*
X169480202Y-124001421D01*
X169481382Y-124010446D01*
X169481654Y-124040881D01*
X169477013Y-124082077D01*
X169474661Y-124102955D01*
X169468382Y-124130464D01*
X169441408Y-124207552D01*
X169429169Y-124232968D01*
X169385714Y-124302125D01*
X169368125Y-124324180D01*
X169310380Y-124381925D01*
X169288325Y-124399514D01*
X169219168Y-124442969D01*
X169193752Y-124455208D01*
X169116664Y-124482182D01*
X169089159Y-124488460D01*
X169033673Y-124494712D01*
X169018040Y-124494045D01*
X169018022Y-124495494D01*
X169009049Y-124495384D01*
X169000173Y-124494002D01*
X168968744Y-124498111D01*
X168952362Y-124499174D01*
X158033344Y-124494393D01*
X152893531Y-124492142D01*
X152825420Y-124472110D01*
X152778950Y-124418434D01*
X152768877Y-124348156D01*
X152798399Y-124283588D01*
X152804648Y-124276891D01*
X152814430Y-124267144D01*
X152814440Y-124267132D01*
X152818096Y-124263489D01*
X152848653Y-124220965D01*
X152945435Y-124086277D01*
X152948453Y-124082077D01*
X152956294Y-124066213D01*
X153045136Y-123886453D01*
X153045137Y-123886451D01*
X153047430Y-123881811D01*
X153103986Y-123695665D01*
X153110865Y-123673023D01*
X153110865Y-123673021D01*
X153112370Y-123668069D01*
X153141529Y-123446590D01*
X153143156Y-123380000D01*
X153124852Y-123157361D01*
X153070431Y-122940702D01*
X152981354Y-122735840D01*
X152860014Y-122548277D01*
X152709670Y-122383051D01*
X152705619Y-122379852D01*
X152705615Y-122379848D01*
X152538414Y-122247800D01*
X152538410Y-122247798D01*
X152534359Y-122244598D01*
X152492569Y-122221529D01*
X152442598Y-122171097D01*
X152427826Y-122101654D01*
X152452942Y-122035248D01*
X152480294Y-122008641D01*
X152655328Y-121883792D01*
X152663200Y-121877139D01*
X152814052Y-121726812D01*
X152820730Y-121718965D01*
X152945003Y-121546020D01*
X152950313Y-121537183D01*
X153044670Y-121346267D01*
X153048469Y-121336672D01*
X153110377Y-121132910D01*
X153112555Y-121122837D01*
X153113986Y-121111962D01*
X153111775Y-121097778D01*
X153098617Y-121094000D01*
X147923225Y-121094000D01*
X147909694Y-121097973D01*
X147908257Y-121107966D01*
X147938565Y-121242446D01*
X147941645Y-121252275D01*
X148021770Y-121449603D01*
X148026413Y-121458794D01*
X148137694Y-121640388D01*
X148143777Y-121648699D01*
X148283213Y-121809667D01*
X148290580Y-121816883D01*
X148454434Y-121952916D01*
X148462881Y-121958831D01*
X148531969Y-121999203D01*
X148580693Y-122050842D01*
X148593764Y-122120625D01*
X148567033Y-122186396D01*
X148526584Y-122219752D01*
X148513607Y-122226507D01*
X148509474Y-122229610D01*
X148509471Y-122229612D01*
X148339100Y-122357530D01*
X148334965Y-122360635D01*
X148331393Y-122364373D01*
X148242895Y-122456981D01*
X148180629Y-122522138D01*
X148177720Y-122526403D01*
X148177714Y-122526411D01*
X148170342Y-122537218D01*
X148054743Y-122706680D01*
X147960688Y-122909305D01*
X147900989Y-123124570D01*
X147877251Y-123346695D01*
X147877548Y-123351848D01*
X147877548Y-123351851D01*
X147889812Y-123564547D01*
X147890110Y-123569715D01*
X147891247Y-123574761D01*
X147891248Y-123574767D01*
X147907760Y-123648034D01*
X147939222Y-123787639D01*
X148000673Y-123938976D01*
X148018261Y-123982289D01*
X148023266Y-123994616D01*
X148067141Y-124066213D01*
X148137291Y-124180688D01*
X148139987Y-124185088D01*
X148143365Y-124188988D01*
X148143366Y-124188989D01*
X148223551Y-124281557D01*
X148253033Y-124346142D01*
X148242918Y-124416415D01*
X148196417Y-124470063D01*
X148128258Y-124490054D01*
X145843882Y-124489054D01*
X145775771Y-124469022D01*
X145729301Y-124415346D01*
X145719228Y-124345068D01*
X145748750Y-124280500D01*
X145778103Y-124255622D01*
X145825193Y-124226765D01*
X145825203Y-124226758D01*
X145829416Y-124224176D01*
X146009969Y-124069969D01*
X146164176Y-123889416D01*
X146166755Y-123885208D01*
X146166759Y-123885202D01*
X146285654Y-123691183D01*
X146288240Y-123686963D01*
X146301272Y-123655502D01*
X146377211Y-123472167D01*
X146377212Y-123472165D01*
X146379105Y-123467594D01*
X146400940Y-123376646D01*
X146433380Y-123241524D01*
X146433381Y-123241518D01*
X146434535Y-123236711D01*
X146453165Y-123000000D01*
X146434535Y-122763289D01*
X146429086Y-122740590D01*
X146380260Y-122537218D01*
X146379105Y-122532406D01*
X146376622Y-122526411D01*
X146290135Y-122317611D01*
X146290133Y-122317607D01*
X146288240Y-122313037D01*
X146248263Y-122247800D01*
X146166759Y-122114798D01*
X146166755Y-122114792D01*
X146164176Y-122110584D01*
X146009969Y-121930031D01*
X145829416Y-121775824D01*
X145825208Y-121773245D01*
X145825202Y-121773241D01*
X145631183Y-121654346D01*
X145626963Y-121651760D01*
X145622393Y-121649867D01*
X145622389Y-121649865D01*
X145412167Y-121562789D01*
X145412165Y-121562788D01*
X145407594Y-121560895D01*
X145308826Y-121537183D01*
X145181524Y-121506620D01*
X145181518Y-121506619D01*
X145176711Y-121505465D01*
X144940000Y-121486835D01*
X144703289Y-121505465D01*
X144698482Y-121506619D01*
X144698476Y-121506620D01*
X144571174Y-121537183D01*
X144472406Y-121560895D01*
X144467835Y-121562788D01*
X144467833Y-121562789D01*
X144257611Y-121649865D01*
X144257607Y-121649867D01*
X144253037Y-121651760D01*
X144248817Y-121654346D01*
X144054798Y-121773241D01*
X144054792Y-121773245D01*
X144050584Y-121775824D01*
X143870031Y-121930031D01*
X143715824Y-122110584D01*
X143631738Y-122247800D01*
X143597093Y-122304335D01*
X143544445Y-122351966D01*
X143489660Y-122364500D01*
X139890340Y-122364500D01*
X139822219Y-122344498D01*
X139782907Y-122304335D01*
X139748263Y-122247800D01*
X139664176Y-122110584D01*
X139509969Y-121930031D01*
X139329416Y-121775824D01*
X139325208Y-121773245D01*
X139325202Y-121773241D01*
X139131183Y-121654346D01*
X139126963Y-121651760D01*
X139122393Y-121649867D01*
X139122389Y-121649865D01*
X138912167Y-121562789D01*
X138912165Y-121562788D01*
X138907594Y-121560895D01*
X138808826Y-121537183D01*
X138681524Y-121506620D01*
X138681518Y-121506619D01*
X138676711Y-121505465D01*
X138440000Y-121486835D01*
X138203289Y-121505465D01*
X138198482Y-121506619D01*
X138198476Y-121506620D01*
X137982330Y-121558512D01*
X137911422Y-121554965D01*
X137863821Y-121525088D01*
X136968239Y-120629506D01*
X136934213Y-120567194D01*
X136939278Y-120496379D01*
X136981825Y-120439543D01*
X137048345Y-120414732D01*
X137057334Y-120414411D01*
X147682069Y-120414411D01*
X147693303Y-120414941D01*
X147700808Y-120416619D01*
X147769101Y-120414473D01*
X147773058Y-120414411D01*
X147782999Y-120414411D01*
X147851120Y-120434413D01*
X147897613Y-120488069D01*
X147907717Y-120558343D01*
X147904417Y-120574082D01*
X147904389Y-120574184D01*
X147905912Y-120582607D01*
X147918292Y-120586000D01*
X153098344Y-120586000D01*
X153111875Y-120582027D01*
X153113180Y-120572947D01*
X153071214Y-120405875D01*
X153067894Y-120396124D01*
X152982972Y-120200814D01*
X152978106Y-120191740D01*
X152976239Y-120188854D01*
X152975842Y-120187518D01*
X152975661Y-120187180D01*
X152975731Y-120187143D01*
X152956030Y-120120794D01*
X152975824Y-120052613D01*
X153029338Y-120005957D01*
X153082029Y-119994411D01*
X158293428Y-119994411D01*
X158361549Y-120014413D01*
X158408042Y-120068069D01*
X158418146Y-120138343D01*
X158407623Y-120173660D01*
X158315716Y-120370757D01*
X158314294Y-120376065D01*
X158314293Y-120376067D01*
X158258041Y-120586000D01*
X158256457Y-120591913D01*
X158236502Y-120820000D01*
X158256457Y-121048087D01*
X158257881Y-121053400D01*
X158257881Y-121053402D01*
X158272502Y-121107966D01*
X158315716Y-121269243D01*
X158318039Y-121274224D01*
X158318039Y-121274225D01*
X158410151Y-121471762D01*
X158410154Y-121471767D01*
X158412477Y-121476749D01*
X158460981Y-121546020D01*
X158527059Y-121640388D01*
X158543802Y-121664300D01*
X158705700Y-121826198D01*
X158710208Y-121829355D01*
X158710211Y-121829357D01*
X158745108Y-121853792D01*
X158893251Y-121957523D01*
X158898233Y-121959846D01*
X158898238Y-121959849D01*
X159095775Y-122051961D01*
X159100757Y-122054284D01*
X159106065Y-122055706D01*
X159106067Y-122055707D01*
X159316598Y-122112119D01*
X159316600Y-122112119D01*
X159321913Y-122113543D01*
X159550000Y-122133498D01*
X159778087Y-122113543D01*
X159783400Y-122112119D01*
X159783402Y-122112119D01*
X159993933Y-122055707D01*
X159993935Y-122055706D01*
X159999243Y-122054284D01*
X160004225Y-122051961D01*
X160201762Y-121959849D01*
X160201767Y-121959846D01*
X160206749Y-121957523D01*
X160354892Y-121853792D01*
X160389789Y-121829357D01*
X160389792Y-121829355D01*
X160394300Y-121826198D01*
X160556198Y-121664300D01*
X160572942Y-121640388D01*
X160639019Y-121546020D01*
X160687523Y-121476749D01*
X160689846Y-121471767D01*
X160689849Y-121471762D01*
X160781961Y-121274225D01*
X160781961Y-121274224D01*
X160784284Y-121269243D01*
X160827499Y-121107966D01*
X160842119Y-121053402D01*
X160842119Y-121053400D01*
X160843543Y-121048087D01*
X160863498Y-120820000D01*
X160843543Y-120591913D01*
X160841959Y-120586000D01*
X160785707Y-120376067D01*
X160785706Y-120376065D01*
X160784284Y-120370757D01*
X160692377Y-120173660D01*
X160681716Y-120103469D01*
X160710696Y-120038656D01*
X160770116Y-119999800D01*
X160806572Y-119994411D01*
X165393489Y-119994411D01*
X165461610Y-120014413D01*
X165482584Y-120031316D01*
X165860250Y-120408982D01*
X165894276Y-120471294D01*
X165892862Y-120530688D01*
X165878041Y-120586000D01*
X165876457Y-120591913D01*
X165856502Y-120820000D01*
X165876457Y-121048087D01*
X165877881Y-121053400D01*
X165877881Y-121053402D01*
X165892502Y-121107966D01*
X165935716Y-121269243D01*
X165938039Y-121274224D01*
X165938039Y-121274225D01*
X166030151Y-121471762D01*
X166030154Y-121471767D01*
X166032477Y-121476749D01*
X166080981Y-121546020D01*
X166147059Y-121640388D01*
X166163802Y-121664300D01*
X166325700Y-121826198D01*
X166330208Y-121829355D01*
X166330211Y-121829357D01*
X166365108Y-121853792D01*
X166513251Y-121957523D01*
X166518233Y-121959846D01*
X166518238Y-121959849D01*
X166715775Y-122051961D01*
X166720757Y-122054284D01*
X166726065Y-122055706D01*
X166726067Y-122055707D01*
X166936598Y-122112119D01*
X166936600Y-122112119D01*
X166941913Y-122113543D01*
X167170000Y-122133498D01*
X167398087Y-122113543D01*
X167403400Y-122112119D01*
X167403402Y-122112119D01*
X167613933Y-122055707D01*
X167613935Y-122055706D01*
X167619243Y-122054284D01*
X167624225Y-122051961D01*
X167821762Y-121959849D01*
X167821767Y-121959846D01*
X167826749Y-121957523D01*
X167974892Y-121853792D01*
X168009789Y-121829357D01*
X168009792Y-121829355D01*
X168014300Y-121826198D01*
X168176198Y-121664300D01*
X168192942Y-121640388D01*
X168259019Y-121546020D01*
X168307523Y-121476749D01*
X168309846Y-121471767D01*
X168309849Y-121471762D01*
X168401961Y-121274225D01*
X168401961Y-121274224D01*
X168404284Y-121269243D01*
X168447499Y-121107966D01*
X168462119Y-121053402D01*
X168462119Y-121053400D01*
X168463543Y-121048087D01*
X168483498Y-120820000D01*
X168463543Y-120591913D01*
X168461959Y-120586000D01*
X168405707Y-120376067D01*
X168405706Y-120376065D01*
X168404284Y-120370757D01*
X168325039Y-120200814D01*
X168309849Y-120168238D01*
X168309846Y-120168233D01*
X168307523Y-120163251D01*
X168230053Y-120052613D01*
X168179357Y-119980211D01*
X168179355Y-119980208D01*
X168176198Y-119975700D01*
X168014300Y-119813802D01*
X168009792Y-119810645D01*
X168009789Y-119810643D01*
X167931611Y-119755902D01*
X167826749Y-119682477D01*
X167821767Y-119680154D01*
X167821762Y-119680151D01*
X167787543Y-119664195D01*
X167734258Y-119617278D01*
X167714797Y-119549001D01*
X167735339Y-119481041D01*
X167787543Y-119435805D01*
X167821762Y-119419849D01*
X167821767Y-119419846D01*
X167826749Y-119417523D01*
X167940992Y-119337529D01*
X168009789Y-119289357D01*
X168009792Y-119289355D01*
X168014300Y-119286198D01*
X168176198Y-119124300D01*
X168186919Y-119108990D01*
X168279118Y-118977315D01*
X168307523Y-118936749D01*
X168309846Y-118931767D01*
X168309849Y-118931762D01*
X168401961Y-118734225D01*
X168401961Y-118734224D01*
X168404284Y-118729243D01*
X168405997Y-118722852D01*
X168462119Y-118513402D01*
X168462119Y-118513400D01*
X168463543Y-118508087D01*
X168483498Y-118280000D01*
X168463543Y-118051913D01*
X168462119Y-118046598D01*
X168405707Y-117836067D01*
X168405706Y-117836065D01*
X168404284Y-117830757D01*
X168398154Y-117817611D01*
X168309849Y-117628238D01*
X168309846Y-117628233D01*
X168307523Y-117623251D01*
X168215059Y-117491199D01*
X168179357Y-117440211D01*
X168179355Y-117440208D01*
X168176198Y-117435700D01*
X168014300Y-117273802D01*
X168009792Y-117270645D01*
X168009789Y-117270643D01*
X167907643Y-117199120D01*
X167826749Y-117142477D01*
X167821767Y-117140154D01*
X167821762Y-117140151D01*
X167787543Y-117124195D01*
X167734258Y-117077278D01*
X167714797Y-117009001D01*
X167735339Y-116941041D01*
X167787543Y-116895805D01*
X167821762Y-116879849D01*
X167821767Y-116879846D01*
X167826749Y-116877523D01*
X167978632Y-116771173D01*
X168009789Y-116749357D01*
X168009792Y-116749355D01*
X168014300Y-116746198D01*
X168176198Y-116584300D01*
X168183987Y-116573177D01*
X168286034Y-116427438D01*
X168307523Y-116396749D01*
X168309846Y-116391767D01*
X168309849Y-116391762D01*
X168401961Y-116194225D01*
X168401961Y-116194224D01*
X168404284Y-116189243D01*
X168405997Y-116182852D01*
X168462119Y-115973402D01*
X168462119Y-115973400D01*
X168463543Y-115968087D01*
X168483498Y-115740000D01*
X168463543Y-115511913D01*
X168461672Y-115504930D01*
X168405707Y-115296067D01*
X168405706Y-115296065D01*
X168404284Y-115290757D01*
X168401961Y-115285775D01*
X168309849Y-115088238D01*
X168309846Y-115088233D01*
X168307523Y-115083251D01*
X168189300Y-114914411D01*
X168179357Y-114900211D01*
X168179355Y-114900208D01*
X168176198Y-114895700D01*
X168014300Y-114733802D01*
X168009792Y-114730645D01*
X168009789Y-114730643D01*
X167931611Y-114675902D01*
X167826749Y-114602477D01*
X167821767Y-114600154D01*
X167821762Y-114600151D01*
X167787543Y-114584195D01*
X167734258Y-114537278D01*
X167714797Y-114469001D01*
X167735339Y-114401041D01*
X167787543Y-114355805D01*
X167821762Y-114339849D01*
X167821767Y-114339846D01*
X167826749Y-114337523D01*
X167940992Y-114257529D01*
X168009789Y-114209357D01*
X168009792Y-114209355D01*
X168014300Y-114206198D01*
X168176198Y-114044300D01*
X168186919Y-114028990D01*
X168280638Y-113895144D01*
X168307523Y-113856749D01*
X168309846Y-113851767D01*
X168309849Y-113851762D01*
X168401961Y-113654225D01*
X168401961Y-113654224D01*
X168404284Y-113649243D01*
X168405997Y-113642852D01*
X168462119Y-113433402D01*
X168462119Y-113433400D01*
X168463543Y-113428087D01*
X168483498Y-113200000D01*
X168463543Y-112971913D01*
X168462119Y-112966598D01*
X168405707Y-112756067D01*
X168405706Y-112756065D01*
X168404284Y-112750757D01*
X168389618Y-112719305D01*
X168309849Y-112548238D01*
X168309846Y-112548233D01*
X168307523Y-112543251D01*
X168196329Y-112384450D01*
X168179357Y-112360211D01*
X168179355Y-112360208D01*
X168176198Y-112355700D01*
X168014300Y-112193802D01*
X168009792Y-112190645D01*
X168009789Y-112190643D01*
X167931611Y-112135902D01*
X167826749Y-112062477D01*
X167821767Y-112060154D01*
X167821762Y-112060151D01*
X167624225Y-111968039D01*
X167624224Y-111968039D01*
X167619243Y-111965716D01*
X167613935Y-111964294D01*
X167613933Y-111964293D01*
X167403402Y-111907881D01*
X167403400Y-111907881D01*
X167398087Y-111906457D01*
X167170000Y-111886502D01*
X166941913Y-111906457D01*
X166936602Y-111907880D01*
X166936591Y-111907882D01*
X166880690Y-111922861D01*
X166809713Y-111921172D01*
X166758983Y-111890250D01*
X165155250Y-110286517D01*
X165147674Y-110278191D01*
X165143553Y-110271697D01*
X165093734Y-110224914D01*
X165090893Y-110222160D01*
X165071094Y-110202361D01*
X165067969Y-110199937D01*
X165067960Y-110199929D01*
X165067874Y-110199863D01*
X165058849Y-110192155D01*
X165032285Y-110167210D01*
X165026506Y-110161783D01*
X165017059Y-110156589D01*
X165008671Y-110151978D01*
X164992153Y-110141127D01*
X164976067Y-110128650D01*
X164935334Y-110111024D01*
X164924686Y-110105807D01*
X164913058Y-110099415D01*
X164885803Y-110084431D01*
X164878128Y-110082460D01*
X164878122Y-110082458D01*
X164866089Y-110079369D01*
X164847387Y-110072966D01*
X164828708Y-110064883D01*
X164794872Y-110059524D01*
X164784873Y-110057940D01*
X164773260Y-110055535D01*
X164730282Y-110044500D01*
X164709935Y-110044500D01*
X164690224Y-110042949D01*
X164677950Y-110041005D01*
X164670121Y-110039765D01*
X164662229Y-110040511D01*
X164625944Y-110043941D01*
X164614086Y-110044500D01*
X153055511Y-110044500D01*
X152987390Y-110024498D01*
X152949719Y-109986940D01*
X152947544Y-109983577D01*
X152892392Y-109898326D01*
X152862822Y-109852617D01*
X152862820Y-109852614D01*
X152860014Y-109848277D01*
X152856540Y-109844459D01*
X152856533Y-109844450D01*
X152743216Y-109719917D01*
X152712164Y-109656071D01*
X152720559Y-109585572D01*
X152765735Y-109530804D01*
X152836464Y-109509117D01*
X168944449Y-109516172D01*
G37*
%TD.AperFunction*%
%TA.AperFunction,Conductor*%
G36*
X113033113Y-109491685D02*
G01*
X113101225Y-109511717D01*
X113147695Y-109565393D01*
X113157768Y-109635671D01*
X113124152Y-109704736D01*
X113052505Y-109779710D01*
X113040629Y-109792138D01*
X113037715Y-109796410D01*
X113037714Y-109796411D01*
X112999373Y-109852617D01*
X112914743Y-109976680D01*
X112878141Y-110055533D01*
X112833373Y-110151978D01*
X112820688Y-110179305D01*
X112760989Y-110394570D01*
X112737251Y-110616695D01*
X112737548Y-110621848D01*
X112737548Y-110621851D01*
X112745426Y-110758476D01*
X112750110Y-110839715D01*
X112751247Y-110844761D01*
X112751248Y-110844767D01*
X112775304Y-110951508D01*
X112799222Y-111057639D01*
X112847556Y-111176672D01*
X112869932Y-111231777D01*
X112883266Y-111264616D01*
X112999987Y-111455088D01*
X113003367Y-111458990D01*
X113006652Y-111462782D01*
X113146250Y-111623938D01*
X113318126Y-111766632D01*
X113363809Y-111793327D01*
X113391445Y-111809476D01*
X113440169Y-111861114D01*
X113453240Y-111930897D01*
X113426509Y-111996669D01*
X113386055Y-112030027D01*
X113373607Y-112036507D01*
X113369474Y-112039610D01*
X113369471Y-112039612D01*
X113199100Y-112167530D01*
X113194965Y-112170635D01*
X113040629Y-112332138D01*
X113037720Y-112336403D01*
X113037714Y-112336411D01*
X112999373Y-112392617D01*
X112914743Y-112516680D01*
X112820688Y-112719305D01*
X112760989Y-112934570D01*
X112737251Y-113156695D01*
X112737548Y-113161848D01*
X112737548Y-113161851D01*
X112744932Y-113289908D01*
X112750110Y-113379715D01*
X112751247Y-113384761D01*
X112751248Y-113384767D01*
X112759776Y-113422607D01*
X112799222Y-113597639D01*
X112883266Y-113804616D01*
X112999987Y-113995088D01*
X113146250Y-114163938D01*
X113318126Y-114306632D01*
X113363809Y-114333327D01*
X113391445Y-114349476D01*
X113440169Y-114401114D01*
X113453240Y-114470897D01*
X113426509Y-114536669D01*
X113386055Y-114570027D01*
X113373607Y-114576507D01*
X113369474Y-114579610D01*
X113369471Y-114579612D01*
X113305291Y-114627800D01*
X113194965Y-114710635D01*
X113040629Y-114872138D01*
X113037715Y-114876410D01*
X113037714Y-114876411D01*
X113000990Y-114930247D01*
X112914743Y-115056680D01*
X112820688Y-115259305D01*
X112760989Y-115474570D01*
X112737251Y-115696695D01*
X112737548Y-115701848D01*
X112737548Y-115701851D01*
X112744932Y-115829908D01*
X112750110Y-115919715D01*
X112751247Y-115924761D01*
X112751248Y-115924767D01*
X112769324Y-116004972D01*
X112799222Y-116137639D01*
X112883266Y-116344616D01*
X112999987Y-116535088D01*
X113146250Y-116703938D01*
X113318126Y-116846632D01*
X113343681Y-116861565D01*
X113391445Y-116889476D01*
X113440169Y-116941114D01*
X113453240Y-117010897D01*
X113426509Y-117076669D01*
X113386055Y-117110027D01*
X113373607Y-117116507D01*
X113369474Y-117119610D01*
X113369471Y-117119612D01*
X113250516Y-117208926D01*
X113194965Y-117250635D01*
X113129346Y-117319301D01*
X113097641Y-117352479D01*
X113040629Y-117412138D01*
X113037720Y-117416403D01*
X113037714Y-117416411D01*
X112989079Y-117487708D01*
X112914743Y-117596680D01*
X112895136Y-117638920D01*
X112844223Y-117748604D01*
X112820688Y-117799305D01*
X112760989Y-118014570D01*
X112737251Y-118236695D01*
X112737548Y-118241848D01*
X112737548Y-118241851D01*
X112744932Y-118369908D01*
X112750110Y-118459715D01*
X112751247Y-118464761D01*
X112751248Y-118464767D01*
X112773792Y-118564800D01*
X112799222Y-118677639D01*
X112883266Y-118884616D01*
X112885965Y-118889020D01*
X112996718Y-119069753D01*
X112999987Y-119075088D01*
X113146250Y-119243938D01*
X113318126Y-119386632D01*
X113363809Y-119413327D01*
X113391955Y-119429774D01*
X113440679Y-119481412D01*
X113453750Y-119551195D01*
X113427019Y-119616967D01*
X113386562Y-119650327D01*
X113378457Y-119654546D01*
X113369738Y-119660036D01*
X113199433Y-119787905D01*
X113191726Y-119794748D01*
X113044590Y-119948717D01*
X113038104Y-119956727D01*
X112918098Y-120132649D01*
X112913000Y-120141623D01*
X112823338Y-120334783D01*
X112819775Y-120344470D01*
X112764389Y-120544183D01*
X112765912Y-120552607D01*
X112778292Y-120556000D01*
X116598697Y-120556000D01*
X116666818Y-120576002D01*
X116713311Y-120629658D01*
X116723415Y-120699932D01*
X116693921Y-120764512D01*
X116682452Y-120771883D01*
X116666753Y-120790000D01*
X116660000Y-120790000D01*
X116659965Y-120803463D01*
X116659965Y-120803464D01*
X116659616Y-120938326D01*
X116639437Y-121006395D01*
X116585661Y-121052749D01*
X116533616Y-121064000D01*
X112783225Y-121064000D01*
X112769694Y-121067973D01*
X112768257Y-121077966D01*
X112798565Y-121212446D01*
X112801645Y-121222275D01*
X112881770Y-121419603D01*
X112886413Y-121428794D01*
X112997694Y-121610388D01*
X113003777Y-121618699D01*
X113143213Y-121779667D01*
X113150580Y-121786883D01*
X113314434Y-121922916D01*
X113322881Y-121928831D01*
X113391969Y-121969203D01*
X113440693Y-122020842D01*
X113453764Y-122090625D01*
X113427033Y-122156396D01*
X113386584Y-122189752D01*
X113373607Y-122196507D01*
X113369474Y-122199610D01*
X113369471Y-122199612D01*
X113218403Y-122313037D01*
X113194965Y-122330635D01*
X113040629Y-122492138D01*
X113037715Y-122496410D01*
X113037714Y-122496411D01*
X112999373Y-122552617D01*
X112914743Y-122676680D01*
X112820688Y-122879305D01*
X112760989Y-123094570D01*
X112737251Y-123316695D01*
X112737548Y-123321848D01*
X112737548Y-123321851D01*
X112744932Y-123449908D01*
X112750110Y-123539715D01*
X112751247Y-123544761D01*
X112751248Y-123544767D01*
X112758009Y-123574767D01*
X112799222Y-123757639D01*
X112843905Y-123867680D01*
X112880714Y-123958330D01*
X112883266Y-123964616D01*
X112920667Y-124025649D01*
X112976687Y-124117065D01*
X112999987Y-124155088D01*
X113003365Y-124158988D01*
X113003366Y-124158989D01*
X113096212Y-124266173D01*
X113125694Y-124330758D01*
X113115579Y-124401030D01*
X113069078Y-124454679D01*
X113000919Y-124474670D01*
X112706382Y-124474541D01*
X111046945Y-124473814D01*
X111027616Y-124472314D01*
X111012646Y-124469983D01*
X111012642Y-124469983D01*
X111003773Y-124468602D01*
X110994871Y-124469766D01*
X110994869Y-124469766D01*
X110994753Y-124469781D01*
X110964304Y-124470052D01*
X110902233Y-124463057D01*
X110874727Y-124456779D01*
X110797645Y-124429806D01*
X110772226Y-124417565D01*
X110731483Y-124391965D01*
X110703076Y-124374116D01*
X110681017Y-124356524D01*
X110671537Y-124347043D01*
X110623271Y-124298776D01*
X110605680Y-124276717D01*
X110562233Y-124207570D01*
X110549992Y-124182150D01*
X110523018Y-124105063D01*
X110516739Y-124077554D01*
X110515885Y-124069969D01*
X110510477Y-124021967D01*
X110509694Y-124006322D01*
X110509803Y-123997446D01*
X110511184Y-123988573D01*
X110510020Y-123979670D01*
X110510020Y-123979665D01*
X110507057Y-123957003D01*
X110505993Y-123940667D01*
X110505993Y-110031663D01*
X110507493Y-110012276D01*
X110509803Y-109997443D01*
X110509803Y-109997442D01*
X110511184Y-109988573D01*
X110510005Y-109979553D01*
X110509733Y-109949105D01*
X110516728Y-109887030D01*
X110523007Y-109859524D01*
X110549978Y-109782445D01*
X110562220Y-109757024D01*
X110605674Y-109687868D01*
X110623266Y-109665809D01*
X110681009Y-109608066D01*
X110703068Y-109590474D01*
X110772224Y-109547020D01*
X110797637Y-109534781D01*
X110874730Y-109507805D01*
X110902231Y-109501528D01*
X110946789Y-109496507D01*
X110957723Y-109495275D01*
X110973364Y-109495507D01*
X110973376Y-109494493D01*
X110982348Y-109494603D01*
X110991221Y-109495984D01*
X111000122Y-109494820D01*
X111000127Y-109494820D01*
X111022638Y-109491876D01*
X111039030Y-109490812D01*
X113033113Y-109491685D01*
G37*
%TD.AperFunction*%
%TA.AperFunction,Conductor*%
G36*
X147453788Y-114876591D02*
G01*
X147474762Y-114893494D01*
X147889164Y-115307896D01*
X147923190Y-115370208D01*
X147921486Y-115430662D01*
X147900989Y-115504570D01*
X147900441Y-115509700D01*
X147900440Y-115509704D01*
X147896933Y-115542522D01*
X147877251Y-115726695D01*
X147877548Y-115731848D01*
X147877548Y-115731851D01*
X147889812Y-115944547D01*
X147890110Y-115949715D01*
X147891247Y-115954761D01*
X147891248Y-115954767D01*
X147912275Y-116048069D01*
X147939222Y-116167639D01*
X147971723Y-116247680D01*
X148012873Y-116349020D01*
X148023266Y-116374616D01*
X148061052Y-116436277D01*
X148137291Y-116560688D01*
X148139987Y-116565088D01*
X148286250Y-116733938D01*
X148458126Y-116876632D01*
X148470499Y-116883862D01*
X148531445Y-116919476D01*
X148580169Y-116971114D01*
X148593240Y-117040897D01*
X148566509Y-117106669D01*
X148526055Y-117140027D01*
X148521349Y-117142477D01*
X148513607Y-117146507D01*
X148509474Y-117149610D01*
X148509471Y-117149612D01*
X148339100Y-117277530D01*
X148334965Y-117280635D01*
X148331393Y-117284373D01*
X148184319Y-117438277D01*
X148180629Y-117442138D01*
X148177720Y-117446403D01*
X148177714Y-117446411D01*
X148151049Y-117485500D01*
X148054743Y-117626680D01*
X148039003Y-117660590D01*
X147966124Y-117817595D01*
X147960688Y-117829305D01*
X147900989Y-118044570D01*
X147877251Y-118266695D01*
X147877548Y-118271848D01*
X147877548Y-118271851D01*
X147889812Y-118484547D01*
X147890110Y-118489715D01*
X147891247Y-118494761D01*
X147891248Y-118494767D01*
X147922933Y-118635360D01*
X147918397Y-118706212D01*
X147889111Y-118752156D01*
X147534761Y-119106506D01*
X147472449Y-119140532D01*
X147445666Y-119143411D01*
X146494310Y-119143411D01*
X146426189Y-119123409D01*
X146379696Y-119069753D01*
X146369592Y-118999479D01*
X146375787Y-118976909D01*
X146375204Y-118976720D01*
X146379783Y-118962627D01*
X146432885Y-118741446D01*
X146434428Y-118731699D01*
X146452275Y-118504930D01*
X146452275Y-118495070D01*
X146434428Y-118268301D01*
X146432885Y-118258554D01*
X146379783Y-118037373D01*
X146376734Y-118027988D01*
X146289687Y-117817837D01*
X146285205Y-117809042D01*
X146182568Y-117641555D01*
X146172110Y-117632093D01*
X146163334Y-117635876D01*
X145029095Y-118770115D01*
X144966783Y-118804141D01*
X144895968Y-118799076D01*
X144850905Y-118770115D01*
X143719710Y-117638920D01*
X143707330Y-117632160D01*
X143699680Y-117637887D01*
X143594795Y-117809042D01*
X143590313Y-117817837D01*
X143503266Y-118027988D01*
X143500217Y-118037373D01*
X143447115Y-118258554D01*
X143445572Y-118268301D01*
X143427725Y-118495070D01*
X143427725Y-118504930D01*
X143445572Y-118731699D01*
X143447115Y-118741446D01*
X143500217Y-118962627D01*
X143504796Y-118976720D01*
X143502966Y-118977315D01*
X143509693Y-119039754D01*
X143477928Y-119103249D01*
X143416879Y-119139490D01*
X143385690Y-119143411D01*
X139994310Y-119143411D01*
X139926189Y-119123409D01*
X139879696Y-119069753D01*
X139869592Y-118999479D01*
X139875787Y-118976909D01*
X139875204Y-118976720D01*
X139879783Y-118962627D01*
X139932885Y-118741446D01*
X139934428Y-118731699D01*
X139952275Y-118504930D01*
X139952275Y-118495070D01*
X139934428Y-118268301D01*
X139932885Y-118258554D01*
X139879783Y-118037373D01*
X139876734Y-118027988D01*
X139789687Y-117817837D01*
X139785205Y-117809042D01*
X139682568Y-117641555D01*
X139672110Y-117632093D01*
X139663334Y-117635876D01*
X138529095Y-118770115D01*
X138466783Y-118804141D01*
X138395968Y-118799076D01*
X138350905Y-118770115D01*
X138169885Y-118589095D01*
X138135859Y-118526783D01*
X138140924Y-118455968D01*
X138169885Y-118410905D01*
X139301080Y-117279710D01*
X139307840Y-117267330D01*
X139302113Y-117259680D01*
X139130958Y-117154795D01*
X139122163Y-117150313D01*
X139040964Y-117116680D01*
X138985683Y-117072132D01*
X138963262Y-117004769D01*
X138980820Y-116935978D01*
X139032782Y-116887599D01*
X139040964Y-116883862D01*
X139122389Y-116850135D01*
X139122393Y-116850133D01*
X139126963Y-116848240D01*
X139203769Y-116801173D01*
X139325202Y-116726759D01*
X139325208Y-116726755D01*
X139329416Y-116724176D01*
X139509969Y-116569969D01*
X139664176Y-116389416D01*
X139782908Y-116195664D01*
X139835555Y-116148034D01*
X139890340Y-116135500D01*
X143489660Y-116135500D01*
X143557781Y-116155502D01*
X143597092Y-116195664D01*
X143715824Y-116389416D01*
X143870031Y-116569969D01*
X144050584Y-116724176D01*
X144054792Y-116726755D01*
X144054798Y-116726759D01*
X144176231Y-116801173D01*
X144253037Y-116848240D01*
X144257607Y-116850133D01*
X144257611Y-116850135D01*
X144339036Y-116883862D01*
X144394317Y-116928410D01*
X144416738Y-116995774D01*
X144399180Y-117064565D01*
X144347218Y-117112943D01*
X144339036Y-117116680D01*
X144257837Y-117150313D01*
X144249042Y-117154795D01*
X144081555Y-117257432D01*
X144072093Y-117267890D01*
X144075876Y-117276666D01*
X144927188Y-118127978D01*
X144941132Y-118135592D01*
X144942965Y-118135461D01*
X144949580Y-118131210D01*
X145801080Y-117279710D01*
X145807840Y-117267330D01*
X145802113Y-117259680D01*
X145630958Y-117154795D01*
X145622163Y-117150313D01*
X145540964Y-117116680D01*
X145485683Y-117072132D01*
X145463262Y-117004769D01*
X145480820Y-116935978D01*
X145532782Y-116887599D01*
X145540964Y-116883862D01*
X145622389Y-116850135D01*
X145622393Y-116850133D01*
X145626963Y-116848240D01*
X145703769Y-116801173D01*
X145825202Y-116726759D01*
X145825208Y-116726755D01*
X145829416Y-116724176D01*
X146009969Y-116569969D01*
X146164176Y-116389416D01*
X146166755Y-116385208D01*
X146166759Y-116385202D01*
X146285654Y-116191183D01*
X146288240Y-116186963D01*
X146296245Y-116167639D01*
X146377211Y-115972167D01*
X146377212Y-115972165D01*
X146379105Y-115967594D01*
X146398360Y-115887391D01*
X146433380Y-115741524D01*
X146433381Y-115741518D01*
X146434535Y-115736711D01*
X146453165Y-115500000D01*
X146434535Y-115263289D01*
X146432452Y-115254610D01*
X146391312Y-115083251D01*
X146379105Y-115032406D01*
X146377210Y-115027832D01*
X146375681Y-115023125D01*
X146377547Y-115022519D01*
X146370858Y-114960196D01*
X146402648Y-114896714D01*
X146463713Y-114860497D01*
X146494852Y-114856589D01*
X147385667Y-114856589D01*
X147453788Y-114876591D01*
G37*
%TD.AperFunction*%
%TA.AperFunction,Conductor*%
G36*
X137550988Y-109502422D02*
G01*
X137619098Y-109522454D01*
X137665568Y-109576130D01*
X137675641Y-109646408D01*
X137646119Y-109710976D01*
X137616767Y-109735854D01*
X137581554Y-109757433D01*
X137572093Y-109767890D01*
X137575876Y-109776666D01*
X138427188Y-110627978D01*
X138441132Y-110635592D01*
X138442965Y-110635461D01*
X138449580Y-110631210D01*
X139301080Y-109779710D01*
X139307840Y-109767330D01*
X139302114Y-109759681D01*
X139264504Y-109736633D01*
X139216873Y-109683985D01*
X139205267Y-109613944D01*
X139233371Y-109548746D01*
X139292262Y-109509093D01*
X139330390Y-109503202D01*
X144046344Y-109505267D01*
X144114456Y-109525299D01*
X144160926Y-109578975D01*
X144170999Y-109649253D01*
X144141477Y-109713821D01*
X144112124Y-109738699D01*
X144081555Y-109757432D01*
X144072093Y-109767890D01*
X144075876Y-109776666D01*
X144927188Y-110627978D01*
X144941132Y-110635592D01*
X144942965Y-110635461D01*
X144949580Y-110631210D01*
X145801080Y-109779710D01*
X145807840Y-109767330D01*
X145802114Y-109759681D01*
X145769153Y-109739482D01*
X145721522Y-109686834D01*
X145709916Y-109616793D01*
X145738020Y-109551595D01*
X145796910Y-109511942D01*
X145835042Y-109506050D01*
X147398028Y-109506735D01*
X147786279Y-109506905D01*
X147854391Y-109526937D01*
X147900861Y-109580613D01*
X147910934Y-109650891D01*
X147904206Y-109677134D01*
X147888255Y-109719684D01*
X147881500Y-109781866D01*
X147881500Y-111087577D01*
X147861498Y-111155698D01*
X147844595Y-111176672D01*
X147414761Y-111606506D01*
X147352449Y-111640532D01*
X147325666Y-111643411D01*
X146494310Y-111643411D01*
X146426189Y-111623409D01*
X146379696Y-111569753D01*
X146369592Y-111499479D01*
X146375787Y-111476909D01*
X146375204Y-111476720D01*
X146379783Y-111462627D01*
X146432885Y-111241446D01*
X146434428Y-111231699D01*
X146452275Y-111004930D01*
X146452275Y-110995070D01*
X146434428Y-110768301D01*
X146432885Y-110758554D01*
X146379783Y-110537373D01*
X146376734Y-110527988D01*
X146289687Y-110317837D01*
X146285205Y-110309042D01*
X146182568Y-110141555D01*
X146172110Y-110132093D01*
X146163334Y-110135876D01*
X145029095Y-111270115D01*
X144966783Y-111304141D01*
X144895968Y-111299076D01*
X144850905Y-111270115D01*
X143719710Y-110138920D01*
X143707330Y-110132160D01*
X143699680Y-110137887D01*
X143594795Y-110309042D01*
X143590313Y-110317837D01*
X143503266Y-110527988D01*
X143500217Y-110537373D01*
X143447115Y-110758554D01*
X143445572Y-110768301D01*
X143427725Y-110995070D01*
X143427725Y-111004930D01*
X143445572Y-111231699D01*
X143447115Y-111241446D01*
X143500217Y-111462627D01*
X143504796Y-111476720D01*
X143502966Y-111477315D01*
X143509693Y-111539754D01*
X143477928Y-111603249D01*
X143416879Y-111639490D01*
X143385690Y-111643411D01*
X139994310Y-111643411D01*
X139926189Y-111623409D01*
X139879696Y-111569753D01*
X139869592Y-111499479D01*
X139875787Y-111476909D01*
X139875204Y-111476720D01*
X139879783Y-111462627D01*
X139932885Y-111241446D01*
X139934428Y-111231699D01*
X139952275Y-111004930D01*
X139952275Y-110995070D01*
X139934428Y-110768301D01*
X139932885Y-110758554D01*
X139879783Y-110537373D01*
X139876734Y-110527988D01*
X139789687Y-110317837D01*
X139785205Y-110309042D01*
X139682568Y-110141555D01*
X139672110Y-110132093D01*
X139663334Y-110135876D01*
X138529095Y-111270115D01*
X138466783Y-111304141D01*
X138395968Y-111299076D01*
X138350905Y-111270115D01*
X137219710Y-110138920D01*
X137207330Y-110132160D01*
X137199680Y-110137887D01*
X137094795Y-110309042D01*
X137090313Y-110317837D01*
X137056680Y-110399036D01*
X137012132Y-110454317D01*
X136944769Y-110476738D01*
X136875978Y-110459180D01*
X136827599Y-110407218D01*
X136823862Y-110399036D01*
X136790135Y-110317611D01*
X136790133Y-110317607D01*
X136788240Y-110313037D01*
X136782907Y-110304335D01*
X136666759Y-110114798D01*
X136666755Y-110114792D01*
X136664176Y-110110584D01*
X136509969Y-109930031D01*
X136329416Y-109775824D01*
X136325203Y-109773242D01*
X136325193Y-109773235D01*
X136263320Y-109735319D01*
X136215689Y-109682672D01*
X136204082Y-109612630D01*
X136232185Y-109547433D01*
X136291076Y-109507779D01*
X136329208Y-109501887D01*
X137550988Y-109502422D01*
G37*
%TD.AperFunction*%
%TD*%
M02*
